<svg width="1024" height="1024" viewBox="0 0 1024 1024" fill="none" xmlns="http://www.w3.org/2000/svg">
<rect width="1024" height="1024" fill="#154576"/>
<rect width="1024" height="1024" fill="url(#paint0_linear_2201_16916)"/>
<path fill-rule="evenodd" clip-rule="evenodd" d="M790.409 161.198C788.374 159.305 776.245 148.695 759.933 148.695C747.872 148.695 600.033 148.744 562.653 148.756L554.116 148.758C452.925 148.758 361.849 209.504 322.091 303.516C306.419 340.572 299.471 381.168 301.906 421.243C271.69 446.858 247.522 479.831 231.849 516.889C205.245 579.795 204.174 649.538 228.834 713.267C253.494 776.997 300.934 827.086 362.414 854.308C394.133 868.353 427.604 875.476 461.897 875.478C562.018 875.478 652.42 814.728 692.181 720.714C707.853 683.659 714.8 643.063 712.366 602.987C742.583 577.37 766.75 544.397 782.422 507.339C796.046 475.128 803.007 441.144 803.111 406.31L803.123 392.629C803.162 347.825 803.287 207.669 803.287 193.45C803.288 173.581 792.575 163.111 790.409 161.198ZM665.139 634.564C663.448 657.589 658.012 680.062 648.922 701.56C616.632 777.907 543.227 827.24 461.911 827.24C434.079 827.24 406.901 821.454 381.134 810.046C331.209 787.94 292.686 747.264 272.66 695.513C252.634 643.762 253.505 587.128 275.109 536.044C284.201 514.544 296.493 495.106 311.744 478.081C321.195 510.697 336.991 541.415 357.933 567.717C383.096 599.32 415.85 624.639 452.655 640.936C484.369 654.978 517.831 662.098 552.11 662.098C591.342 662.095 630.095 652.619 665.139 634.564ZM552.136 613.861C524.309 613.861 497.138 608.078 471.377 596.672C408.71 568.924 364.437 511.914 352.004 443.425C384.991 421.781 422.945 410.369 462.138 410.369C489.965 410.369 517.136 416.153 542.898 427.559C605.564 455.306 649.837 512.316 662.27 580.805C629.282 602.449 591.328 613.861 552.136 613.861ZM349.134 389.664C350.825 366.636 356.259 344.167 365.351 322.669C397.638 246.323 473.814 200.56 552.306 200.584C552.73 200.584 552.593 200.582 552.397 200.579C551.934 200.572 551.141 200.56 556.571 200.56H564.308H583.639H619.475H751.76V240.635C751.76 246.828 751.754 253.924 751.747 261.649V261.702C751.731 279.454 751.712 300.522 751.76 321.576C751.798 338.394 751.784 356.27 751.772 372.93V373.025C751.766 380.882 751.76 388.467 751.76 395.542C751.76 425.305 751.631 458.699 739.16 488.187C730.068 509.687 717.776 529.125 702.524 546.151C693.073 513.535 677.277 482.817 656.336 456.516C631.173 424.912 598.418 399.593 561.614 383.296C529.9 369.254 496.438 362.134 462.158 362.134C422.93 362.132 384.178 371.61 349.134 389.664ZM456.919 529.032C470.916 529.032 482.263 517.422 482.263 503.1C482.263 488.778 470.916 477.168 456.919 477.168C442.922 477.168 431.575 488.778 431.575 503.1C431.575 517.422 442.922 529.032 456.919 529.032ZM581.223 512.705C581.223 531.801 566.094 547.281 547.431 547.281C528.768 547.281 513.639 531.801 513.639 512.705C513.639 493.609 528.768 478.129 547.431 478.129C566.094 478.129 581.223 493.609 581.223 512.705Z" fill="white"/>
<defs>
<linearGradient id="paint0_linear_2201_16916" x1="512" y1="0" x2="512" y2="1024" gradientUnits="userSpaceOnUse">
<stop stop-color="#046EAA" stop-opacity="0"/>
<stop offset="1" stop-color="#046EAA"/>
</linearGradient>
</defs>
</svg>
