<svg width="512" height="527" viewBox="0 0 512 527" fill="none" xmlns="http://www.w3.org/2000/svg">
<rect width="512" height="527" fill="#154576"/>
<rect width="512" height="527" fill="url(#paint0_linear_1811_6168)"/>
<path fill-rule="evenodd" clip-rule="evenodd" d="M395.204 87.5991C394.187 86.6524 388.122 81.3477 379.967 81.3477C373.936 81.3477 300.016 81.3718 281.327 81.378L277.058 81.3792C226.462 81.3792 180.925 111.752 161.046 158.758C153.209 177.286 149.736 197.584 150.953 217.621C135.845 230.429 123.761 246.915 115.925 265.445C102.622 296.898 102.087 331.769 114.417 363.633C126.747 395.498 150.467 420.543 181.207 434.154C197.067 441.177 213.802 444.738 230.948 444.739C281.009 444.739 326.21 414.364 346.09 367.357C353.926 348.83 357.4 328.531 356.183 308.493C371.292 295.685 383.375 279.198 391.211 260.67C398.023 244.564 401.503 227.572 401.555 210.155L401.561 203.315C401.581 180.913 401.644 110.835 401.644 103.725C401.644 93.7905 396.287 88.5557 395.204 87.5991ZM332.569 324.282C331.724 335.794 329.006 347.031 324.461 357.78C308.316 395.954 271.613 420.62 230.956 420.62C217.039 420.62 203.451 417.727 190.567 412.023C165.605 400.97 146.343 380.632 136.33 354.757C126.317 328.881 126.752 300.564 137.554 275.022C142.101 264.272 148.247 254.553 155.872 246.04C160.598 262.349 168.496 277.707 178.967 290.858C191.548 306.66 207.925 319.319 226.328 327.468C242.184 334.489 258.916 338.049 276.055 338.049C295.671 338.048 315.048 333.309 332.569 324.282ZM276.068 313.931C262.155 313.931 248.569 311.039 235.689 305.336C204.355 291.462 182.218 262.957 176.002 228.713C192.495 217.89 211.472 212.184 231.069 212.184C244.982 212.184 258.568 215.076 271.449 220.779C302.782 234.653 324.919 263.158 331.135 297.402C314.641 308.224 295.664 313.931 276.068 313.931ZM174.567 201.832C175.413 190.318 178.13 179.083 182.675 168.335C198.819 130.161 236.907 107.28 276.153 107.292C276.365 107.292 276.297 107.291 276.198 107.289C275.967 107.286 275.57 107.28 278.286 107.28H282.154H291.819H309.737H375.88V127.318C375.88 130.414 375.877 133.962 375.873 137.824V137.851C375.865 146.727 375.856 157.261 375.88 167.788C375.899 176.197 375.892 185.135 375.886 193.465V193.513C375.883 197.441 375.88 201.234 375.88 204.771C375.88 219.652 375.816 236.35 369.58 251.093C365.034 261.843 358.888 271.562 351.262 280.076C346.536 263.768 338.638 248.409 328.168 235.258C315.587 219.456 299.209 206.797 280.807 198.648C264.95 191.627 248.219 188.067 231.079 188.067C211.465 188.066 192.089 192.805 174.567 201.832ZM228.46 271.516C235.458 271.516 241.132 265.711 241.132 258.55C241.132 251.389 235.458 245.584 228.46 245.584C221.461 245.584 215.788 251.389 215.788 258.55C215.788 265.711 221.461 271.516 228.46 271.516ZM290.611 263.353C290.611 272.9 283.047 280.641 273.715 280.641C264.384 280.641 256.819 272.9 256.819 263.353C256.819 253.805 264.384 246.064 273.715 246.064C283.047 246.064 290.611 253.805 290.611 263.353Z" fill="white"/>
<defs>
<linearGradient id="paint0_linear_1811_6168" x1="256" y1="0" x2="256" y2="527" gradientUnits="userSpaceOnUse">
<stop stop-color="#046EAA" stop-opacity="0"/>
<stop offset="1" stop-color="#046EAA"/>
</linearGradient>
</defs>
</svg>
