<svg width="108" height="108" viewBox="0 0 108 108" fill="none" xmlns="http://www.w3.org/2000/svg">
<path d="M77 107.668L40.7901 71.3596C40.7901 71.3596 47.4106 74.3137 51.6837 73.9226C55.4503 73.5779 60.9548 70.8936 60.9548 70.8936L64.6633 60.6413L70.4577 49.6901V34.7778L108 72.4182V107.668H77Z" fill="url(#paint0_linear)"/>
<g filter="url(#filter0_d)">
<path fill-rule="evenodd" clip-rule="evenodd" d="M70.0375 34.2035C69.917 34.094 69.1992 33.4803 68.2337 33.4803C67.5199 33.4803 58.77 33.4831 56.5576 33.4838L56.0523 33.4839C50.0633 33.4839 44.6729 36.9977 42.3198 42.4356C41.3923 44.579 40.9811 46.9273 41.1251 49.2453C39.3368 50.727 37.9064 52.6342 36.9788 54.7778C35.4042 58.4165 35.3409 62.4507 36.8004 66.1369C38.2599 69.8233 41.0676 72.7206 44.7063 74.2952C46.5837 75.1076 48.5647 75.5197 50.5943 75.5197H50.5949C56.5206 75.5197 61.8705 72.0058 64.2238 66.5677C65.1513 64.4243 65.5625 62.0761 65.4184 59.758C67.2069 58.2762 68.6372 56.3689 69.5648 54.2254C70.3711 52.3622 70.7831 50.3964 70.7892 48.3815L70.7899 47.5946C70.7923 45.0077 70.7996 36.892 70.7996 36.069C70.7997 34.9197 70.1656 34.3141 70.0375 34.2035ZM62.6233 61.5845C62.5232 62.9163 62.2015 64.2163 61.6635 65.4598C59.7524 69.8759 55.4079 72.7295 50.5951 72.7295C48.9479 72.7295 47.3394 72.3949 45.8143 71.735C42.8595 70.4563 40.5795 68.1035 39.3942 65.11C38.209 62.1165 38.2605 58.8406 39.5392 55.8858C40.0773 54.6422 40.8048 53.5178 41.7074 52.533C42.2668 54.4196 43.2017 56.1965 44.4412 57.7178C45.9304 59.5459 47.869 61.0104 50.0473 61.9531C51.9243 62.7653 53.9048 63.1772 55.9336 63.1772C58.2556 63.177 60.5492 62.6288 62.6233 61.5845ZM55.9351 60.387C54.2882 60.387 52.6801 60.0525 51.1554 59.3927C47.4464 57.7877 44.8261 54.49 44.0902 50.5284C46.0426 49.2764 48.2889 48.6163 50.6086 48.6163C52.2555 48.6163 53.8637 48.9509 55.3884 49.6106C59.0973 51.2156 61.7176 54.5133 62.4535 58.4749C60.5011 59.7269 58.2548 60.387 55.9351 60.387ZM43.9204 47.4187C44.0205 46.0867 44.3421 44.787 44.8802 43.5435C46.7911 39.1274 51.1358 36.2739 55.9486 36.2739C56.0329 36.2739 56.1167 36.2748 56.201 36.2766C56.313 36.279 56.4628 36.2801 56.6589 36.2801C56.9629 36.2801 57.3525 36.2774 57.803 36.2742C58.4325 36.2698 59.146 36.2649 59.924 36.2649C65.2743 36.2649 66.8832 36.5332 67.2907 36.7584C67.3046 36.7661 67.6346 36.9685 67.7951 38.8108C67.9065 40.0898 67.9104 41.7395 67.9145 43.4863L67.9145 43.4927L67.9145 43.4957V43.4958C67.9178 44.9284 67.9212 46.4095 67.9855 47.7711C68.0725 49.6131 67.7424 51.4119 67.0043 53.1176C66.4661 54.3612 65.7386 55.4856 64.8359 56.4704C64.2766 54.5838 63.3417 52.807 62.1023 51.2856C60.613 49.4575 58.6744 47.993 56.4961 47.0504C54.6191 46.2381 52.6387 45.8263 50.6097 45.8263C48.288 45.8261 45.9945 46.3744 43.9204 47.4187ZM49.7566 56.375C50.7562 56.375 51.5665 55.5647 51.5665 54.5651C51.5665 53.5655 50.7562 52.7551 49.7566 52.7551C48.757 52.7551 47.9466 53.5655 47.9466 54.5651C47.9466 55.5647 48.757 56.375 49.7566 56.375ZM58.4622 55.64C58.4622 57.2026 57.1955 58.4693 55.6329 58.4693C54.0703 58.4693 52.8036 57.2026 52.8036 55.64C52.8036 54.0775 54.0703 52.8107 55.6329 52.8107C57.1955 52.8107 58.4622 54.0775 58.4622 55.64Z" fill="#F9F9F9"/>
</g>
<rect width="108" height="108" fill="url(#paint1_radial)"/>
<defs>
<filter id="filter0_d" x="35.75" y="33.4803" width="43.0496" height="50.0395" filterUnits="userSpaceOnUse" color-interpolation-filters="sRGB">
<feFlood flood-opacity="0" result="BackgroundImageFix"/>
<feColorMatrix in="SourceAlpha" type="matrix" values="0 0 0 0 0 0 0 0 0 0 0 0 0 0 0 0 0 0 127 0"/>
<feOffset dx="4" dy="4"/>
<feGaussianBlur stdDeviation="2"/>
<feColorMatrix type="matrix" values="0 0 0 0 0 0 0 0 0 0 0 0 0 0 0 0 0 0 0.2 0"/>
<feBlend mode="normal" in2="BackgroundImageFix" result="effect1_dropShadow"/>
<feBlend mode="normal" in="SourceGraphic" in2="effect1_dropShadow" result="shape"/>
</filter>
<linearGradient id="paint0_linear" x1="52.1473" y1="54.1172" x2="89.1883" y2="89.8045" gradientUnits="userSpaceOnUse">
<stop offset="0.385417" stop-opacity="0.15"/>
<stop offset="0.666667" stop-opacity="0.02"/>
<stop offset="1" stop-opacity="0"/>
</linearGradient>
<radialGradient id="paint1_radial" cx="0" cy="0" r="1" gradientUnits="userSpaceOnUse" gradientTransform="rotate(45) scale(150.725)">
<stop stop-color="white" stop-opacity="0.1"/>
<stop offset="0.3125" stop-color="white" stop-opacity="0.0645833"/>
<stop offset="1" stop-color="white" stop-opacity="0"/>
</radialGradient>
</defs>
</svg>
