<svg width="12" height="12" viewBox="0 0 12 12" fill="none" xmlns="http://www.w3.org/2000/svg">
<g clip-path="url(#clip0_1165_16837)">
<path d="M10.7698 6.58831C11.0767 6.26292 11.0767 5.73448 10.7698 5.40908L6.84101 1.24405C6.53407 0.918652 6.0356 0.918652 5.72867 1.24405C5.42173 1.56944 5.42173 2.09788 5.72867 2.42327L8.31921 5.16699H0.785758C0.351136 5.16699 0 5.53924 0 6C0 6.46076 0.351136 6.83301 0.785758 6.83301H8.31676L5.73112 9.57673C5.42419 9.90212 5.42419 10.4306 5.73112 10.756C6.03806 11.0813 6.53653 11.0813 6.84346 10.756L10.7723 6.59091L10.7698 6.58831Z" fill="#1B2B3E"/>
</g>
<defs>
<clipPath id="clip0_1165_16837">
<rect width="12" height="12" fill="white"/>
</clipPath>
</defs>
</svg>
