<svg width="144" height="144" viewBox="0 0 144 144" fill="none" xmlns="http://www.w3.org/2000/svg">
<circle cx="86" cy="84" r="58" fill="#0E1A23"/>
<path fill-rule="evenodd" clip-rule="evenodd" d="M37.5906 93.2075H3.6001L8.45434 123.28H40.5671L37.5906 93.2075Z" fill="#D1E6EF"/>
<path d="M40.5671 123.28H8.45434L3.6001 93.2075H37.5906" stroke="#84A4A8" stroke-linecap="round" stroke-linejoin="round"/>
<path d="M3.6001 93.2075L29.0881 113.224L38.5827 103.237" stroke="#84A4A8" stroke-linecap="round" stroke-linejoin="round"/>
<path d="M8.4541 123.28L22.1211 107.75" stroke="#84A4A8" stroke-linecap="round" stroke-linejoin="round"/>
<path d="M39.4563 112.044L34.291 107.75" stroke="#84A4A8" stroke-linecap="round" stroke-linejoin="round"/>
<path fill-rule="evenodd" clip-rule="evenodd" d="M115.479 128.63L115.106 124.87C115.199 125.808 115.094 126.755 114.798 127.65C114.503 128.545 114.023 129.368 113.39 130.067C112.757 130.766 111.985 131.324 111.123 131.706C110.262 132.088 109.33 132.285 108.387 132.286H51.9012C50.2258 132.286 48.6102 131.663 47.3685 130.538C46.1267 129.413 45.3474 127.867 45.1822 126.2L35.7444 30.8365C35.652 29.8985 35.7569 28.9515 36.0524 28.0566C36.3479 27.1615 36.8275 26.3383 37.4603 25.6398C38.0931 24.9413 38.8651 24.383 39.7267 24.0007C40.5882 23.6185 41.5202 23.4208 42.4627 23.4205H38.5971C37.6078 23.4082 36.6271 23.603 35.7176 23.9924C34.8083 24.3819 33.9905 24.9573 33.3168 25.6818C32.6432 26.4062 32.1286 27.2637 31.8061 28.1989C31.4837 29.1342 31.3605 30.1266 31.4446 31.1122L41.2366 130.01C41.4287 131.757 42.2637 133.371 43.5792 134.538C44.8948 135.704 46.597 136.34 48.3552 136.322H108.331C109.32 136.333 110.3 136.138 111.209 135.748C112.118 135.358 112.935 134.783 113.608 134.059C114.281 133.334 114.795 132.477 115.118 131.542C115.44 130.607 115.563 129.615 115.479 128.63Z" fill="#84A4A8"/>
<path fill-rule="evenodd" clip-rule="evenodd" d="M115.479 128.63L115.106 124.87C115.199 125.808 115.094 126.755 114.798 127.65C114.503 128.545 114.023 129.368 113.39 130.067C112.757 130.766 111.985 131.324 111.123 131.706C110.262 132.088 109.33 132.285 108.387 132.286H51.9012C50.2258 132.286 48.6102 131.663 47.3685 130.538C46.1267 129.413 45.3474 127.867 45.1822 126.2L35.7444 30.8365C35.652 29.8985 35.7569 28.9515 36.0524 28.0566C36.3479 27.1615 36.8275 26.3383 37.4603 25.6398C38.0931 24.9413 38.8651 24.383 39.7267 24.0007C40.5882 23.6185 41.5202 23.4208 42.4627 23.4205H38.5971C37.6078 23.4082 36.6271 23.603 35.7176 23.9924C34.8083 24.3819 33.9905 24.9573 33.3168 25.6818C32.6432 26.4062 32.1286 27.2637 31.8061 28.1989C31.4837 29.1342 31.3605 30.1266 31.4446 31.1122L41.2366 130.01C41.4287 131.757 42.2637 133.371 43.5792 134.538C44.8948 135.704 46.597 136.34 48.3552 136.322H108.331C109.32 136.333 110.3 136.138 111.209 135.748C112.118 135.358 112.935 134.783 113.608 134.059C114.281 133.334 114.795 132.477 115.118 131.542C115.44 130.607 115.563 129.615 115.479 128.63Z" stroke="#84A4A8" stroke-linecap="round" stroke-linejoin="round"/>
<path d="M111.938 92.8549L108.536 58.479" stroke="#84A4A8" stroke-linecap="round" stroke-linejoin="round"/>
<path d="M106.769 40.6301L105.668 29.5061C105.503 27.8388 104.724 26.2924 103.482 25.1676C102.24 24.0427 100.624 23.4198 98.949 23.4199H42.4628C41.5203 23.4204 40.5883 23.618 39.7267 24.0002C38.8652 24.3824 38.0932 24.9408 37.4604 25.6392C36.8276 26.3378 36.348 27.161 36.0525 28.056C35.7569 28.951 35.652 29.898 35.7445 30.8359L45.1822 126.199C45.3475 127.865 46.1267 129.412 47.3685 130.537C48.6102 131.662 50.2258 132.285 51.9013 132.285H108.387C109.33 132.285 110.262 132.087 111.124 131.705C111.985 131.323 112.758 130.764 113.391 130.066C114.024 129.367 114.503 128.544 114.799 127.649C115.094 126.754 115.199 125.807 115.106 124.869L113.705 110.702" stroke="#84A4A8" stroke-linecap="round" stroke-linejoin="round"/>
<path d="M63.9434 29.7788H82.9802" stroke="#84A4A8" stroke-linecap="round" stroke-linejoin="round"/>
<path d="M86.6082 126.558C88.2267 124.847 87.9884 121.992 86.0746 120.182C84.1616 118.373 81.2982 118.293 79.6796 120.005C78.061 121.716 78.2994 124.571 80.2131 126.38C82.1262 128.19 84.9896 128.27 86.6082 126.558Z" stroke="#84A4A8" stroke-linecap="round" stroke-linejoin="round"/>
<path fill-rule="evenodd" clip-rule="evenodd" d="M120.871 53.5148L119.147 44.0828C118.97 43.1148 118.459 42.2393 117.704 41.609C116.948 40.9788 115.995 40.6334 115.011 40.6333H86.6879C86.0716 40.6336 85.4632 40.7693 84.9052 41.0307C84.3479 41.2921 83.854 41.6729 83.4594 42.1461C83.0648 42.6193 82.779 43.1734 82.6228 43.7692C82.4658 44.365 82.4413 44.988 82.5522 45.5941L84.2759 55.0333C84.453 56.0013 84.9635 56.8766 85.7195 57.5068C86.4755 58.137 87.428 58.4821 88.4123 58.4821H114.836L128.165 63.2341L120.871 53.5148ZM93.9332 51.9308C93.5178 51.9308 93.1117 51.8076 92.7668 51.5769C92.4213 51.3463 92.1527 51.0184 91.9936 50.6347C91.8344 50.2511 91.7934 49.8289 91.874 49.4217C91.9554 49.0144 92.1548 48.6403 92.4486 48.3467C92.7424 48.053 93.116 47.8531 93.5236 47.7721C93.9311 47.6911 94.353 47.7326 94.7368 47.8915C95.1205 48.0505 95.4481 48.3196 95.6792 48.6648C95.9096 49.0101 96.0328 49.416 96.0328 49.8313C96.0328 50.107 95.9788 50.38 95.8729 50.6347C95.7671 50.8894 95.613 51.1209 95.4179 51.3159C95.2228 51.5108 94.9916 51.6654 94.7368 51.771C94.4819 51.8765 94.209 51.9308 93.9332 51.9308ZM102.19 51.9308C101.775 51.9308 101.369 51.8076 101.024 51.5769C100.678 51.3463 100.41 51.0184 100.251 50.6347C100.091 50.2511 100.05 49.8289 100.131 49.4217C100.212 49.0144 100.412 48.6403 100.706 48.3467C100.999 48.053 101.373 47.8531 101.781 47.7721C102.188 47.6911 102.61 47.7326 102.994 47.8915C103.377 48.0505 103.705 48.3196 103.936 48.6648C104.167 49.0101 104.29 49.416 104.29 49.8313C104.29 50.107 104.236 50.38 104.13 50.6347C104.024 50.8894 103.87 51.1209 103.675 51.3159C103.48 51.5108 103.249 51.6654 102.994 51.771C102.739 51.8765 102.466 51.9308 102.19 51.9308ZM110.447 51.9308C110.032 51.9307 109.626 51.8074 109.281 51.5766C108.936 51.3458 108.667 51.0179 108.508 50.6342C108.349 50.2506 108.308 49.8284 108.389 49.4213C108.47 49.014 108.67 48.64 108.963 48.3464C109.257 48.0529 109.631 47.853 110.038 47.772C110.446 47.6911 110.868 47.7327 111.251 47.8916C111.635 48.0506 111.963 48.3197 112.194 48.6649C112.424 49.0101 112.547 49.4161 112.547 49.8313C112.547 50.107 112.493 50.38 112.388 50.6347C112.282 50.8894 112.128 51.1209 111.933 51.3159C111.737 51.5108 111.506 51.6654 111.251 51.771C110.997 51.8765 110.723 51.9308 110.447 51.9308Z" fill="#84A4A8"/>
<path d="M120.871 53.5148L119.147 44.0828C118.971 43.1147 118.459 42.2392 117.704 41.6089C116.948 40.9785 115.995 40.6333 115.011 40.6333H86.6879C86.0716 40.6336 85.4632 40.7693 84.9052 41.0307C84.3479 41.2921 83.854 41.6729 83.4594 42.1461C83.0648 42.6193 82.779 43.1734 82.6228 43.7692C82.4658 44.365 82.4413 44.988 82.5522 45.5941L84.2759 55.0333C84.453 56.0013 84.9635 56.8768 85.7195 57.5069C86.4755 58.1371 87.428 58.4822 88.4123 58.4821H114.836L128.165 63.2341L120.871 53.5148Z" stroke="#84A4A8" stroke-linecap="round" stroke-linejoin="round"/>
<path d="M93.933 51.9305C95.0922 51.9305 96.0325 50.9905 96.0325 49.831C96.0325 48.6715 95.0922 47.7314 93.933 47.7314C92.7738 47.7314 91.8335 48.6715 91.8335 49.831C91.8335 50.9905 92.7738 51.9305 93.933 51.9305Z" stroke="#84A4A8" stroke-linecap="round" stroke-linejoin="round"/>
<path d="M102.19 51.9305C103.35 51.9305 104.29 50.9905 104.29 49.831C104.29 48.6715 103.35 47.7314 102.19 47.7314C101.031 47.7314 100.091 48.6715 100.091 49.831C100.091 50.9905 101.031 51.9305 102.19 51.9305Z" stroke="#84A4A8" stroke-linecap="round" stroke-linejoin="round"/>
<path d="M110.448 47.7314C110.863 47.7314 111.269 47.8546 111.614 48.0853C111.96 48.316 112.228 48.6439 112.387 49.0275C112.546 49.4112 112.588 49.8333 112.507 50.2406C112.426 50.6479 112.226 51.022 111.932 51.3156C111.639 51.6092 111.265 51.8092 110.857 51.8902C110.45 51.9712 110.028 51.9296 109.644 51.7707C109.26 51.6118 108.933 51.3427 108.702 50.9974C108.471 50.6522 108.348 50.2463 108.348 49.831C108.348 49.2742 108.569 48.7402 108.963 48.3464C109.357 47.9527 109.891 47.7314 110.448 47.7314Z" stroke="#84A4A8" stroke-linecap="round" stroke-linejoin="round"/>
<path fill-rule="evenodd" clip-rule="evenodd" d="M128.095 105.738L126.371 96.3062C126.194 95.3378 125.683 94.463 124.928 93.8323C124.172 93.2023 123.219 92.8574 122.235 92.8574H93.9111C93.2948 92.8574 92.6864 92.9928 92.1284 93.2541C91.5711 93.5155 91.0772 93.8964 90.6826 94.3694C90.288 94.8425 90.0022 95.3969 89.8452 95.9923C89.689 96.5885 89.6645 97.2113 89.7754 97.8175L91.4991 107.257C91.6762 108.224 92.1867 109.1 92.9427 109.731C93.698 110.361 94.6512 110.706 95.6355 110.706H122.059L135.388 115.458L128.095 105.738ZM101.606 104.154C101.191 104.154 100.785 104.031 100.439 103.801C100.094 103.57 99.8244 103.242 99.6653 102.858C99.5062 102.474 99.4644 102.052 99.5458 101.644C99.6264 101.237 99.8266 100.863 100.12 100.569C100.414 100.275 100.789 100.075 101.196 99.9941C101.603 99.9127 102.025 99.9545 102.409 100.114C102.793 100.272 103.121 100.541 103.352 100.887C103.583 101.232 103.706 101.639 103.706 102.054C103.706 102.33 103.652 102.603 103.546 102.858C103.441 103.112 103.286 103.344 103.091 103.539C102.897 103.734 102.665 103.889 102.41 103.994C102.155 104.1 101.882 104.155 101.606 104.155V104.154ZM109.863 104.154C109.448 104.154 109.042 104.031 108.696 103.801C108.351 103.57 108.081 103.242 107.922 102.858C107.763 102.474 107.721 102.052 107.803 101.644C107.883 101.237 108.084 100.863 108.377 100.569C108.671 100.275 109.045 100.075 109.453 99.9941C109.86 99.9127 110.282 99.9545 110.666 100.114C111.05 100.272 111.378 100.541 111.609 100.887C111.84 101.232 111.963 101.639 111.963 102.054C111.963 102.33 111.909 102.603 111.803 102.858C111.698 103.112 111.543 103.344 111.348 103.539C111.154 103.734 110.922 103.889 110.667 103.994C110.412 104.1 110.139 104.155 109.863 104.155V104.154ZM118.12 104.154C117.705 104.154 117.299 104.031 116.953 103.801C116.608 103.57 116.338 103.242 116.179 102.858C116.02 102.474 115.978 102.052 116.06 101.644C116.14 101.237 116.341 100.863 116.634 100.569C116.928 100.275 117.302 100.075 117.71 99.9941C118.117 99.9127 118.539 99.9545 118.923 100.114C119.307 100.272 119.635 100.541 119.866 100.887C120.097 101.232 120.22 101.639 120.22 102.054C120.22 102.33 120.166 102.603 120.06 102.858C119.955 103.112 119.8 103.344 119.605 103.539C119.411 103.734 119.179 103.889 118.924 103.994C118.669 104.1 118.396 104.155 118.12 104.155V104.154Z" fill="#84A4A8"/>
<path d="M128.095 105.738L126.371 96.3062C126.194 95.3378 125.683 94.463 124.928 93.8323C124.172 93.2023 123.219 92.8574 122.235 92.8574H93.9111C93.2948 92.8574 92.6864 92.9928 92.1284 93.2541C91.5711 93.5155 91.0772 93.8964 90.6826 94.3694C90.288 94.8425 90.0022 95.3969 89.8452 95.9923C89.689 96.5885 89.6645 97.2113 89.7754 97.8175L91.4991 107.257C91.6762 108.224 92.1867 109.1 92.9427 109.731C93.698 110.361 94.6512 110.706 95.6355 110.706H122.059L135.388 115.458L128.095 105.738Z" stroke="#84A4A8" stroke-linecap="round" stroke-linejoin="round"/>
<path d="M101.606 99.9551C102.022 99.9544 102.428 100.077 102.773 100.309C103.119 100.539 103.388 100.867 103.547 101.251C103.707 101.635 103.748 102.057 103.667 102.465C103.586 102.872 103.386 103.246 103.092 103.54C102.799 103.834 102.424 104.034 102.017 104.115C101.609 104.196 101.187 104.154 100.803 103.995C100.419 103.837 100.091 103.567 99.8604 103.222C99.63 102.876 99.5068 102.47 99.5068 102.055C99.5068 101.497 99.7279 100.964 100.122 100.57C100.516 100.176 101.05 99.9551 101.606 99.9551Z" stroke="#84A4A8" stroke-linecap="round" stroke-linejoin="round"/>
<path d="M109.863 104.154C111.022 104.154 111.963 103.214 111.963 102.055C111.963 100.895 111.022 99.9551 109.863 99.9551C108.704 99.9551 107.764 100.895 107.764 102.055C107.764 103.214 108.704 104.154 109.863 104.154Z" stroke="#84A4A8" stroke-linecap="round" stroke-linejoin="round"/>
<path d="M118.121 99.9551C118.536 99.9544 118.942 100.077 119.288 100.309C119.633 100.539 119.903 100.867 120.062 101.251C120.221 101.635 120.263 102.057 120.181 102.465C120.1 102.872 119.9 103.246 119.607 103.54C119.313 103.834 118.938 104.034 118.531 104.115C118.123 104.196 117.701 104.154 117.317 103.995C116.933 103.837 116.606 103.567 116.375 103.222C116.144 102.876 116.021 102.47 116.021 102.055C116.021 101.497 116.242 100.964 116.636 100.57C117.03 100.176 117.564 99.9551 118.121 99.9551Z" stroke="#84A4A8" stroke-linecap="round" stroke-linejoin="round"/>
<path d="M51.0956 80.5039L45.2593 88.2799L58.5872 83.5279H83.4776C84.0939 83.5279 84.7023 83.3925 85.2603 83.1311C85.8183 82.8698 86.3122 82.4889 86.7068 82.0159C87.1014 81.5428 87.3872 80.9884 87.5434 80.393C87.7004 79.7968 87.7249 79.174 87.614 78.5678L85.8903 69.1287C85.7132 68.1606 85.2027 67.2852 84.4467 66.6549C83.6907 66.0246 82.7382 65.6793 81.7539 65.6792H53.4306C52.8145 65.6793 52.2059 65.8148 51.6479 66.0761C51.09 66.3374 50.5962 66.7181 50.2016 67.1913C49.807 67.6645 49.5212 68.2185 49.3644 68.8144C49.2076 69.4102 49.1836 70.0332 49.2942 70.6393L51.0956 80.5039Z" stroke="#84A4A8" stroke-linecap="round" stroke-linejoin="round"/>
<path d="M60.0898 76.9793C61.2493 76.9793 62.1893 76.039 62.1893 74.8798C62.1893 73.7206 61.2493 72.7803 60.0898 72.7803C58.9302 72.7803 57.9902 73.7206 57.9902 74.8798C57.9902 76.039 58.9302 76.9793 60.0898 76.9793Z" fill="#D1E6EF"/>
<path d="M68.3466 76.9793C69.5062 76.9793 70.4461 76.039 70.4461 74.8798C70.4461 73.7206 69.5062 72.7803 68.3466 72.7803C67.187 72.7803 66.2471 73.7206 66.2471 74.8798C66.2471 76.039 67.187 76.9793 68.3466 76.9793Z" fill="#D1E6EF"/>
<path d="M76.6039 76.9793C77.7631 76.9793 78.7034 76.039 78.7034 74.8798C78.7034 73.7206 77.7631 72.7803 76.6039 72.7803C75.4447 72.7803 74.5044 73.7206 74.5044 74.8798C74.5044 76.039 75.4447 76.9793 76.6039 76.9793Z" fill="#D1E6EF"/>
<path d="M60.0898 76.9793C61.2493 76.9793 62.1893 76.039 62.1893 74.8798C62.1893 73.7206 61.2493 72.7803 60.0898 72.7803C58.9302 72.7803 57.9902 73.7206 57.9902 74.8798C57.9902 76.039 58.9302 76.9793 60.0898 76.9793Z" stroke="#84A4A8" stroke-linecap="round" stroke-linejoin="round"/>
<path d="M68.3466 76.9793C69.5062 76.9793 70.4461 76.039 70.4461 74.8798C70.4461 73.7206 69.5062 72.7803 68.3466 72.7803C67.187 72.7803 66.2471 73.7206 66.2471 74.8798C66.2471 76.039 67.187 76.9793 68.3466 76.9793Z" stroke="#84A4A8" stroke-linecap="round" stroke-linejoin="round"/>
<path d="M76.6039 76.9793C77.7631 76.9793 78.7034 76.039 78.7034 74.8798C78.7034 73.7206 77.7631 72.7803 76.6039 72.7803C75.4447 72.7803 74.5044 73.7206 74.5044 74.8798C74.5044 76.039 75.4447 76.9793 76.6039 76.9793Z" stroke="#84A4A8" stroke-linecap="round" stroke-linejoin="round"/>
<path d="M26.7942 17.5205C26.7942 17.5205 10.6929 30.1054 14.7385 50.755C19.5366 75.2436 45.2593 76.9795 45.2593 76.9795" stroke="#84A4A8" stroke-linecap="round" stroke-linejoin="round"/>
<path fill-rule="evenodd" clip-rule="evenodd" d="M31.0528 17.7638L35.3059 16.9329L37.1491 18.8445L45.2592 7.67871L28.2852 9.64791L31.0766 12.543L31.0528 17.7638Z" fill="#D1E6EF"/>
<path d="M33.3684 14.9234L37.152 18.8445L45.2592 7.67871L28.2852 9.64791L31.0766 12.543" stroke="#84A4A8" stroke-linecap="round" stroke-linejoin="round"/>
<path d="M31.077 12.5459L31.0532 17.7637L33.3687 14.9233" stroke="#84A4A8" stroke-linecap="round" stroke-linejoin="round"/>
<path d="M31.0767 12.5458L38.664 10.4448L33.3655 14.9232" stroke="#84A4A8" stroke-linecap="round" stroke-linejoin="round"/>
<path d="M31.0532 17.764L35.3063 16.9331" stroke="#84A4A8" stroke-linecap="round" stroke-linejoin="round"/>
<path d="M122.556 14.8442L128.395 20.6827" stroke="#84A4A8" stroke-linecap="round" stroke-linejoin="round"/>
<path d="M128.395 14.8442L122.556 20.6827" stroke="#84A4A8" stroke-linecap="round" stroke-linejoin="round"/>
<path d="M8.24756 79.8701L12.4466 84.0699" stroke="#84A4A8" stroke-linecap="round" stroke-linejoin="round"/>
<path d="M12.4466 79.8701L8.24756 84.0699" stroke="#84A4A8" stroke-linecap="round" stroke-linejoin="round"/>
<path d="M131.86 82.2772L134.574 85.8397L140.4 74.8799" stroke="#84A4A8" stroke-linecap="round" stroke-linejoin="round"/>
</svg>
