<svg width="192" height="154" viewBox="0 0 192 154" fill="none" xmlns="http://www.w3.org/2000/svg">
<g clip-path="url(#clip0_1044_13492)">
<rect x="40" y="2" width="63" height="12" rx="6" fill="#F7F8F9"/>
<path d="M97.8584 97.0123C99.9011 96.3541 102.099 96.3541 104.142 97.0123L160.742 115.25C170.211 118.301 170.211 131.699 160.742 134.75L104.142 152.988C102.099 153.646 99.9011 153.646 97.8584 152.988L41.2578 134.75C31.7887 131.699 31.7887 118.301 41.2578 115.25L97.8584 97.0123Z" fill="#DCE5EC" fill-opacity="0.2"/>
<rect width="63" height="12" rx="6" transform="matrix(-1 0 0 1 84 28)" fill="#F7F8F9"/>
<rect width="63" height="12" rx="6" transform="matrix(-1 0 0 1 192 33)" fill="#F7F8F9"/>
<rect x="66" y="8" width="55" height="14" rx="7" fill="#F7F8F9"/>
<rect width="55" height="14" rx="7" transform="matrix(-1 0 0 1 58 34)" fill="#F7F8F9"/>
<rect width="55" height="14" rx="7" transform="matrix(-1 0 0 1 166 39)" fill="#F7F8F9"/>
<path d="M92 88H110V116C110 117.657 108.657 119 107 119H95C93.3431 119 92 117.657 92 116V88Z" fill="#DAE0E4" stroke="#B2C2CF" stroke-width="2"/>
<path d="M58 36H134C142.284 36 149 42.7157 149 51V85C149 86.6569 147.657 88 146 88H46C44.3431 88 43 86.6569 43 85V51C43 42.7157 49.7157 36 58 36Z" fill="#FAFAFA" stroke="#B2C2CF" stroke-width="2"/>
<path d="M58 36H65C73.2843 36 80 42.7157 80 51V88H46C44.3431 88 43 86.6569 43 85V51C43 42.7157 49.7157 36 58 36Z" fill="#DAE0E4" stroke="#B2C2CF" stroke-width="2"/>
<path d="M99 72C99 70.8954 99.8954 70 101 70H134C135.105 70 136 70.8954 136 72V74C136 75.1046 135.105 76 134 76H99V72Z" fill="#B2C2CF"/>
<path d="M99 76H111V80C111 81.1046 110.105 82 109 82H101C99.8954 82 99 81.1046 99 80V76Z" fill="#B2C2CF"/>
<path d="M166.901 2.36376C167.371 -0.594607 171.629 -0.594609 172.099 2.36376V2.36376C172.407 4.30345 174.654 5.23435 176.244 4.08062V4.08062C178.668 2.32098 181.679 5.33202 179.919 7.75615V7.75615C178.766 9.34556 179.697 11.5929 181.636 11.901V11.901C184.595 12.3709 184.595 16.6291 181.636 17.099V17.099C179.697 17.4071 178.766 19.6544 179.919 21.2439V21.2439C181.679 23.668 178.668 26.679 176.244 24.9194V24.9194C174.654 23.7656 172.407 24.6965 172.099 26.6362V26.6362C171.629 29.5946 167.371 29.5946 166.901 26.6362V26.6362C166.593 24.6965 164.346 23.7656 162.756 24.9194V24.9194C160.332 26.679 157.321 23.668 159.081 21.2439V21.2439C160.234 19.6544 159.303 17.4071 157.364 17.099V17.099C154.405 16.6291 154.405 12.3709 157.364 11.901V11.901C159.303 11.5929 160.234 9.34556 159.081 7.75615V7.75615C157.321 5.33202 160.332 2.32098 162.756 4.08062V4.08062C164.346 5.23435 166.593 4.30346 166.901 2.36376V2.36376Z" fill="#E9F1F7"/>
</g>
<defs>
<clipPath id="clip0_1044_13492">
<rect width="192" height="154" fill="white"/>
</clipPath>
</defs>
</svg>
