<svg width="300" height="300" viewBox="0 0 300 300" fill="none" xmlns="http://www.w3.org/2000/svg">
<path d="M300 150C300 232.843 232.843 300 150 300C67.1573 300 0 232.843 0 150C0 67.1573 67.1573 0 150 0C232.843 0 300 67.1573 300 150Z" fill="#ECFAFF"/>
<path d="M260.98 228.548C254.988 218.426 244.055 205.13 232.713 202.096L229.537 209.673C229.329 210.14 228.977 210.527 228.532 210.776C228.085 211.026 227.571 211.125 227.064 211.057L218.376 209.832C218.025 209.782 217.69 209.654 217.395 209.457C217.1 209.26 216.855 209 216.673 208.695C216.493 208.391 216.383 208.049 216.352 207.696C216.32 207.344 216.369 206.988 216.493 206.656L218.376 201.075C212.335 202.608 203.289 198.102 197.89 194.95L207.328 172.837C205.517 170.739 203.264 169.068 200.73 167.946C198.196 166.824 195.444 166.278 192.674 166.349L181.626 190.646C180.245 193.691 180.01 197.134 180.965 200.338C181.919 203.543 183.999 206.296 186.821 208.091C193.453 212.419 200.77 215.595 208.462 217.483C208.322 223.913 209.722 230.283 212.545 236.062C219.496 237.943 226.817 237.967 233.779 236.13C233.354 232.026 235.184 226.764 236.661 222.905L245.327 232.092L227.297 247.677C227.894 253.74 232.72 258.901 238.323 260.653L258.382 243.752C260.541 241.933 261.987 239.408 262.462 236.625C262.937 233.842 262.413 230.981 260.98 228.548Z" fill="#71CEF8"/>
<path d="M63.9998 145.038C62.7786 145.739 61.4652 146.266 60.0978 146.603C47.5978 149.757 40.8601 166.113 37.6447 177.933C36.8094 180.998 37.1814 184.266 38.6838 187.064C40.1863 189.863 42.7049 191.98 45.7209 192.977C54.5688 195.823 63.7731 197.413 73.0635 197.696C75.6519 193.358 76.434 188.176 75.2413 183.267C68.1954 182.657 61.2182 181.419 54.3929 179.566C55.6863 175.96 57.3078 172.481 59.2369 169.171C60.9348 174.889 60.2853 172.686 62.1025 178.908C69.5889 180.133 78.4138 180.678 86.7395 178.568C88.0764 173.594 88.8749 168.49 89.1216 163.345C93.1747 166.558 97.7161 169.101 102.573 170.877C104.443 171.608 106.44 171.956 108.447 171.901C110.454 171.847 112.429 171.391 114.256 170.56C122.451 166.827 127.573 164.026 137.532 156.562C137.6 150.641 134.969 146.512 129.57 144.221C123.217 148.963 115.686 153.817 108.766 156.562C103.971 152.977 98.9049 149.768 93.6134 146.966C87.7843 144.126 79.5935 143.2 78.3911 143.042C74.6659 147.411 71.1376 147.133 63.9998 145.038Z" fill="#71CEF8"/>
<path d="M70.6696 185.034C70.4184 185.034 70.1726 185.108 69.9638 185.248C69.7549 185.388 69.592 185.586 69.4959 185.819C69.3998 186.05 69.3746 186.306 69.4235 186.553C69.4726 186.799 69.5936 187.026 69.7712 187.202C69.9489 187.38 70.1753 187.501 70.4217 187.551C70.6682 187.6 70.9236 187.575 71.1558 187.478C71.3879 187.382 71.5863 187.219 71.7259 187.01C71.8655 186.801 71.94 186.555 71.94 186.305C71.9347 185.969 71.7992 185.649 71.5621 185.411C71.325 185.175 71.0049 185.039 70.6696 185.034Z" fill="#71CEF8"/>
<path d="M52.2257 191.977C52.9273 191.977 53.4962 191.409 53.4962 190.707C53.4962 190.005 52.9273 189.437 52.2257 189.437C51.524 189.437 50.9553 190.005 50.9553 190.707C50.9553 191.409 51.524 191.977 52.2257 191.977Z" fill="#71CEF8"/>
<path d="M43.2421 174.985C43.9437 174.985 44.5125 174.416 44.5125 173.715C44.5125 173.013 43.9437 172.444 43.2421 172.444C42.5405 172.444 41.9717 173.013 41.9717 173.715C41.9717 174.416 42.5405 174.985 43.2421 174.985Z" fill="#71CEF8"/>
<path d="M58.5553 164.209C59.2569 164.209 59.8257 163.64 59.8257 162.938C59.8257 162.237 59.2569 161.668 58.5553 161.668C57.8537 161.668 57.2849 162.237 57.2849 162.938C57.2849 163.64 57.8537 164.209 58.5553 164.209Z" fill="#71CEF8"/>
<path d="M64.4084 146.899C64.157 146.899 63.9114 146.974 63.7026 147.113C63.4937 147.253 63.3308 147.452 63.2347 147.684C63.1384 147.916 63.1134 148.171 63.1623 148.418C63.2114 148.664 63.3323 148.89 63.51 149.068C63.6877 149.246 63.9141 149.367 64.1605 149.416C64.4069 149.465 64.6623 149.44 64.8946 149.344C65.1267 149.247 65.325 149.085 65.4647 148.876C65.6043 148.667 65.6788 148.421 65.6788 148.17C65.6735 147.835 65.538 147.514 65.3009 147.277C65.0638 147.04 64.7437 146.905 64.4084 146.899Z" fill="#71CEF8"/>
<path d="M77.1347 159.649C76.8834 159.649 76.6378 159.723 76.4288 159.863C76.22 160.003 76.0571 160.201 75.961 160.433C75.8648 160.665 75.8397 160.921 75.8886 161.167C75.9377 161.414 76.0587 161.64 76.2363 161.818C76.414 161.995 76.6404 162.116 76.8868 162.165C77.1333 162.214 77.3887 162.189 77.6209 162.093C77.853 161.997 78.0513 161.834 78.191 161.625C78.3306 161.416 78.4051 161.171 78.4051 160.919C78.3999 160.584 78.2643 160.264 78.0272 160.027C77.7901 159.79 77.47 159.654 77.1347 159.649Z" fill="#71CEF8"/>
<path d="M66.8127 171.174C66.5613 171.174 66.3157 171.249 66.1069 171.388C65.898 171.528 65.7351 171.726 65.639 171.959C65.5427 172.191 65.5177 172.446 65.5666 172.693C65.6157 172.939 65.7366 173.165 65.9143 173.343C66.092 173.521 66.3184 173.642 66.5648 173.691C66.8112 173.74 67.0666 173.715 67.2989 173.618C67.531 173.522 67.7294 173.359 67.869 173.151C68.0086 172.942 68.0831 172.696 68.0831 172.445C68.0833 172.278 68.0507 172.112 67.987 171.958C67.9233 171.804 67.8297 171.664 67.7116 171.546C67.5937 171.428 67.4535 171.334 67.2992 171.27C67.145 171.207 66.9796 171.174 66.8127 171.174Z" fill="#71CEF8"/>
<path d="M95.7138 164.209C96.4154 164.209 96.9842 163.64 96.9842 162.938C96.9842 162.237 96.4154 161.668 95.7138 161.668C95.0121 161.668 94.4434 162.237 94.4434 162.938C94.4434 163.64 95.0121 164.209 95.7138 164.209Z" fill="#71CEF8"/>
<path d="M107.941 158.149C107.69 158.149 107.444 158.224 107.236 158.363C107.027 158.503 106.864 158.702 106.768 158.934C106.671 159.166 106.646 159.421 106.695 159.668C106.744 159.914 106.865 160.14 107.043 160.318C107.221 160.496 107.447 160.617 107.693 160.666C107.94 160.715 108.195 160.69 108.428 160.594C108.66 160.497 108.858 160.335 108.998 160.126C109.137 159.917 109.212 159.671 109.212 159.42C109.206 159.085 109.071 158.764 108.834 158.527C108.597 158.29 108.277 158.155 107.941 158.149Z" fill="#71CEF8"/>
<path d="M123.345 163.461C124.047 163.461 124.616 162.892 124.616 162.191C124.616 161.489 124.047 160.92 123.345 160.92C122.644 160.92 122.075 161.489 122.075 162.191C122.075 162.892 122.644 163.461 123.345 163.461Z" fill="#71CEF8"/>
<path d="M130.083 149.782C130.785 149.782 131.354 149.213 131.354 148.512C131.354 147.81 130.785 147.241 130.083 147.241C129.381 147.241 128.813 147.81 128.813 148.512C128.813 149.213 129.381 149.782 130.083 149.782Z" fill="#71CEF8"/>
<path d="M83.351 173.691C83.0997 173.691 82.8541 173.766 82.6451 173.905C82.4363 174.045 82.2734 174.244 82.1773 174.476C82.0811 174.708 82.056 174.963 82.1049 175.21C82.154 175.456 82.275 175.682 82.4526 175.86C82.6303 176.038 82.8567 176.159 83.1031 176.208C83.3496 176.257 83.605 176.232 83.8371 176.136C84.0693 176.039 84.2676 175.877 84.4072 175.668C84.5469 175.459 84.6214 175.213 84.6214 174.962C84.6162 174.627 84.4807 174.306 84.2435 174.069C84.0064 173.832 83.6863 173.697 83.351 173.691Z" fill="#71CEF8"/>
<path d="M85.869 148.987C86.5706 148.987 87.1395 148.418 87.1395 147.716C87.1395 147.015 86.5706 146.446 85.869 146.446C85.1673 146.446 84.5986 147.015 84.5986 147.716C84.5986 148.418 85.1673 148.987 85.869 148.987Z" fill="#71CEF8"/>
<path fill-rule="evenodd" clip-rule="evenodd" d="M136.685 91.5244L138.862 85.7849C137.458 83.8178 136.697 81.464 136.685 79.0471C136.685 72.1506 142.81 66.5698 150.364 66.5698C157.919 66.5698 164.021 72.1506 164.021 79.0471C164.021 85.9437 157.896 91.5244 150.342 91.5244C147.523 91.5396 144.762 90.7272 142.401 89.1878L136.685 91.5244ZM145.624 79.7904C145.771 79.5703 145.85 79.3117 145.85 79.0471C145.849 78.6917 145.707 78.3511 145.456 78.1002C145.204 77.8492 144.863 77.7083 144.508 77.7087C144.243 77.7094 143.985 77.7885 143.765 77.936C143.545 78.0834 143.374 78.2928 143.274 78.5374C143.173 78.7821 143.147 79.0511 143.199 79.3104C143.251 79.5699 143.379 79.8081 143.566 79.9948C143.753 80.1817 143.992 80.3088 144.251 80.3602C144.511 80.4115 144.78 80.3848 145.024 80.2834C145.269 80.182 145.477 80.0104 145.624 79.7904ZM151.68 79.0471C151.68 79.3118 151.601 79.5707 151.454 79.7907C151.307 80.0109 151.099 80.1824 150.854 80.2838C150.609 80.385 150.34 80.4115 150.08 80.3599C149.821 80.3082 149.582 80.1808 149.395 79.9936C149.208 79.8064 149.08 79.5679 149.029 79.3083C148.977 79.0487 149.004 78.7796 149.105 78.5349C149.206 78.2904 149.378 78.0813 149.598 77.9342C149.818 77.7872 150.076 77.7087 150.342 77.7087C150.696 77.7092 151.036 77.8505 151.287 78.1014C151.538 78.3522 151.679 78.6924 151.68 79.0471ZM157.307 79.7907C157.454 79.5707 157.533 79.3118 157.533 79.0471C157.532 78.6924 157.391 78.3522 157.14 78.1014C156.889 77.8505 156.549 77.7092 156.195 77.7087C155.929 77.7087 155.672 77.7872 155.451 77.9342C155.231 78.0813 155.059 78.2904 154.958 78.5349C154.856 78.7796 154.83 79.0487 154.882 79.3083C154.934 79.5679 155.061 79.8064 155.248 79.9936C155.435 80.1808 155.674 80.3082 155.933 80.3599C156.193 80.4115 156.462 80.385 156.707 80.2838C156.952 80.1824 157.16 80.0109 157.307 79.7907Z" fill="#71CEF8"/>
<path d="M226.112 145.039C226.112 145.515 225.971 145.98 225.707 146.375C225.442 146.77 225.067 147.079 224.627 147.261C224.188 147.443 223.704 147.49 223.238 147.398C222.771 147.305 222.343 147.076 222.007 146.739C221.67 146.403 221.441 145.975 221.349 145.508C221.256 145.042 221.303 144.558 221.485 144.119C221.667 143.679 221.976 143.304 222.371 143.04C222.766 142.775 223.232 142.634 223.707 142.634C224.344 142.635 224.956 142.888 225.407 143.339C225.857 143.79 226.112 144.401 226.112 145.039Z" fill="#71CEF8"/>
<path d="M134.983 279.045L113.953 278.506C113.769 278.489 113.583 278.516 113.411 278.586C113.239 278.655 113.086 278.765 112.964 278.905C112.842 279.044 112.755 279.21 112.711 279.39C112.666 279.57 112.664 279.758 112.706 279.939L113.661 283.841C117.986 283.941 122.313 283.759 126.614 283.296C122.673 284.909 118.575 286.109 114.387 286.878L116.338 292.55C116.38 292.729 116.465 292.896 116.585 293.036C116.705 293.176 116.858 293.285 117.029 293.354C117.2 293.422 117.385 293.45 117.569 293.432C117.753 293.414 117.93 293.353 118.085 293.253C124.446 290.105 130.308 286.039 135.485 281.184C135.691 281.056 135.851 280.866 135.944 280.642C136.036 280.419 136.056 280.171 136.001 279.935C135.946 279.699 135.818 279.486 135.635 279.326C135.453 279.167 135.225 279.068 134.983 279.045Z" fill="#71CEF8"/>
<path d="M176.929 107.495H118.672C116.86 107.494 115.066 107.851 113.392 108.544C111.718 109.237 110.197 110.253 108.916 111.534C107.635 112.815 106.62 114.336 105.927 116.01C105.234 117.684 104.878 119.478 104.879 121.289V130.658H111.001V122.627C111.008 121.358 111.269 120.104 111.769 118.939C112.269 117.773 112.997 116.72 113.911 115.84C114.825 114.961 115.906 114.274 117.09 113.819C118.274 113.365 119.537 113.152 120.804 113.194H175.205C176.472 113.154 177.734 113.368 178.917 113.823C180.101 114.278 181.18 114.966 182.093 115.845C183.007 116.724 183.735 117.777 184.235 118.941C184.735 120.106 184.997 121.359 185.006 122.627V183.198L190.722 170.63V121.289C190.724 119.478 190.367 117.684 189.674 116.01C188.982 114.336 187.966 112.815 186.684 111.534C185.403 110.253 183.882 109.237 182.209 108.544C180.535 107.851 178.741 107.495 176.929 107.495Z" fill="#17334F"/>
<path d="M184.984 245.22V252.981C184.983 255.58 183.951 258.072 182.113 259.91C180.275 261.748 177.783 262.78 175.184 262.781H120.782C118.183 262.78 115.69 261.748 113.852 259.91C112.015 258.072 110.982 255.58 110.981 252.981V191.848H104.856V254.687C104.856 256.498 105.212 258.292 105.906 259.965C106.599 261.639 107.615 263.159 108.896 264.439C110.177 265.72 111.697 266.735 113.371 267.427C115.044 268.12 116.838 268.477 118.649 268.475H176.929C178.741 268.477 180.535 268.12 182.209 267.427C183.882 266.735 185.403 265.719 186.684 264.437C187.966 263.156 188.982 261.635 189.674 259.962C190.367 258.288 190.724 256.494 190.722 254.682V245.222L184.984 245.22Z" fill="#17334F"/>
<path d="M225.635 193.225L223.48 195.743C223.64 194.99 223.715 194.222 223.707 193.452C224.355 193.428 225 193.352 225.635 193.225Z" fill="#17334F"/>
<path d="M75.2294 141.364C74.5545 140.627 74.1819 139.664 74.1858 138.665C74.6813 138.986 75.1983 139.273 75.7332 139.523C75.3777 140.069 75.2016 140.713 75.2294 141.364Z" fill="#17334F"/>
<path d="M60.9599 166.321L60.5694 173.694L59.231 169.111C59.7336 168.249 60.302 167.345 60.9599 166.321Z" fill="#17334F"/>
<path d="M89.1131 163.349C89.2385 160.686 89.1702 158.017 88.9089 155.363L92.0133 165.481C91.0868 164.846 90.1113 164.143 89.1131 163.349Z" fill="#17334F"/>
<path d="M80.6284 121.018C80.5915 120.635 80.4277 120.275 80.163 119.996C79.8981 119.716 79.5477 119.533 79.167 119.476C78.7864 119.419 78.3976 119.49 78.0622 119.679C77.727 119.868 77.4644 120.164 77.3162 120.519H77.0894C76.9731 120.15 76.7369 119.831 76.4183 119.612C76.0999 119.393 75.7172 119.286 75.3314 119.31C74.9455 119.333 74.5785 119.485 74.2887 119.741C73.9989 119.996 73.8029 120.342 73.7318 120.722H73.6411C73.5295 120.289 73.255 119.917 72.875 119.682C72.4952 119.448 72.0392 119.369 71.6026 119.463C71.1661 119.556 70.7827 119.815 70.5325 120.185C70.2825 120.555 70.1852 121.008 70.2609 121.448C70.1338 121.056 69.8716 120.723 69.5213 120.508C69.171 120.292 68.7554 120.208 68.3488 120.271C67.9423 120.333 67.5713 120.539 67.3023 120.85C67.0333 121.161 66.8839 121.558 66.8807 121.969C66.8794 122.138 66.9023 122.306 66.9487 122.469C67.8422 125.159 68.5993 127.892 69.2173 130.658C69.966 134.288 70.3516 138.19 69.2173 140.21C71.4632 136.921 72.0304 133.609 71.6674 133.246C68.1738 129.799 71.2591 126.576 72.8698 129.049C73.6411 130.228 74.0948 130.228 74.3444 129.549C75.3879 126.009 80.3562 121.11 82.1054 128.572L80.6284 121.018Z" fill="#17334F"/>
<path d="M224.675 135.956C224.667 136.17 224.576 136.373 224.422 136.521C224.268 136.67 224.061 136.753 223.848 136.753C223.633 136.753 223.426 136.67 223.272 136.521C223.118 136.373 223.027 136.17 223.019 135.956C223.027 135.742 223.118 135.539 223.272 135.39C223.426 135.242 223.633 135.159 223.848 135.159C224.061 135.159 224.268 135.242 224.422 135.39C224.576 135.539 224.667 135.742 224.675 135.956Z" fill="#17334F"/>
<path d="M237.568 187.939C237.958 186.665 238.188 185.345 238.249 184.014C238.521 175.775 230.15 173.873 224.297 178.706C227.495 176.664 229.333 181.655 229.015 184.717C229.015 185.257 229.199 185.761 230.581 184.837C233.008 183.158 234.619 187.31 230.082 189.17C229.219 189.51 228.291 193.775 229.356 199.038C229.764 201.124 230.739 201.426 232.713 202.055C238.141 203.639 243.564 207.462 247.482 211.175C257.849 190.888 237.545 187.939 237.568 187.939Z" fill="#17334F"/>
<path d="M218.675 130.956C218.667 131.17 218.576 131.373 218.422 131.521C218.268 131.67 218.061 131.753 217.848 131.753C217.633 131.753 217.426 131.67 217.272 131.521C217.118 131.373 217.027 131.17 217.019 130.956C217.027 130.742 217.118 130.539 217.272 130.39C217.426 130.242 217.633 130.159 217.848 130.159C218.061 130.159 218.268 130.242 218.422 130.39C218.576 130.539 218.667 130.742 218.675 130.956Z" stroke="#17334F" stroke-width="1.2"/>
<path d="M212.545 236.055L208.802 245.22" stroke="#17334F" stroke-width="1.2" stroke-linecap="round" stroke-linejoin="round"/>
<path d="M111.001 130.658V122.605C111.007 121.337 111.268 120.082 111.767 118.916C112.267 117.749 112.995 116.695 113.909 115.815C114.823 114.935 115.904 114.247 117.088 113.792C118.273 113.338 119.536 113.125 120.804 113.167H175.205C176.472 113.127 177.735 113.341 178.919 113.797C180.102 114.252 181.182 114.94 182.096 115.82C183.009 116.699 183.736 117.753 184.237 118.918C184.737 120.084 184.998 121.337 185.006 122.605V183.199" stroke="#17334F" stroke-width="1.2" stroke-linecap="round" stroke-linejoin="round"/>
<path d="M190.715 170.606V121.265C190.714 119.454 190.357 117.66 189.663 115.987C188.968 114.313 187.951 112.793 186.67 111.514C185.388 110.234 183.865 109.219 182.191 108.527C180.517 107.836 178.723 107.481 176.911 107.483H118.649C116.837 107.483 115.042 107.841 113.368 108.535C111.694 109.229 110.174 110.246 108.893 111.528C107.612 112.81 106.596 114.332 105.903 116.006C105.211 117.681 104.855 119.476 104.856 121.288V130.656" stroke="#17334F" stroke-width="1.2" stroke-linecap="round" stroke-linejoin="round"/>
<path fill-rule="evenodd" clip-rule="evenodd" d="M158.904 175.448C158.829 175.381 158.384 175 157.785 175C157.343 175 151.917 175.002 150.545 175.002L150.232 175.002C146.518 175.002 143.176 177.181 141.717 180.553C141.142 181.882 140.887 183.338 140.976 184.775C139.867 185.694 138.98 186.877 138.405 188.206C137.429 190.462 137.389 192.964 138.294 195.249C139.199 197.535 140.94 199.332 143.197 200.308C144.361 200.812 145.589 201.067 146.848 201.067C150.522 201.067 153.84 198.888 155.299 195.517C155.874 194.187 156.129 192.731 156.04 191.294C157.148 190.375 158.035 189.193 158.611 187.863C159.111 186.708 159.366 185.489 159.37 184.24L159.37 183.768L159.37 183.743C159.372 182.129 159.376 177.115 159.376 176.605C159.376 175.893 158.983 175.517 158.904 175.448ZM154.306 192.427C154.244 193.252 154.045 194.058 153.711 194.83C152.526 197.568 149.832 199.337 146.848 199.337C145.827 199.337 144.829 199.13 143.884 198.721C142.051 197.928 140.638 196.469 139.903 194.613C139.168 192.756 139.2 190.725 139.993 188.893C140.326 188.122 140.777 187.425 141.337 186.814C141.684 187.984 142.264 189.086 143.032 190.029C143.956 191.162 145.158 192.071 146.508 192.655C147.672 193.159 148.9 193.414 150.158 193.414C151.598 193.414 153.02 193.074 154.306 192.427ZM150.159 191.684C149.138 191.684 148.141 191.477 147.195 191.068C144.896 190.072 143.271 188.028 142.815 185.571C144.025 184.795 145.418 184.385 146.856 184.385C147.878 184.385 148.875 184.593 149.82 185.002C152.12 185.997 153.745 188.042 154.201 190.498C152.99 191.275 151.598 191.684 150.159 191.684ZM142.709 183.643C142.771 182.817 142.971 182.011 143.304 181.24C144.489 178.502 147.183 176.727 150.168 176.727L150.222 176.726C150.261 176.726 150.302 176.726 150.338 176.727H150.608H151.317C151.317 176.727 152.15 176.727 152.633 176.727C157.463 176.72 157.64 176.721 157.64 176.721V178.307V181.222C157.64 182.143 157.64 183 157.631 183.861C157.685 185.003 157.481 186.119 157.023 187.176C156.689 187.948 156.238 188.645 155.678 189.255C155.332 188.086 154.752 186.984 153.983 186.041C153.06 184.907 151.858 183.999 150.507 183.414C149.343 182.911 148.115 182.655 146.857 182.655C145.418 182.655 143.995 182.995 142.709 183.643ZM146.287 189.196C146.907 189.196 147.409 188.694 147.409 188.074C147.409 187.454 146.907 186.952 146.287 186.952C145.667 186.952 145.165 187.454 145.165 188.074C145.165 188.694 145.667 189.196 146.287 189.196ZM151.685 188.741C151.685 189.71 150.9 190.495 149.931 190.495C148.962 190.495 148.176 189.71 148.176 188.741C148.176 187.772 148.962 186.986 149.931 186.986C150.9 186.986 151.685 187.772 151.685 188.741Z" fill="#17334F"/>
<path d="M220.327 184.036H202.541" stroke="#17334F" stroke-width="1.2" stroke-linecap="round" stroke-linejoin="round"/>
<path d="M238.226 184.026H249.637C250.325 184.025 251.005 184.16 251.641 184.422C252.277 184.684 252.854 185.069 253.341 185.555C253.828 186.04 254.214 186.617 254.478 187.252C254.741 187.887 254.878 188.568 254.878 189.256V219.315" stroke="#17334F" stroke-width="1.2" stroke-linecap="round" stroke-linejoin="round"/>
<path d="M184.626 184.037H181.104L166 179.387L170.809 194.133V239.982C170.81 241.372 171.362 242.705 172.345 243.687C173.327 244.67 174.66 245.221 176.05 245.223H230.082" stroke="#17334F" stroke-width="1.2" stroke-linecap="round" stroke-linejoin="round"/>
<path d="M125.319 147.284V135.897C125.318 134.508 124.766 133.175 123.783 132.192C122.801 131.21 121.468 130.657 120.078 130.657H82.4436" stroke="#17334F" stroke-width="1.2" stroke-linecap="round" stroke-linejoin="round"/>
<path d="M185.006 245.22V252.981C185.005 255.58 183.973 258.072 182.134 259.91C180.297 261.748 177.805 262.78 175.206 262.781H120.782C118.183 262.78 115.69 261.748 113.853 259.91C112.015 258.072 110.982 255.58 110.981 252.981V191.848" stroke="#17334F" stroke-width="1.2" stroke-linecap="round" stroke-linejoin="round"/>
<path d="M104.856 191.841V254.68C104.855 256.491 105.211 258.286 105.904 259.96C106.596 261.634 107.612 263.155 108.893 264.436C110.174 265.717 111.695 266.733 113.369 267.427C115.043 268.119 116.837 268.477 118.649 268.475H176.929C178.741 268.477 180.535 268.119 182.209 267.427C183.882 266.734 185.403 265.718 186.684 264.437C187.966 263.156 188.982 261.635 189.674 259.962C190.367 258.288 190.724 256.494 190.722 254.682V245.222" stroke="#17334F" stroke-width="1.2" stroke-linecap="round" stroke-linejoin="round"/>
<path d="M69.1721 130.657H46.4635C45.0744 130.658 43.7428 131.211 42.7609 132.194C41.779 133.176 41.2272 134.508 41.2266 135.897V167.299" stroke="#17334F" stroke-width="1.2" stroke-linecap="round" stroke-linejoin="round"/>
<path d="M98.3237 191.84H115.019L130.106 196.468L125.319 181.745V164.912" stroke="#17334F" stroke-width="1.2" stroke-linecap="round" stroke-linejoin="round"/>
<path d="M150.795 268.475C146.163 273.579 140.544 277.691 134.277 280.56C128.01 283.431 121.226 284.999 114.335 285.173C107.444 285.346 100.59 284.119 94.1871 281.567C87.7842 279.015 81.9655 275.191 77.0831 270.325C72.2006 265.46 68.3559 259.653 65.7816 253.259C63.2073 246.865 61.9569 240.016 62.1059 233.124C62.255 226.233 63.8004 219.444 66.6488 213.167C69.4972 206.89 73.5894 201.256 78.6777 196.606" stroke="#17334F" stroke-width="1.2" stroke-linecap="round" stroke-linejoin="round"/>
<path d="M134.983 279.045L113.953 278.506C113.769 278.489 113.583 278.516 113.411 278.586C113.239 278.655 113.086 278.765 112.964 278.905C112.842 279.044 112.755 279.21 112.711 279.39C112.666 279.57 112.664 279.758 112.706 279.939L113.661 283.841C117.986 283.941 122.313 283.759 126.614 283.296C122.673 284.909 118.575 286.109 114.387 286.878L116.338 292.55C116.38 292.729 116.465 292.896 116.585 293.036C116.705 293.176 116.858 293.285 117.029 293.354C117.2 293.422 117.385 293.45 117.569 293.432C117.753 293.414 117.93 293.353 118.085 293.253C124.446 290.105 130.308 286.039 135.485 281.184C135.691 281.056 135.851 280.866 135.944 280.642C136.036 280.419 136.056 280.171 136.001 279.935C135.946 279.699 135.818 279.486 135.635 279.326C135.453 279.167 135.225 279.068 134.983 279.045Z" stroke="#17334F" stroke-width="1.2" stroke-linecap="round" stroke-linejoin="round"/>
<path d="M223.707 193.429C224.354 193.417 225 193.348 225.635 193.225L223.48 195.721" stroke="#17334F" stroke-width="1.2" stroke-linecap="round" stroke-linejoin="round"/>
<path d="M208.462 217.431C200.749 215.631 193.42 212.465 186.821 208.085C183.999 206.29 181.92 203.537 180.965 200.332C180.011 197.127 180.245 193.685 181.626 190.639L192.672 166.321C198.42 166.709 203.072 167.832 207.328 172.808L197.895 194.949C202.137 197.422 207.378 200.033 212.233 200.984C218.89 202.286 223.712 200.205 223.712 193.429C220.694 193.52 215.703 192.409 220.921 182.903C226.139 173.398 229.61 180.754 229.179 184.763C229.202 185.467 229.565 185.648 230.744 184.831C233.172 183.151 234.794 187.339 230.245 189.164C229.386 189.511 228.454 193.771 229.519 199.033C230.332 203.026 233.129 200.505 241.361 206.197C250.506 212.525 257.114 221.685 261.144 228.496C262.585 230.928 263.116 233.794 262.642 236.582C262.168 239.369 260.721 241.899 258.557 243.718L238.344 260.642C235.459 259.754 232.886 258.062 230.931 255.763C228.974 253.465 227.713 250.655 227.296 247.666L245.325 232.08L234.708 220.807" stroke="#17334F" stroke-width="1.2" stroke-linecap="round" stroke-linejoin="round"/>
<path d="M75.2294 141.364C74.5545 140.627 74.1819 139.664 74.1858 138.665C74.6813 138.986 75.1983 139.273 75.7332 139.523" stroke="#17334F" stroke-width="1.2" stroke-linecap="round" stroke-linejoin="round"/>
<path d="M74.3217 129.545C75.3653 126.006 80.3562 121.105 82.0827 128.569L82.4684 130.974C83.6708 141.959 78.453 140.797 75.7307 139.526C75.7307 139.526 73.8274 142.341 77.3127 142.925C77.8715 143.018 78.2512 143.026 78.3873 143.044C75.665 147.037 70.6263 147.286 64.0044 145.04C70.1619 141.551 72.3779 134.016 71.6269 133.266C68.1643 129.813 71.2162 126.598 72.8292 129.069C73.5994 130.25 74.0089 130.226 74.3038 129.591L74.3217 129.545Z" stroke="#17334F" stroke-width="1.2" stroke-linecap="round" stroke-linejoin="round"/>
<path d="M59.2251 169.172C59.7469 168.287 60.3248 167.339 60.96 166.318L60.5695 173.714" stroke="#17334F" stroke-width="1.2" stroke-linecap="round" stroke-linejoin="round"/>
<path d="M89.1131 163.347C89.2385 160.684 89.1702 158.015 88.9089 155.361L92.0133 165.479" stroke="#17334F" stroke-width="1.2" stroke-linecap="round" stroke-linejoin="round"/>
<path d="M63.9998 145.038C62.7786 145.739 61.4652 146.266 60.0978 146.603C47.5978 149.757 40.8601 166.113 37.6447 177.933C36.8094 180.998 37.1814 184.266 38.6838 187.064C40.1863 189.863 42.7049 191.98 45.7209 192.977C54.5688 195.823 63.7731 197.413 73.0635 197.696C75.6519 193.358 76.434 188.176 75.2413 183.267C68.1954 182.657 61.2182 181.419 54.3929 179.566C55.6864 175.96 57.3078 172.481 59.2369 169.171C60.9348 174.889 60.2853 172.686 62.1025 178.908C69.5889 180.133 78.4138 180.678 86.7395 178.568C88.0764 173.594 88.8749 168.49 89.1216 163.345C93.1747 166.558 97.7161 169.101 102.573 170.877C104.443 171.608 106.44 171.956 108.447 171.901C110.454 171.847 112.429 171.391 114.256 170.56C122.451 166.827 127.573 164.026 137.532 156.562C137.6 150.641 134.969 146.512 129.57 144.221C123.217 148.963 115.686 153.817 108.766 156.562C103.971 152.977 98.9049 149.768 93.6134 146.966C87.7843 144.126 79.5935 143.2 78.3911 143.042" stroke="#17334F" stroke-width="1.2" stroke-linecap="round" stroke-linejoin="round"/>
<path d="M199.843 155.733C199.938 155.461 200.098 155.216 200.307 155.017C200.516 154.818 200.769 154.672 201.045 154.59C202.246 154.272 204.016 156.791 203.448 160.035C203.156 161.796 201.918 162.591 201.213 159.936" stroke="#17334F" stroke-width="1.2" stroke-linecap="round" stroke-linejoin="round"/>
<path d="M202.292 155.135C202.492 154.936 202.743 154.795 203.017 154.726C204.222 154.417 206.057 156.246 205.626 159.536C205.402 161.244 204.375 161.661 203.518 159.549" stroke="#17334F" stroke-width="1.2" stroke-linecap="round" stroke-linejoin="round"/>
<path d="M193.899 166.389C196.598 161.534 196.392 160.173 197.097 157.859C197.436 156.748 197.912 155.767 198.888 155.523C200.082 155.222 201.602 157.246 201.157 160.418C200.973 161.731 199.207 161.462 198.888 158.127" stroke="#17334F" stroke-width="1.2" stroke-linecap="round" stroke-linejoin="round"/>
<path d="M206.511 171.922C207.373 170.039 213.387 159.055 212.704 158.741C211.958 158.397 207.895 162.008 207.895 162.008C207.895 162.008 203.131 162.666 203.448 165.71" stroke="#17334F" stroke-width="1.2" stroke-linecap="round" stroke-linejoin="round"/>
<path d="M207.872 162.008C209.868 154.09 208.35 147.441 207.94 148.623C207.166 150.868 206.216 156.862 205.626 159.512" stroke="#17334F" stroke-width="1.2" stroke-linecap="round" stroke-linejoin="round"/>
<path d="M197.801 159.513C198.253 159.391 198.734 159.42 199.169 159.595" stroke="#17334F" stroke-width="1.2" stroke-linecap="round" stroke-linejoin="round"/>
<path d="M132.329 145.652C136.685 144.54 158.735 147.467 157.783 149.622C152.315 150.458 144.109 149.632 139.384 152.344C139.067 152.527 137.951 153.3 137.342 153.728" stroke="#17334F" stroke-width="1.2" stroke-linecap="round" stroke-linejoin="round"/>
<path d="M132.941 145.538C141.426 143.541 150.818 132.425 142.923 143.677C142.175 144.925 141.812 145.628 142.878 145.878" stroke="#17334F" stroke-width="1.2" stroke-linecap="round" stroke-linejoin="round"/>
<path d="M139.702 152.164C144.012 150.462 166.63 156.157 150.931 150.122" stroke="#17334F" stroke-width="1.2" stroke-linecap="round" stroke-linejoin="round"/>
<path d="M139.724 152.141C141.515 151.186 158.667 158.111 149.593 152.39" stroke="#17334F" stroke-width="1.2" stroke-linecap="round" stroke-linejoin="round"/>
<path d="M87.0762 191.841C90.5698 193.751 91.7972 197.176 90.6152 198.102C90.0157 198.415 89.3318 198.526 88.6642 198.42" stroke="#17334F" stroke-width="1.2" stroke-linecap="round" stroke-linejoin="round"/>
<path d="M88.3896 189.822C91.8833 191.733 93.1048 195.149 91.9287 196.084C91.6465 196.265 91.3299 196.388 90.9985 196.442" stroke="#17334F" stroke-width="1.2" stroke-linecap="round" stroke-linejoin="round"/>
<path d="M73.5278 196.878C77.5064 196.162 81.6074 196.627 85.3246 198.216" stroke="#17334F" stroke-width="1.2" stroke-linecap="round" stroke-linejoin="round"/>
<path d="M85.0979 193.813C88.41 195.764 89.29 198.505 88.1832 199.508C86.8853 200.681 82.5344 200.075 81.3093 196.967" stroke="#17334F" stroke-width="1.2" stroke-linecap="round" stroke-linejoin="round"/>
<path d="M75.3428 183.992C78.292 183.901 89.6827 184.423 89.7257 185.285C89.7747 186.283 87.0714 186.851 87.0714 186.851" stroke="#17334F" stroke-width="1.2" stroke-linecap="round" stroke-linejoin="round"/>
<path d="M75.3657 184.014C79.0705 184.281 82.7122 185.116 86.1643 186.486C86.1643 186.486 95.5157 190.068 99.752 191.001C101.161 191.31 97.1252 192.975 90.157 191.092" stroke="#17334F" stroke-width="1.2" stroke-linecap="round" stroke-linejoin="round"/>
<path d="M62.0943 178.909C61.2224 179.43 60.4535 180.106 59.8257 180.905" stroke="#17334F" stroke-width="1.2" stroke-linecap="round" stroke-linejoin="round"/>
<path d="M86.7312 178.569L87.5706 184.649" stroke="#17334F" stroke-width="1.2" stroke-linecap="round" stroke-linejoin="round"/>
<path d="M236.525 222.761C235.005 226.663 233.19 232.357 233.778 236.123C226.816 237.96 219.495 237.936 212.544 236.055C206.533 222.738 207.803 213.166 211.66 206.682" stroke="#17334F" stroke-width="1.2" stroke-linecap="round" stroke-linejoin="round"/>
<path d="M224.173 178.806C230.872 173.173 240.965 176.405 237.545 187.945C237.545 187.945 257.843 190.894 247.482 211.176" stroke="#17334F" stroke-width="1.2" stroke-linecap="round" stroke-linejoin="round"/>
<path d="M233.78 236.118C235.169 236.799 236.416 237.738 237.455 238.886" stroke="#17334F" stroke-width="1.2" stroke-linecap="round" stroke-linejoin="round"/>
<path d="M232.849 202.095L229.537 209.649C229.331 210.116 228.977 210.504 228.532 210.754C228.085 211.003 227.571 211.101 227.065 211.033L218.376 209.831C218.025 209.781 217.69 209.653 217.395 209.456C217.101 209.259 216.855 208.998 216.673 208.694C216.493 208.39 216.383 208.048 216.352 207.695C216.32 207.342 216.369 206.987 216.493 206.655L218.648 201.006" stroke="#17334F" stroke-width="1.2" stroke-linecap="round" stroke-linejoin="round"/>
<path d="M82.1034 128.568L80.5835 120.991C80.5276 120.605 80.3479 120.248 80.0714 119.973C79.7948 119.697 79.4364 119.52 79.0501 119.466C78.6638 119.412 78.2703 119.485 77.9291 119.674C77.5879 119.863 77.3172 120.158 77.1579 120.514C77.0231 120.141 76.7718 119.823 76.4413 119.605C76.1108 119.387 75.7188 119.282 75.3236 119.305C74.9285 119.328 74.5513 119.478 74.2482 119.732C73.9451 119.987 73.7323 120.333 73.6416 120.718C73.5229 120.287 73.2441 119.918 72.8622 119.685C72.4804 119.453 72.0242 119.375 71.5869 119.468C71.1497 119.56 70.7643 119.817 70.5095 120.184C70.2547 120.551 70.1497 121.002 70.216 121.444C70.0707 121.017 69.7646 120.663 69.3629 120.458C68.9611 120.253 68.4952 120.213 68.064 120.346C67.633 120.478 67.2707 120.774 67.054 121.17C66.8374 121.565 66.7836 122.03 66.9038 122.465C67.7973 125.155 68.5544 127.888 69.1724 130.654C69.9103 134.236 70.296 138.079 69.219 140.12" stroke="#17334F" stroke-width="1.2" stroke-linecap="round" stroke-linejoin="round"/>
<path d="M145.85 79.046C145.85 79.3106 145.771 79.5692 145.624 79.7893C145.478 80.0093 145.269 80.1809 145.024 80.2823C144.78 80.3836 144.511 80.4104 144.252 80.359C143.992 80.3077 143.754 80.1805 143.566 79.9937C143.379 79.8069 143.251 79.5687 143.199 79.3093C143.147 79.0499 143.173 78.7809 143.274 78.5363C143.374 78.2916 143.546 78.0823 143.765 77.9349C143.985 77.7874 144.243 77.7082 144.508 77.7075C144.863 77.7072 145.204 77.8481 145.456 78.099C145.707 78.35 145.849 78.6905 145.85 79.046Z" stroke="#17334F" stroke-width="1.2" stroke-linecap="round" stroke-linejoin="round"/>
<path d="M151.68 79.046C151.68 79.3107 151.601 79.5696 151.454 79.7896C151.308 80.0098 151.099 80.1812 150.854 80.2826C150.609 80.3839 150.34 80.4104 150.08 80.3588C149.821 80.3071 149.582 80.1797 149.395 79.9925C149.208 79.8053 149.081 79.5668 149.029 79.3071C148.977 79.0475 149.004 78.7784 149.105 78.5338C149.206 78.2892 149.378 78.0802 149.598 77.9331C149.818 77.7861 150.077 77.7075 150.342 77.7075C150.696 77.7081 151.037 77.8494 151.287 78.1002C151.538 78.3511 151.679 78.6913 151.68 79.046Z" stroke="#17334F" stroke-width="1.2" stroke-linecap="round" stroke-linejoin="round"/>
<path d="M157.533 79.046C157.533 79.3107 157.454 79.5696 157.307 79.7896C157.161 80.0098 156.952 80.1812 156.707 80.2826C156.462 80.3839 156.193 80.4104 155.933 80.3588C155.674 80.3071 155.435 80.1797 155.248 79.9925C155.061 79.8053 154.934 79.5668 154.882 79.3071C154.83 79.0475 154.856 78.7784 154.958 78.5338C155.059 78.2892 155.231 78.0802 155.451 77.9331C155.672 77.7861 155.929 77.7075 156.195 77.7075C156.549 77.7081 156.889 77.8494 157.14 78.1002C157.391 78.3511 157.532 78.6913 157.533 79.046Z" stroke="#17334F" stroke-width="1.2" stroke-linecap="round" stroke-linejoin="round"/>
<path d="M204.265 256.856C204.265 257.247 204.149 257.629 203.932 257.953C203.716 258.277 203.408 258.53 203.047 258.68C202.687 258.829 202.289 258.868 201.907 258.792C201.524 258.716 201.171 258.528 200.896 258.252C200.62 257.976 200.432 257.624 200.356 257.241C200.279 256.859 200.319 256.461 200.468 256.101C200.617 255.74 200.871 255.432 201.195 255.216C201.519 254.999 201.901 254.883 202.291 254.883C202.814 254.883 203.317 255.091 203.687 255.461C204.056 255.831 204.265 256.334 204.265 256.856Z" stroke="#17334F" stroke-width="1.2" stroke-linecap="round" stroke-linejoin="round"/>
<path d="M91.9824 108.494V118.294" stroke="#17334F" stroke-width="1.2" stroke-linecap="round" stroke-linejoin="round"/>
<path d="M96.8719 113.393H87.0715" stroke="#17334F" stroke-width="1.2" stroke-linecap="round" stroke-linejoin="round"/>
<path d="M228.652 256.97C226.484 259.536 224.633 262.355 223.14 265.364C222.241 266.846 221.503 268.421 220.939 270.06C219.343 274.686 220.685 274.571 223.117 270.945C229.298 261.727 232.214 260.827 234.46 258.83" stroke="#17334F" stroke-width="1.2" stroke-linecap="round" stroke-linejoin="round"/>
<path d="M221.438 268.701C219.986 269.705 218.408 270.513 216.745 271.103C216.267 271.232 215.521 270.854 217.834 268.857C218.333 268.426 220.396 266.563 221.1 265.862C222.574 264.513 223.968 263.082 225.279 261.575" stroke="#17334F" stroke-width="1.2" stroke-linecap="round" stroke-linejoin="round"/>
<path d="M226.996 259.081C227.972 257.039 223.253 258.395 221.189 258.722C219.329 259.014 217.129 258.658 221.801 256.363C224.241 255.192 226.465 253.618 228.38 251.707" stroke="#17334F" stroke-width="1.2" stroke-linecap="round" stroke-linejoin="round"/>
<path d="M138.862 85.7849L136.685 91.5244L142.401 89.1878C144.762 90.7272 147.523 91.5396 150.342 91.5244C157.896 91.5244 164.021 85.9437 164.021 79.0471C164.021 72.1506 157.919 66.5698 150.364 66.5698C142.81 66.5698 136.685 72.1506 136.685 79.0471C136.697 81.464 137.458 83.8178 138.862 85.7849Z" stroke="#17334F" stroke-width="1.2" stroke-linecap="round" stroke-linejoin="round"/>
<path d="M245.327 232.086L247.051 230.747" stroke="#17334F" stroke-width="1.2" stroke-linecap="round" stroke-linejoin="round"/>
<path d="M108.758 156.565L110.573 157.858" stroke="#17334F" stroke-width="1.2" stroke-linecap="round" stroke-linejoin="round"/>
<path d="M54.3584 179.546L53.4963 181.61" stroke="#17334F" stroke-width="1.2" stroke-linecap="round" stroke-linejoin="round"/>
<path d="M70.6696 185.034C70.4184 185.034 70.1726 185.108 69.9638 185.248C69.7549 185.388 69.592 185.586 69.4959 185.819C69.3998 186.05 69.3746 186.306 69.4235 186.553C69.4726 186.799 69.5936 187.026 69.7712 187.202C69.9489 187.38 70.1753 187.501 70.4217 187.551C70.6682 187.6 70.9236 187.575 71.1558 187.478C71.3879 187.382 71.5863 187.219 71.7259 187.01C71.8655 186.801 71.94 186.555 71.94 186.305C71.9347 185.969 71.7992 185.649 71.5621 185.411C71.325 185.175 71.0049 185.039 70.6696 185.034Z" stroke="#17334F" stroke-width="1.2"/>
<path d="M52.2257 191.977C52.9273 191.977 53.4962 191.409 53.4962 190.707C53.4962 190.005 52.9273 189.437 52.2257 189.437C51.524 189.437 50.9553 190.005 50.9553 190.707C50.9553 191.409 51.524 191.977 52.2257 191.977Z" stroke="#17334F" stroke-width="1.2"/>
<path d="M43.2421 174.985C43.9437 174.985 44.5125 174.416 44.5125 173.715C44.5125 173.013 43.9437 172.444 43.2421 172.444C42.5405 172.444 41.9717 173.013 41.9717 173.715C41.9717 174.416 42.5405 174.985 43.2421 174.985Z" stroke="#17334F" stroke-width="1.2"/>
<path d="M58.5553 164.209C59.2569 164.209 59.8257 163.64 59.8257 162.938C59.8257 162.237 59.2569 161.668 58.5553 161.668C57.8537 161.668 57.2849 162.237 57.2849 162.938C57.2849 163.64 57.8537 164.209 58.5553 164.209Z" stroke="#17334F" stroke-width="1.2"/>
<path d="M64.4084 146.899C64.157 146.899 63.9114 146.974 63.7026 147.113C63.4937 147.253 63.3308 147.452 63.2347 147.684C63.1384 147.916 63.1134 148.171 63.1623 148.418C63.2114 148.664 63.3323 148.89 63.51 149.068C63.6877 149.246 63.9141 149.367 64.1605 149.416C64.4069 149.465 64.6623 149.44 64.8946 149.344C65.1267 149.247 65.325 149.085 65.4647 148.876C65.6043 148.667 65.6788 148.421 65.6788 148.17C65.6735 147.835 65.538 147.514 65.3009 147.277C65.0638 147.04 64.7437 146.905 64.4084 146.899Z" stroke="#17334F" stroke-width="1.2"/>
<path d="M77.1347 159.649C76.8834 159.649 76.6378 159.723 76.4288 159.863C76.22 160.003 76.0571 160.201 75.961 160.433C75.8648 160.665 75.8397 160.921 75.8886 161.167C75.9377 161.414 76.0587 161.64 76.2363 161.818C76.414 161.995 76.6404 162.116 76.8868 162.165C77.1333 162.214 77.3887 162.189 77.6209 162.093C77.853 161.997 78.0513 161.834 78.191 161.625C78.3306 161.416 78.4051 161.171 78.4051 160.919C78.3999 160.584 78.2643 160.264 78.0272 160.027C77.7901 159.79 77.47 159.654 77.1347 159.649Z" stroke="#17334F" stroke-width="1.2"/>
<path d="M66.8127 171.174C66.5613 171.174 66.3157 171.249 66.1069 171.388C65.898 171.528 65.7351 171.726 65.639 171.959C65.5427 172.191 65.5177 172.446 65.5666 172.693C65.6157 172.939 65.7366 173.165 65.9143 173.343C66.092 173.521 66.3184 173.642 66.5648 173.691C66.8112 173.74 67.0666 173.715 67.2989 173.618C67.531 173.522 67.7294 173.359 67.869 173.151C68.0086 172.942 68.0831 172.696 68.0831 172.445C68.0833 172.278 68.0507 172.112 67.987 171.958C67.9233 171.804 67.8297 171.664 67.7116 171.546C67.5937 171.428 67.4535 171.334 67.2992 171.27C67.145 171.207 66.9796 171.174 66.8127 171.174Z" stroke="#17334F" stroke-width="1.2"/>
<path d="M95.7138 164.209C96.4154 164.209 96.9842 163.64 96.9842 162.938C96.9842 162.237 96.4154 161.668 95.7138 161.668C95.0121 161.668 94.4434 162.237 94.4434 162.938C94.4434 163.64 95.0121 164.209 95.7138 164.209Z" stroke="#17334F" stroke-width="1.2"/>
<path d="M107.941 158.149C107.69 158.149 107.444 158.224 107.236 158.363C107.027 158.503 106.864 158.702 106.768 158.934C106.671 159.166 106.646 159.421 106.695 159.668C106.744 159.914 106.865 160.14 107.043 160.318C107.221 160.496 107.447 160.617 107.693 160.666C107.94 160.715 108.195 160.69 108.428 160.594C108.66 160.497 108.858 160.335 108.998 160.126C109.137 159.917 109.212 159.671 109.212 159.42C109.206 159.085 109.071 158.764 108.834 158.527C108.597 158.29 108.277 158.155 107.941 158.149Z" stroke="#17334F" stroke-width="1.2"/>
<path d="M123.345 163.461C124.047 163.461 124.616 162.892 124.616 162.191C124.616 161.489 124.047 160.92 123.345 160.92C122.644 160.92 122.075 161.489 122.075 162.191C122.075 162.892 122.644 163.461 123.345 163.461Z" stroke="#17334F" stroke-width="1.2"/>
<path d="M130.083 149.782C130.785 149.782 131.354 149.213 131.354 148.512C131.354 147.81 130.785 147.241 130.083 147.241C129.381 147.241 128.813 147.81 128.813 148.512C128.813 149.213 129.381 149.782 130.083 149.782Z" stroke="#17334F" stroke-width="1.2"/>
<path d="M83.351 173.691C83.0997 173.691 82.8541 173.766 82.6451 173.905C82.4363 174.045 82.2734 174.244 82.1773 174.476C82.0811 174.708 82.056 174.963 82.1049 175.21C82.154 175.456 82.275 175.682 82.4526 175.86C82.6303 176.038 82.8567 176.159 83.1031 176.208C83.3496 176.257 83.605 176.232 83.8371 176.136C84.0693 176.039 84.2676 175.877 84.4072 175.668C84.5469 175.459 84.6214 175.213 84.6214 174.962C84.6162 174.627 84.4807 174.306 84.2435 174.069C84.0064 173.832 83.6863 173.697 83.351 173.691Z" stroke="#17334F" stroke-width="1.2"/>
<path d="M85.869 148.987C86.5706 148.987 87.1395 148.418 87.1395 147.716C87.1395 147.015 86.5706 146.446 85.869 146.446C85.1673 146.446 84.5986 147.015 84.5986 147.716C84.5986 148.418 85.1673 148.987 85.869 148.987Z" stroke="#17334F" stroke-width="1.2"/>
</svg>
