<svg width="406" height="205" viewBox="0 0 406 205" fill="none" xmlns="http://www.w3.org/2000/svg">
<path d="M158.205 74.22C170.726 72.4336 195.729 61.5806 195.58 32.4601" stroke="#A0B7DB" stroke-width="3.26214" stroke-linecap="round"/>
<rect x="52.8646" y="26.0761" width="89.7087" height="164.738" rx="4.8932" transform="rotate(-9.96779 52.8646 26.0761)" stroke="#A0B7DB" stroke-width="3.26214"/>
<line x1="53.7553" y1="35.8569" x2="142.913" y2="20.1877" stroke="#A0B7DB" stroke-width="1.63107"/>
<line x1="88.2501" y1="24.8261" x2="107.527" y2="21.4382" stroke="#A0B7DB" stroke-width="1.63107" stroke-linecap="round"/>
<path d="M76.7904 63.273C86.4555 58.2622 88.7061 57.8667 98.4775 59.4615" stroke="#A0B7DB" stroke-width="2.4466" stroke-linecap="round"/>
<path d="M109.723 57.4858C119.388 52.4751 121.638 52.0796 131.41 53.6744" stroke="#A0B7DB" stroke-width="2.4466" stroke-linecap="round"/>
<path d="M120.633 75.3736C121.012 77.5317 116.036 81.8819 109.168 83.0891C102.299 84.2962 96.1384 81.9031 95.7591 79.7451C95.3798 77.5871 101.254 78.3482 108.122 77.141C114.991 75.9339 120.254 73.2156 120.633 75.3736Z" fill="#A0B7DB"/>
<path d="M58.2093 94.572C45.6887 96.3584 20.685 107.211 20.8347 136.332" stroke="#A0B7DB" stroke-width="3.26214" stroke-linecap="round"/>
<path d="M246.633 75.2999C234.177 73.1038 209.543 61.4368 210.647 32.337" stroke="#A0B7DB" stroke-width="3.26214" stroke-linecap="round"/>
<path d="M345.86 98.9101C358.315 101.106 382.95 112.773 381.845 141.873" stroke="#A0B7DB" stroke-width="3.26214" stroke-linecap="round"/>
<rect x="-1.93118" y="1.26148" width="89.7087" height="164.738" rx="4.8932" transform="matrix(-0.9787 -0.205296 -0.205296 0.9787 351.864 29.0054)" stroke="#A0B7DB" stroke-width="3.26214"/>
<line y1="-0.815534" x2="90.5243" y2="-0.815534" transform="matrix(-0.9787 -0.205296 -0.205296 0.9787 352.117 41.1797)" stroke="#A0B7DB" stroke-width="1.63107"/>
<line x1="0.815534" y1="-0.815534" x2="20.3883" y2="-0.815534" transform="matrix(-0.9787 -0.205295 -0.205295 0.9787 318.8 29.1924)" stroke="#A0B7DB" stroke-width="1.63107" stroke-linecap="round"/>
<path d="M328.363 67.0293C318.867 61.7043 316.631 61.2352 306.812 62.5088" stroke="#A0B7DB" stroke-width="2.4466" stroke-linecap="round"/>
<path d="M306.411 88.2559C295.576 89.3162 293.34 88.8471 284.861 83.7354" stroke="#A0B7DB" stroke-width="2.4466" stroke-linecap="round"/>
<path d="M295.638 60.164C286.142 54.8391 283.906 54.37 274.088 55.6435" stroke="#A0B7DB" stroke-width="2.4466" stroke-linecap="round"/>
</svg>
