<svg width="192" height="154" viewBox="0 0 192 154" fill="none" xmlns="http://www.w3.org/2000/svg">
<g clip-path="url(#clip0_1425_3559)">
<path d="M17.2568 5.24316C21.2571 1.24287 27.7429 1.24288 31.7432 5.24317L43.7568 17.2568C47.7571 21.2571 47.7571 27.7429 43.7568 31.7432L31.7432 43.7568C27.7429 47.7571 21.2571 47.7571 17.2568 43.7568L5.24316 31.7432C1.24287 27.7429 1.24288 21.2571 5.24317 17.2568L17.2568 5.24316Z" fill="#8BC4F5" fill-opacity="0.2"/>
<path d="M128.257 110.243C132.257 106.243 138.743 106.243 142.743 110.243L154.757 122.257C158.757 126.257 158.757 132.743 154.757 136.743L142.743 148.757C138.743 152.757 132.257 152.757 128.257 148.757L116.243 136.743C112.243 132.743 112.243 126.257 116.243 122.257L128.257 110.243Z" fill="#8BC4F5" fill-opacity="0.2"/>
<rect x="30.1562" y="28" width="131.688" height="49" rx="5.86587" fill="#3E454C"/>
<g opacity="0.25">
<rect x="82.2476" y="41.7812" width="24.5" height="7.65625" rx="1.95529" fill="#2B3136"/>
<rect x="82.2476" y="55.5625" width="50.5312" height="7.65625" rx="1.95529" fill="#99AAB7"/>
</g>
<g opacity="0.25">
<path fill-rule="evenodd" clip-rule="evenodd" d="M68.3153 62.3581C65.2556 66.5901 60.2775 69.3438 54.6562 69.3438C49.0448 69.3438 44.0744 66.5998 41.0133 62.3806C43.0564 59.6275 48.4011 58.625 54.6727 58.625C60.9272 58.625 66.2598 59.6221 68.3153 62.3581Z" fill="#99AAB7"/>
<circle cx="54.6562" cy="49.4375" r="7.65625" fill="#99AAB7"/>
<rect x="37.0469" y="34.8906" width="35.2188" height="35.2188" rx="17.6094" stroke="#19293C" stroke-opacity="0.25" stroke-width="1.53125"/>
</g>
<rect x="30.8895" y="28.7332" width="130.221" height="47.5335" rx="5.13263" stroke="#686E73" stroke-opacity="0.5" stroke-width="1.46647"/>
<rect x="18" y="44" width="155.875" height="58" rx="6.94327" fill="#3E454C"/>
<g opacity="0.5">
<rect x="79.6595" y="60.3125" width="29" height="9.0625" rx="2.31442" fill="#2B3136"/>
<rect x="79.6595" y="76.625" width="59.8125" height="9.0625" rx="2.31442" fill="#99AAB7"/>
</g>
<g opacity="0.5">
<rect x="25.25" y="51.25" width="43.5" height="43.5" rx="21.75" fill="#7B99AF"/>
<path fill-rule="evenodd" clip-rule="evenodd" d="M63.1683 84.6689C59.5467 89.6781 53.6542 92.9375 47.0005 92.9375C40.3585 92.9375 34.475 89.6896 30.8518 84.6953C33.2701 81.4366 39.5964 80.25 47.0199 80.25C54.4233 80.25 60.7354 81.4302 63.1683 84.6689Z" fill="#99AAB7"/>
<circle cx="47" cy="69.375" r="9.0625" fill="#99AAB7"/>
<rect x="26.1562" y="52.1562" width="41.6875" height="41.6875" rx="20.8438" stroke="#19293C" stroke-opacity="0.25" stroke-width="1.8125"/>
</g>
<rect x="18.8679" y="44.8679" width="154.139" height="56.2642" rx="6.07536" stroke="#686E73" stroke-opacity="0.5" stroke-width="1.73582"/>
<rect x="10" y="62" width="172" height="64" rx="7.66154" fill="#3E454C"/>
<rect x="78.0381" y="80" width="32" height="10" rx="2.55385" fill="#2B3136"/>
<rect x="78.0381" y="98" width="66" height="10" rx="2.55385" fill="#2B3136"/>
<rect x="18" y="70" width="48" height="48" rx="24" fill="#7B99AF"/>
<path fill-rule="evenodd" clip-rule="evenodd" d="M59.8411 106.876C55.8448 112.403 49.3426 116 42.0004 116C34.6714 116 28.1795 112.416 24.1814 106.906C26.8497 103.309 33.8307 102 42.0224 102C50.1914 102 57.1563 103.302 59.8411 106.876Z" fill="#2B3136"/>
<circle cx="42" cy="90" r="10" fill="#2B3136"/>
<rect x="19" y="71" width="46" height="46" rx="23" stroke="#0B1D32" stroke-opacity="0.35" stroke-width="2"/>
<rect x="10.9577" y="62.9577" width="170.085" height="62.0846" rx="6.70385" stroke="#686E73" stroke-opacity="0.5" stroke-width="1.91538"/>
</g>
<defs>
<clipPath id="clip0_1425_3559">
<rect width="192" height="154" fill="white"/>
</clipPath>
</defs>
</svg>
