<svg width="192" height="154" viewBox="0 0 192 154" fill="none" xmlns="http://www.w3.org/2000/svg">
<g clip-path="url(#clip0_1044_13449)">
<path d="M17.2568 5.24316C21.2571 1.24287 27.7429 1.24288 31.7432 5.24317L43.7568 17.2568C47.7571 21.2571 47.7571 27.7429 43.7568 31.7432L31.7432 43.7568C27.7429 47.7571 21.2571 47.7571 17.2568 43.7568L5.24316 31.7432C1.24287 27.7429 1.24288 21.2571 5.24317 17.2568L17.2568 5.24316Z" fill="#CAD8E4" fill-opacity="0.2"/>
<path d="M128.257 110.243C132.257 106.243 138.743 106.243 142.743 110.243L154.757 122.257C158.757 126.257 158.757 132.743 154.757 136.743L142.743 148.757C138.743 152.757 132.257 152.757 128.257 148.757L116.243 136.743C112.243 132.743 112.243 126.257 116.243 122.257L128.257 110.243Z" fill="#CAD8E4" fill-opacity="0.2"/>
<rect x="30.8895" y="28.7332" width="130.221" height="47.5335" rx="5.13263" fill="#F8F9F9"/>
<g opacity="0.25">
<rect x="82.2476" y="41.7812" width="24.5" height="7.65625" rx="1.95529" fill="#C2CBD4"/>
<rect x="82.2476" y="55.5625" width="50.5312" height="7.65625" rx="1.95529" fill="#99AAB7"/>
</g>
<g opacity="0.25">
<path fill-rule="evenodd" clip-rule="evenodd" d="M68.3151 62.3581C65.2554 66.5901 60.2773 69.3438 54.656 69.3438C49.0447 69.3438 44.0742 66.5998 41.0132 62.3806C43.0563 59.6275 48.4009 58.625 54.6725 58.625C60.9271 58.625 66.2597 59.6221 68.3151 62.3581Z" fill="#99AAB7"/>
<circle cx="54.6562" cy="49.4375" r="7.65625" fill="#99AAB7"/>
<rect x="37.0469" y="34.8906" width="35.2188" height="35.2188" rx="17.6094" stroke="#19293C" stroke-opacity="0.25" stroke-width="1.53125"/>
</g>
<rect x="30.8895" y="28.7332" width="130.221" height="47.5335" rx="5.13263" stroke="#B2C2CF" stroke-width="1.46647"/>
<rect x="18.9304" y="44.8679" width="154.139" height="56.2642" rx="6.07536" fill="#F9FAFA"/>
<g opacity="0.5">
<rect x="79.7222" y="60.3125" width="29" height="9.0625" rx="2.31442" fill="#C2CBD4"/>
<rect x="79.7222" y="76.625" width="59.8125" height="9.0625" rx="2.31442" fill="#99AAB7"/>
</g>
<g opacity="0.5">
<path fill-rule="evenodd" clip-rule="evenodd" d="M63.2306 84.6689C59.609 89.6781 53.7165 92.9375 47.0628 92.9375C40.4207 92.9375 34.5373 89.6896 30.9141 84.6953C33.3324 81.4366 39.6587 80.25 47.0822 80.25C54.4856 80.25 60.7977 81.4302 63.2306 84.6689Z" fill="#99AAB7"/>
<circle cx="47.0625" cy="69.375" r="9.0625" fill="#99AAB7"/>
<rect x="26.2188" y="52.1562" width="41.6875" height="41.6875" rx="20.8438" stroke="#19293C" stroke-opacity="0.25" stroke-width="1.8125"/>
</g>
<rect x="18.9304" y="44.8679" width="154.139" height="56.2642" rx="6.07536" stroke="#B2C2CF" stroke-width="1.73582"/>
<rect x="10.9577" y="62.9577" width="170.085" height="62.0846" rx="6.70385" fill="#FAFAFA"/>
<rect x="78.0381" y="80" width="32" height="10" rx="2.55385" fill="#D5D9DD"/>
<rect x="78.0381" y="98" width="66" height="10" rx="2.55385" fill="#DFE3E5"/>
<path fill-rule="evenodd" clip-rule="evenodd" d="M59.8413 106.876C55.845 112.403 49.3428 116 42.0006 116C34.6717 116 28.1797 112.416 24.1816 106.906C26.85 103.309 33.8309 102 42.0227 102C50.1916 102 57.1565 103.302 59.8413 106.876Z" fill="#DAE0E4"/>
<circle cx="42" cy="90" r="10" fill="#DAE0E4"/>
<rect x="19" y="71" width="46" height="46" rx="23" stroke="#19293C" stroke-opacity="0.15" stroke-width="2"/>
<rect x="10.9577" y="62.9577" width="170.085" height="62.0846" rx="6.70385" stroke="#B2C2CF" stroke-width="1.91538"/>
</g>
<defs>
<clipPath id="clip0_1044_13449">
<rect width="192" height="154" fill="white"/>
</clipPath>
</defs>
</svg>
