<svg width="144" height="144" viewBox="0 0 144 144" fill="none" xmlns="http://www.w3.org/2000/svg">
<g clip-path="url(#clip0_1627_2926)">
<circle cx="86" cy="83" r="59" fill="white"/>
<circle cx="10" cy="10" r="10" transform="matrix(1 0 0 -1 27 24)" fill="white"/>
<path fill-rule="evenodd" clip-rule="evenodd" d="M41.7025 125.253V26.6026C41.7025 22.9342 44.3456 19.9707 47.5907 19.9707H44.7747C43.0158 19.9713 41.3291 20.6703 40.0854 21.914C38.8416 23.1577 38.1427 24.8444 38.1421 26.6033V125.253C38.1424 127.012 38.8414 128.699 40.0852 129.942C41.329 131.186 43.0158 131.885 44.7747 131.885H47.5921C44.3218 131.885 41.7025 128.895 41.7025 125.253Z" fill="#17334F"/>
<path d="M47.5921 19.9707H44.7747C43.0158 19.9711 41.329 20.67 40.0852 21.9138C38.8414 23.1575 38.1424 24.8444 38.1421 26.6033V125.253C38.1424 127.012 38.8414 128.699 40.0852 129.942C41.329 131.186 43.0158 131.885 44.7747 131.885H48.3236" stroke="#17334F" stroke-linecap="round" stroke-linejoin="round"/>
<path d="M74.1313 126.637C76.3741 126.637 78.1929 124.818 78.1929 122.575C78.1929 120.332 76.3741 118.514 74.1313 118.514C71.8883 118.514 70.0698 120.332 70.0698 122.575C70.0698 124.818 71.8883 126.637 74.1313 126.637Z" stroke="#17334F" stroke-linecap="round" stroke-linejoin="round"/>
<path d="M103.148 26.6026C103.148 22.9421 100.511 19.9707 97.2593 19.9707H47.5923C44.3235 19.9707 41.7041 22.9601 41.7041 26.6026V125.253C41.7041 128.914 44.3407 131.885 47.5923 131.885H97.2607C100.528 131.885 103.15 128.897 103.15 125.253L103.148 26.6026Z" stroke="#17334F" stroke-linecap="round" stroke-linejoin="round"/>
<path d="M67.3203 28.7383H81.7261" stroke="#17334F" stroke-linecap="round" stroke-linejoin="round"/>
<path d="M59.04 112.366H88.1136C89.221 112.376 90.3197 112.167 91.3457 111.75C92.3724 111.334 93.3056 110.718 94.0925 109.938C94.8795 109.158 95.5037 108.231 95.93 107.209C96.3562 106.186 96.5758 105.09 96.5758 103.982C96.5758 102.874 96.3562 101.778 95.93 100.755C95.5037 99.733 94.8795 98.8056 94.0925 98.0259C93.3056 97.2468 92.3724 96.6305 91.3457 96.2136C90.3197 95.7967 89.221 95.5879 88.1136 95.598H59.3043" stroke="#17334F" stroke-linecap="round" stroke-linejoin="round"/>
<path fill-rule="evenodd" clip-rule="evenodd" d="M61.8716 78.4635C63.1982 76.7816 64.8889 75.4215 66.8165 74.487C68.7442 73.5524 70.8586 73.0664 73.0013 73.0664C75.1433 73.0664 77.258 73.5524 79.1854 74.487C81.1129 75.4215 82.8034 76.7816 84.1304 78.4635C82.8034 80.1454 81.1129 81.5055 79.1854 82.4401C77.258 83.3746 75.1433 83.8606 73.0013 83.8606C70.8586 83.8606 68.7442 83.3746 66.8165 82.4401C64.8889 81.5055 63.1982 80.1454 61.8716 78.4635Z" fill="#71CEF8"/>
<path d="M73.0015 70.6177C74.8375 70.6177 76.3257 69.1294 76.3257 67.2935C76.3257 65.4575 74.8375 63.9692 73.0015 63.9692C71.1656 63.9692 69.6772 65.4575 69.6772 67.2935C69.6772 69.1294 71.1656 70.6177 73.0015 70.6177Z" fill="#71CEF8"/>
<path d="M79.0596 82.5005C86.1394 79.1546 89.1662 70.7028 85.8204 63.6227C82.4746 56.5426 74.0232 53.5154 66.943 56.8613C59.863 60.207 56.8357 68.6589 60.1816 75.7389C63.5274 82.8187 71.9793 85.8463 79.0596 82.5005Z" stroke="#17334F" stroke-linecap="round" stroke-linejoin="round"/>
<path d="M61.8716 78.4635C63.1982 76.7816 64.8889 75.4215 66.8165 74.487C68.7442 73.5524 70.8586 73.0664 73.0013 73.0664C75.1433 73.0664 77.258 73.5524 79.1854 74.487C81.1129 75.4215 82.8034 76.7816 84.1304 78.4635C82.8034 80.1454 81.1129 81.5055 79.1854 82.4401C77.258 83.3746 75.1433 83.8606 73.0013 83.8606C70.8586 83.8606 68.7442 83.3746 66.8165 82.4401C64.8889 81.5055 63.1982 80.1454 61.8716 78.4635Z" stroke="#17334F" stroke-linecap="round" stroke-linejoin="round"/>
<path d="M73.0015 70.6177C74.8375 70.6177 76.3257 69.1294 76.3257 67.2935C76.3257 65.4575 74.8375 63.9692 73.0015 63.9692C71.1656 63.9692 69.6772 65.4575 69.6772 67.2935C69.6772 69.1294 71.1656 70.6177 73.0015 70.6177Z" stroke="#17334F" stroke-linecap="round" stroke-linejoin="round"/>
<path d="M98.0468 82.2449C98.9014 82.2449 99.5941 81.5523 99.5941 80.6977C99.5941 79.843 98.9014 79.1504 98.0468 79.1504C97.1922 79.1504 96.4995 79.843 96.4995 80.6977C96.4995 81.5523 97.1922 82.2449 98.0468 82.2449Z" fill="#17334F"/>
<path d="M98.0468 82.2449C98.9014 82.2449 99.5941 81.5523 99.5941 80.6977C99.5941 79.843 98.9014 79.1504 98.0468 79.1504C97.1922 79.1504 96.4995 79.843 96.4995 80.6977C96.4995 81.5523 97.1922 82.2449 98.0468 82.2449Z" stroke="#17334F" stroke-linecap="round" stroke-linejoin="round"/>
<path d="M15.6241 79.4604C18.0021 79.4604 20.3267 80.1653 22.304 81.4865C24.2812 82.8077 25.8224 84.6855 26.7325 86.8822C27.6427 89.0796 27.881 91.4967 27.4173 93.8295C26.9536 96.1616 25.8086 98.3043 24.1274 99.9855C22.4461 101.667 20.3039 102.813 17.9717 103.277C15.6394 103.742 13.2219 103.503 11.0247 102.594C8.82759 101.685 6.94947 100.144 5.62791 98.1668C4.30635 96.1896 3.60067 93.8655 3.6001 91.4873C3.59972 89.9084 3.91045 88.3445 4.51454 86.8851C5.11864 85.4257 6.00426 84.1001 7.12083 82.9834C8.2374 81.8667 9.56307 80.9804 11.0221 80.3763C12.4811 79.7715 14.0449 79.4604 15.6241 79.4604Z" stroke="#17334F" stroke-linecap="round" stroke-linejoin="round"/>
<path d="M15.6279 103.514C15.6279 103.514 16.2406 112.19 27.6519 115.378C30.9085 116.33 34.342 116.512 37.6809 115.908C41.0197 115.304 44.1722 113.931 46.8889 111.899" stroke="#17334F" stroke-linecap="round" stroke-linejoin="round"/>
<path d="M47.8886 112.14C48.7432 112.14 49.4359 111.448 49.4359 110.593C49.4359 109.739 48.7432 109.046 47.8886 109.046C47.034 109.046 46.3413 109.739 46.3413 110.593C46.3413 111.448 47.034 112.14 47.8886 112.14Z" fill="#17334F"/>
<path d="M47.8886 112.14C48.7432 112.14 49.4359 111.448 49.4359 110.593C49.4359 109.739 48.7432 109.046 47.8886 109.046C47.034 109.046 46.3413 109.739 46.3413 110.593C46.3413 111.448 47.034 112.14 47.8886 112.14Z" stroke="#17334F" stroke-linecap="round" stroke-linejoin="round"/>
<path d="M11.3862 93.3516C14.1618 96.0278 16.9885 96.0876 19.8685 93.3969" stroke="#17334F" stroke-linecap="round" stroke-linejoin="round"/>
<path d="M15.624 98.1292V95.3853" stroke="#17334F" stroke-linecap="round" stroke-linejoin="round"/>
<path d="M17.9819 61.4327L21.6453 66.2012L27.6544 57.3452" stroke="#17334F" stroke-linecap="round" stroke-linejoin="round"/>
<path d="M14.6597 12.1147V16.825" stroke="#17334F" stroke-linecap="round" stroke-linejoin="round"/>
<path d="M17.0149 14.4722H12.3047" stroke="#17334F" stroke-linecap="round" stroke-linejoin="round"/>
<path d="M124.272 105.721V112.37" stroke="#17334F" stroke-linecap="round" stroke-linejoin="round"/>
<path d="M127.593 109.046H120.945" stroke="#17334F" stroke-linecap="round" stroke-linejoin="round"/>
<path d="M137.526 71.1001L134.519 74.1068" stroke="#17334F" stroke-linecap="round" stroke-linejoin="round"/>
<path d="M137.526 74.1068L134.519 71.1001" stroke="#17334F" stroke-linecap="round" stroke-linejoin="round"/>
<path d="M52.5488 40.479H95.715" stroke="#17334F" stroke-linecap="round" stroke-linejoin="round"/>
<path d="M56.2778 45.1792H91.9898" stroke="#17334F" stroke-linecap="round" stroke-linejoin="round"/>
</g>
<defs>
<clipPath id="clip0_1627_2926">
<rect width="144" height="144" fill="white"/>
</clipPath>
</defs>
</svg>
