<?xml version="1.0" encoding="utf-8"?>
<!-- Generator: Adobe Illustrator 16.0.0, SVG Export Plug-In . SVG Version: 6.00 Build 0)  -->
<!DOCTYPE svg PUBLIC "-//W3C//DTD SVG 1.1//EN" "http://www.w3.org/Graphics/SVG/1.1/DTD/svg11.dtd">
<svg version="1.1" id="Layer_1" xmlns="http://www.w3.org/2000/svg" xmlns:xlink="http://www.w3.org/1999/xlink" x="0px" y="0px"
	 width="617.953px" height="617.953px" viewBox="0 0 617.953 617.953" enable-background="new 0 0 617.953 617.953"
	 xml:space="preserve">
<g opacity="0.2">
	<g>
		<path fill="#4CC226" d="M352.904,224.341c-104.98-45.429-183.522,20.138-183.522,20.138s-1.49,101.262,109.433,149.262
			c110.923,48.001,185.326-22.492,185.326-22.492S457.885,269.771,352.904,224.341z"/>
	</g>
</g>
<path fill="#4CC226" d="M543.022,303.663c45.038-104.078-2.993-225.396-107.071-270.436
	c-50.419-21.818-106.315-22.695-157.395-2.472c-51.078,20.223-91.224,59.127-113.041,109.546
	c-13.371,30.896-18.863,63.849-16.469,96.491c-24.872,20.167-45.381,46.433-58.956,77.803
	c-21.818,50.419-22.662,106.236-2.439,157.314c20.223,51.079,59.196,91.066,109.614,112.885c0.003,0.001-0.002-0.001,0.002,0.001
	c50.414,21.816,106.252,22.842,157.326,2.619c51.08-20.223,91.161-58.98,112.979-109.398c13.601-31.428,18.701-64.429,16.35-96.429
	C508.857,361.399,529.421,335.092,543.022,303.663z M211.164,552.678c-86.196-37.302-125.976-137.774-88.675-223.972
	c8.385-19.375,19.97-36.397,33.859-50.734c1.891,6.638,4.118,13.22,6.693,19.722c20.224,51.079,59.128,91.225,109.546,113.042
	c58.918,25.496,123.355,21.157,176.356-6.28c-0.93,19.982-5.407,40.127-13.811,59.547
	C397.832,550.197,297.36,589.977,211.164,552.678z M421.916,65.66c86.195,37.3,125.976,137.771,88.675,223.969
	c-8.401,19.413-20.014,36.462-33.938,50.815c-16.275-57.431-57.222-107.385-116.144-132.883
	c-58.927-25.5-123.37-21.168-176.372,6.271c0.935-19.967,5.413-40.093,13.809-59.496C235.247,68.139,335.718,28.36,421.916,65.66z
	 M286.623,378.304c-53.939-23.342-89.7-71.421-99.772-125.259c46.141-29.511,105.668-36.354,159.606-13.013
	c53.938,23.341,89.699,71.419,99.772,125.257C400.087,394.799,340.56,401.644,286.623,378.304z"/>
</svg>
