<svg width="21" height="25" viewBox="0 0 21 25" fill="none" xmlns="http://www.w3.org/2000/svg">
<path d="M8.94757 24.5C7.77554 24.5 6.6315 24.265 5.54735 23.8017C3.44598 22.9038 1.82447 21.2516 0.981582 19.1493C0.13873 17.0471 0.175306 14.7465 1.08466 12.6715C1.62256 11.444 2.45342 10.3522 3.49244 9.50555C3.40611 8.17816 3.64338 6.83268 4.18132 5.60508C5.5403 2.50388 8.6299 0.5 12.0525 0.5C13.2244 0.5 14.3684 0.734953 15.4527 1.19826C17.5541 2.09623 19.1755 3.74852 20.0184 5.85075C20.8613 7.95297 20.8247 10.2535 19.9153 12.3286C19.3773 13.5562 18.5464 14.648 17.5075 15.4945C17.5938 16.8218 17.3566 18.1673 16.8187 19.395C15.4597 22.4961 12.37 24.5 8.94781 24.5H8.94757ZM3.81089 11.3066C3.26602 11.8836 2.82843 12.5453 2.50678 13.2792C0.96896 16.7884 2.60906 20.8789 6.16275 22.3975C7.0512 22.7772 7.98834 22.9697 8.94808 22.9697C11.752 22.9697 14.2832 21.328 15.3966 18.7873C15.7182 18.0535 15.9071 17.2855 15.96 16.4984C14.7483 17.1114 13.4041 17.4334 12.0432 17.4334C10.8716 17.4334 9.72792 17.1986 8.64396 16.7354C7.386 16.1978 6.26646 15.3627 5.40643 14.3202C4.67805 13.4373 4.13183 12.4037 3.81089 11.3066ZM5.13908 10.2092C5.56199 12.4983 7.09154 14.4047 9.25949 15.3311C10.1478 15.7106 11.0848 15.9031 12.0443 15.9031C13.4034 15.9031 14.7192 15.5191 15.8611 14.7909C15.4381 12.5018 13.9086 10.5954 11.7407 9.66898C10.8524 9.28939 9.91546 9.09692 8.95588 9.09692C7.59678 9.09692 6.28099 9.48096 5.13908 10.2092ZM8.95671 7.56659C10.1284 7.56659 11.2721 7.80147 12.3561 8.26466C13.614 8.8022 14.7336 9.63735 15.5936 10.6799C16.322 11.5627 16.8682 12.5964 17.1892 13.6934C17.734 13.1165 18.1716 12.4548 18.4932 11.7209C19.2382 10.0209 19.2682 8.13626 18.5777 6.41404C17.8872 4.69183 16.5588 3.33825 14.8374 2.60262C13.9489 2.22296 13.0117 2.03045 12.052 2.03045C9.24804 2.03045 6.71684 3.67214 5.60351 6.21282C5.2819 6.94662 5.09304 7.71458 5.04004 8.50162C6.25173 7.88868 7.59587 7.56659 8.95671 7.56659Z" fill="#35E8AD"/>
</svg>
