<svg width="68" height="80" viewBox="0 0 68 80" fill="none" xmlns="http://www.w3.org/2000/svg">
<path fill-rule="evenodd" clip-rule="evenodd" d="M65.8988 1.37624C65.6696 1.16783 64.3036 0 62.4664 0C61.108 0 44.4571 0.00530895 40.2471 0.00667022L39.2855 0.00694245C27.8885 0.00694245 17.6308 6.6935 13.1529 17.0417C11.3878 21.1206 10.6053 25.5893 10.8795 30.0005C7.47632 32.8201 4.75432 36.4495 2.98917 40.5286C-0.00725859 47.453 -0.127867 55.1299 2.64953 62.1448C5.42693 69.1598 10.77 74.6734 17.6944 77.6698C21.2669 79.2158 25.0367 79.9999 28.899 80C40.1755 80 50.3574 73.313 54.8355 62.9645C56.6007 58.8858 57.3831 54.4171 57.109 50.0058C60.5123 47.1861 63.2341 43.5565 64.9993 39.4775C66.5337 35.9318 67.3177 32.191 67.3294 28.3567L67.3308 26.8476L67.3308 26.7958C67.3353 21.8054 67.3493 6.48574 67.3493 4.9263C67.3494 2.73928 66.1428 1.58683 65.8988 1.37624ZM51.7898 53.4817C51.5994 56.0161 50.9872 58.4898 49.9634 60.8562C46.3266 69.26 38.0591 74.6902 28.9006 74.6902C25.7659 74.6902 22.705 74.0534 19.8029 72.7977C14.1799 70.3644 9.84111 65.887 7.58563 60.1905C5.33014 54.494 5.42815 48.2601 7.86142 42.6371C8.8855 40.2705 10.2699 38.1309 11.9876 36.2568C13.0521 39.8471 14.8311 43.2283 17.1898 46.1235C20.0238 49.6022 23.7128 52.3891 27.8582 54.183C31.43 55.7287 35.1988 56.5124 39.0597 56.5124C43.4782 56.5121 47.843 55.469 51.7898 53.4817ZM39.0625 51.2028C35.9285 51.2028 32.8682 50.5662 29.9668 49.3107C22.9087 46.2563 17.9223 39.981 16.5219 32.4422C20.2373 30.0597 24.5119 28.8035 28.9262 28.8035C32.0603 28.8035 35.1206 29.4402 38.0221 30.6957C45.08 33.7499 50.0665 40.0253 51.4668 47.5641C47.7514 49.9466 43.4767 51.2028 39.0625 51.2028ZM16.1988 26.5245C16.3892 23.9896 17.0012 21.5164 18.0252 19.1501C21.6617 10.7463 29.9295 5.29901 39.0881 5.29901C39.1401 5.29901 39.1964 5.29865 39.2542 5.29829C39.3745 5.29752 39.5013 5.29671 39.6097 5.29901H40.4398H42.6171C42.6171 5.29901 45.1727 5.30113 46.6532 5.29901C61.4771 5.27778 62.0192 5.28153 62.0192 5.28153V10.1487V19.0955C62.0192 21.9226 62.0192 24.5513 61.994 27.1952C62.1596 30.7004 61.5313 34.1235 60.1268 37.3693C59.1027 39.7358 57.7183 41.8755 56.0005 43.7497C54.936 40.1595 53.1569 36.7782 50.7984 33.8831C47.9644 30.4043 44.2752 27.6174 40.13 25.8235C36.5582 24.2778 32.7894 23.4941 28.9284 23.4941C24.5103 23.4939 20.1456 24.5371 16.1988 26.5245ZM27.1795 43.5683C29.0817 43.5683 30.6238 42.0262 30.6238 40.124C30.6238 38.2217 29.0817 36.6797 27.1795 36.6797C25.2773 36.6797 23.7352 38.2217 23.7352 40.124C23.7352 42.0262 25.2773 43.5683 27.1795 43.5683ZM43.746 42.1696C43.746 45.1431 41.3355 47.5537 38.3619 47.5537C35.3884 47.5537 32.9778 45.1431 32.9778 42.1696C32.9778 39.196 35.3884 36.7855 38.3619 36.7855C41.3355 36.7855 43.746 39.196 43.746 42.1696Z" fill="#D1D1D2"/>
</svg>
