<svg width="78" height="78" viewBox="0 0 78 78" fill="none" xmlns="http://www.w3.org/2000/svg">
<circle cx="6.5" cy="71.5" r="0.5" fill="#2D4A53" fill-opacity="0.85"/>
<circle cx="19.5" cy="71.5" r="0.5" fill="#2D4A53" fill-opacity="0.85"/>
<circle cx="32.5" cy="71.5" r="0.5" fill="#2D4A53" fill-opacity="0.85"/>
<circle cx="45.5" cy="71.5" r="0.5" fill="#2D4A53" fill-opacity="0.85"/>
<circle cx="58.5" cy="71.5" r="0.5" fill="#2D4A53" fill-opacity="0.85"/>
<circle cx="71.5" cy="71.5" r="0.5" fill="#2D4A53" fill-opacity="0.85"/>
<circle cx="6.5" cy="58.5" r="0.5" fill="#2D4A53" fill-opacity="0.85"/>
<circle cx="19.5" cy="58.5" r="0.5" fill="#2D4A53" fill-opacity="0.85"/>
<circle cx="32.5" cy="58.5" r="0.5" fill="#2D4A53" fill-opacity="0.85"/>
<circle cx="45.5" cy="58.5" r="0.5" fill="#2D4A53" fill-opacity="0.85"/>
<circle cx="58.5" cy="58.5" r="0.5" fill="#2D4A53" fill-opacity="0.85"/>
<circle cx="71.5" cy="58.5" r="0.5" fill="#2D4A53" fill-opacity="0.85"/>
<circle cx="6.5" cy="45.5" r="0.5" fill="#2D4A53" fill-opacity="0.85"/>
<circle cx="19.5" cy="45.5" r="0.5" fill="#2D4A53" fill-opacity="0.85"/>
<circle cx="32.5" cy="45.5" r="0.5" fill="#2D4A53" fill-opacity="0.85"/>
<circle cx="45.5" cy="45.5" r="0.5" fill="#2D4A53" fill-opacity="0.85"/>
<circle cx="58.5" cy="45.5" r="0.5" fill="#2D4A53" fill-opacity="0.85"/>
<circle cx="71.5" cy="45.5" r="0.5" fill="#2D4A53" fill-opacity="0.85"/>
<circle cx="6.5" cy="32.5" r="0.5" fill="#2D4A53" fill-opacity="0.85"/>
<circle cx="19.5" cy="32.5" r="0.5" fill="#2D4A53" fill-opacity="0.85"/>
<circle cx="32.5" cy="32.5" r="0.5" fill="#2D4A53" fill-opacity="0.85"/>
<circle cx="45.5" cy="32.5" r="0.5" fill="#2D4A53" fill-opacity="0.85"/>
<circle cx="58.5" cy="32.5" r="0.5" fill="#2D4A53" fill-opacity="0.85"/>
<circle cx="71.5" cy="32.5" r="0.5" fill="#2D4A53" fill-opacity="0.85"/>
<circle cx="6.5" cy="19.5" r="0.5" fill="#2D4A53" fill-opacity="0.85"/>
<circle cx="19.5" cy="19.5" r="0.5" fill="#2D4A53" fill-opacity="0.85"/>
<circle cx="32.5" cy="19.5" r="0.5" fill="#2D4A53" fill-opacity="0.85"/>
<circle cx="45.5" cy="19.5" r="0.5" fill="#2D4A53" fill-opacity="0.85"/>
<circle cx="58.5" cy="19.5" r="0.5" fill="#2D4A53" fill-opacity="0.85"/>
<circle cx="71.5" cy="19.5" r="0.5" fill="#2D4A53" fill-opacity="0.85"/>
<circle cx="6.5" cy="6.5" r="0.5" fill="#2D4A53" fill-opacity="0.85"/>
<circle cx="19.5" cy="6.5" r="0.5" fill="#2D4A53" fill-opacity="0.85"/>
<circle cx="32.5" cy="6.5" r="0.5" fill="#2D4A53" fill-opacity="0.85"/>
<circle cx="45.5" cy="6.5" r="0.5" fill="#2D4A53" fill-opacity="0.85"/>
<circle cx="58.5" cy="6.5" r="0.5" fill="#2D4A53" fill-opacity="0.85"/>
<circle cx="71.5" cy="6.5" r="0.5" fill="#2D4A53" fill-opacity="0.85"/>
</svg>
