<svg width="328" height="284" viewBox="0 0 328 284" fill="none" xmlns="http://www.w3.org/2000/svg">
<path fill-rule="evenodd" clip-rule="evenodd" d="M97.1935 5.51456H232.3C235.346 5.51456 237.815 7.98352 237.815 11.0291V17.9234H91.679V11.0291C91.679 7.98351 94.1479 5.51456 97.1935 5.51456ZM91.679 20.6807H237.815V272.971C237.815 276.016 235.346 278.485 232.3 278.485H97.1935C94.1479 278.485 91.679 276.016 91.679 272.971V20.6807ZM86.1644 11.0291C86.1644 4.9379 91.1023 0 97.1935 0H232.3C238.392 0 243.329 4.93791 243.329 11.0291V272.971C243.329 279.062 238.392 284 232.3 284H97.1935C91.1023 284 86.1644 279.062 86.1644 272.971V11.0291ZM327.387 56.2494C327.643 54.7483 326.633 53.3239 325.132 53.0681C323.631 52.8122 322.207 53.8217 321.951 55.3228C317.968 78.6908 305.254 92.8497 290.971 101.155C276.586 109.52 260.572 111.954 250.311 111.623C248.789 111.573 247.516 112.767 247.466 114.289C247.417 115.811 248.611 117.085 250.133 117.134C261.241 117.493 278.315 114.894 293.743 105.922C309.273 96.8915 323.098 81.4096 327.387 56.2494ZM148.203 9.65092C147.441 9.65092 146.824 10.2682 146.824 11.0296C146.824 11.791 147.441 12.4082 148.203 12.4082L181.29 12.4082C182.052 12.4082 182.669 11.791 182.669 11.0296C182.669 10.2682 182.052 9.65092 181.29 9.65092L148.203 9.65092ZM137.143 69.6217C132.365 69.6217 127.293 70.8987 118.493 73.6626C117.403 74.0048 116.242 73.3989 115.9 72.3093C115.558 71.2197 116.164 70.0589 117.254 69.7167C126.012 66.966 131.65 65.4858 137.143 65.4858C142.664 65.4858 147.876 66.9796 155.778 69.7371C156.856 70.1134 157.425 71.2927 157.049 72.371C156.673 73.4493 155.493 74.0184 154.415 73.6421C146.515 70.8852 141.894 69.6217 137.143 69.6217ZM175.017 70.5806C183.817 73.3445 188.889 74.6215 193.667 74.6215C198.418 74.6215 203.039 73.358 210.939 70.601C212.017 70.2247 213.197 70.7938 213.573 71.8722C213.949 72.9505 213.38 74.1297 212.302 74.506C204.4 77.2636 199.188 78.7574 193.667 78.7574C188.174 78.7574 182.536 77.2772 173.778 74.5265C172.688 74.1842 172.082 73.0235 172.424 71.9339C172.766 70.8443 173.927 70.2384 175.017 70.5806ZM2.86765 53.0681C1.3665 53.3239 0.35701 54.7483 0.612885 56.2494C4.90155 81.4096 18.7266 96.8915 34.2568 105.922C49.6847 114.894 66.7584 117.493 77.8665 117.134C79.3885 117.085 80.5825 115.811 80.5334 114.289C80.4843 112.767 79.2107 111.573 77.6887 111.623C67.4278 111.954 51.4141 109.52 37.0289 101.155C22.746 92.8497 10.0322 78.6908 6.04904 55.3228C5.79317 53.8217 4.3688 52.8122 2.86765 53.0681ZM131.455 105.207C131.455 100.833 134.507 97.2832 138.27 97.2832H151.899C155.662 97.2832 158.714 100.833 158.714 105.207V121.056C158.714 125.43 155.662 128.98 151.899 128.98H138.27C134.507 128.98 131.455 125.43 131.455 121.056V105.207ZM149.628 118.414V107.849H140.541V118.414H149.628ZM131.455 147.469C131.455 143.094 134.507 139.545 138.27 139.545H151.899C155.662 139.545 158.714 143.094 158.714 147.469V163.317C158.714 167.692 155.662 171.242 151.899 171.242H138.27C134.507 171.242 131.455 167.692 131.455 163.317V147.469ZM149.628 160.676V150.111H140.541V160.676H149.628ZM167.8 121.056V105.207C167.8 100.833 170.853 97.2832 174.615 97.2832H188.244C192.007 97.2832 195.059 100.833 195.059 105.207V121.056C195.059 125.43 192.007 128.98 188.244 128.98H174.615C170.853 128.98 167.8 125.43 167.8 121.056ZM185.973 107.849H176.887V118.414H185.973V107.849ZM181.43 171.242V165.959H185.973V171.242H181.43ZM190.516 165.959H195.059V171.242H190.516V165.959ZM190.516 144.828V139.545H195.059V144.828V150.111V160.676H181.43V155.393H176.887V171.242H167.8V155.393V139.545H181.43V144.828H190.516Z" fill="#9FB7DB"/>
</svg>
