<svg width="300" height="300" viewBox="0 0 300 300" fill="none" xmlns="http://www.w3.org/2000/svg">
<path d="M300 150C300 232.843 232.843 300 150 300C67.1573 300 0 232.843 0 150C0 67.1573 67.1573 0 150 0C232.843 0 300 67.1573 300 150Z" fill="#ECFAFF"/>
<path d="M264 263.926H192.352V293.363H264V263.926Z" stroke="#17334F" stroke-width="1.2" stroke-linecap="round" stroke-linejoin="round"/>
<path fill-rule="evenodd" clip-rule="evenodd" d="M200.4 285.6L201.452 283.116C200.773 282.265 200.406 281.246 200.4 280.2C200.4 277.216 203.358 274.8 207.005 274.8C210.653 274.8 213.6 277.216 213.6 280.2C213.6 283.185 210.642 285.6 206.994 285.6C205.633 285.607 204.3 285.255 203.16 284.589L200.4 285.6ZM204.717 280.522C204.788 280.427 204.825 280.315 204.825 280.2C204.825 280.046 204.757 279.899 204.635 279.79C204.514 279.682 204.349 279.621 204.177 279.621C204.05 279.621 203.925 279.656 203.819 279.719C203.713 279.783 203.63 279.874 203.582 279.98C203.533 280.086 203.52 280.202 203.545 280.314C203.571 280.426 203.632 280.53 203.723 280.61C203.813 280.691 203.928 280.746 204.054 280.769C204.179 280.791 204.309 280.779 204.427 280.735C204.545 280.691 204.646 280.617 204.717 280.522ZM207.641 280.2C207.641 280.315 207.603 280.427 207.532 280.522C207.461 280.617 207.36 280.692 207.242 280.735C207.124 280.779 206.994 280.791 206.868 280.768C206.743 280.746 206.628 280.691 206.537 280.61C206.447 280.529 206.385 280.426 206.361 280.313C206.336 280.201 206.348 280.084 206.397 279.979C206.446 279.873 206.529 279.782 206.635 279.719C206.742 279.655 206.866 279.621 206.994 279.621C207.166 279.621 207.33 279.682 207.451 279.791C207.572 279.9 207.64 280.047 207.641 280.2ZM210.358 280.522C210.429 280.427 210.467 280.315 210.467 280.2C210.466 280.047 210.398 279.9 210.277 279.791C210.156 279.682 209.992 279.621 209.821 279.621C209.693 279.621 209.568 279.655 209.461 279.719C209.355 279.782 209.272 279.873 209.223 279.979C209.174 280.084 209.162 280.201 209.187 280.313C209.212 280.426 209.274 280.529 209.363 280.61C209.454 280.691 209.569 280.746 209.694 280.768C209.82 280.791 209.95 280.779 210.068 280.735C210.186 280.692 210.287 280.617 210.358 280.522Z" fill="#71CEF8"/>
<path d="M134.817 72.9708C147.5 70.2261 160.685 70.9049 173.018 74.9378C185.352 78.9706 196.391 86.2123 205.002 95.9196" stroke="#17334F" stroke-width="1.2" stroke-linecap="round" stroke-linejoin="round"/>
<path d="M78.498 131.021C80.5914 119.832 85.2646 109.285 92.1466 100.217C99.0286 91.1496 107.93 83.8114 118.144 78.7852" stroke="#17334F" stroke-width="1.2" stroke-linecap="round" stroke-linejoin="round"/>
<path d="M158.072 271.03C155.503 271.3 152.922 271.436 150.34 271.436C139.062 271.442 127.937 268.833 117.838 263.814C107.739 258.797 98.9399 251.506 92.1323 242.516" stroke="#17334F" stroke-width="1.2" stroke-linecap="round" stroke-linejoin="round"/>
<path d="M222.846 207.417C221.158 220.847 215.778 233.545 207.306 244.101C198.835 254.658 187.602 262.658 174.857 267.213" stroke="#17334F" stroke-width="1.2" stroke-linecap="round" stroke-linejoin="round"/>
<path fill-rule="evenodd" clip-rule="evenodd" d="M141.686 233.922C141.554 235.295 140.913 236.568 139.89 237.492C138.867 238.417 137.535 238.926 136.157 238.919H72.6862C71.1676 238.912 69.7114 238.314 68.6255 237.253C67.5396 236.191 66.9092 234.749 66.8674 233.231L64.6402 136.708C64.6191 135.966 64.7474 135.228 65.0175 134.537C65.2876 133.846 65.6939 133.217 66.2123 132.686C66.7307 132.156 67.3505 131.735 68.035 131.449C68.7194 131.163 69.4544 131.017 70.1962 131.021H65.803C62.5834 131.021 60.6082 134.605 60.8506 138.993C60.8986 139.863 63.1486 236.553 63.1486 236.553C63.1751 238.128 63.8129 239.631 64.9271 240.744C66.0413 241.858 67.5447 242.495 69.1198 242.52H134.177C137.4 242.52 142.345 244.401 141.686 233.922Z" fill="#71CEF8"/>
<path d="M141.638 230.003H66.7927L66.8671 233.231C66.9089 234.749 67.5394 236.191 68.6252 237.252C69.7111 238.314 71.1673 238.912 72.6859 238.919H136.156C136.898 238.923 137.633 238.776 138.317 238.491C139.001 238.204 139.621 237.783 140.139 237.252C140.658 236.722 141.064 236.092 141.334 235.402C141.605 234.711 141.733 233.973 141.712 233.231L141.638 230.003Z" stroke="#17334F" stroke-width="1.2" stroke-linecap="round" stroke-linejoin="round"/>
<path d="M64.6592 137.537H139.503L139.484 136.708C139.442 135.19 138.812 133.748 137.726 132.687C136.64 131.625 135.184 131.028 133.665 131.021H70.1996C69.4578 131.017 68.7228 131.163 68.0384 131.449C67.3539 131.735 66.7341 132.156 66.2157 132.686C65.6973 133.217 65.291 133.846 65.0209 134.537C64.7508 135.228 64.6225 135.966 64.6436 136.708L64.6592 137.537Z" stroke="#17334F" stroke-width="1.2" stroke-linecap="round" stroke-linejoin="round"/>
<path d="M64.6594 137.538H139.503L141.638 230.003H66.793L64.6594 137.538Z" stroke="#17334F" stroke-width="1.2" stroke-linecap="round" stroke-linejoin="round"/>
<path d="M70.1998 131.021H65.803C62.5834 131.021 60.6082 134.605 60.8506 138.993C60.8578 139.113 60.9298 141.393 63.1486 236.552C63.1751 238.128 63.8129 239.63 64.9271 240.744C66.0413 241.858 67.5447 242.495 69.1198 242.52H134.177C137.396 242.52 142.345 244.403 141.686 233.924" stroke="#17334F" stroke-width="1.2" stroke-linecap="round" stroke-linejoin="round"/>
<path d="M90.1904 159.992H79.0508L79.2908 170.559" stroke="#17334F" stroke-width="1.2" stroke-linecap="round" stroke-linejoin="round"/>
<path d="M115.008 159.992H126.147L126.387 170.559" stroke="#17334F" stroke-width="1.2" stroke-linecap="round" stroke-linejoin="round"/>
<path d="M91.2883 207.55H80.1487L79.9087 196.982" stroke="#17334F" stroke-width="1.2" stroke-linecap="round" stroke-linejoin="round"/>
<path d="M116.106 207.55H127.245L127.005 196.982" stroke="#17334F" stroke-width="1.2" stroke-linecap="round" stroke-linejoin="round"/>
<path fill-rule="evenodd" clip-rule="evenodd" d="M96.8708 176.627H110.486L110.8 190.242H97.1852L96.8708 176.627Z" fill="#17334F"/>
<path fill-rule="evenodd" clip-rule="evenodd" d="M85.1216 181.663H91.0616L91.1984 187.604H85.2584L85.1216 181.663Z" fill="#17334F"/>
<path fill-rule="evenodd" clip-rule="evenodd" d="M100.447 165.275H106.387L106.524 171.215H100.584L100.447 165.275Z" fill="#17334F"/>
<path fill-rule="evenodd" clip-rule="evenodd" d="M115.11 180.464H121.051L121.188 186.404H115.248L115.11 180.464Z" fill="#17334F"/>
<path fill-rule="evenodd" clip-rule="evenodd" d="M100.468 196.326H106.408L106.545 202.266H100.605L100.468 196.326Z" fill="#17334F"/>
<path fill-rule="evenodd" clip-rule="evenodd" d="M84.7424 165.273H92.5616L92.7416 173.093H84.9236L84.7424 165.273Z" fill="#17334F"/>
<path fill-rule="evenodd" clip-rule="evenodd" d="M85.4158 194.447H93.235L93.4162 202.266H85.597L85.4158 194.447Z" fill="#17334F"/>
<path fill-rule="evenodd" clip-rule="evenodd" d="M112.881 165.273H120.699L120.881 173.093H113.061L112.881 165.273Z" fill="#17334F"/>
<path fill-rule="evenodd" clip-rule="evenodd" d="M113.554 194.447H121.373L121.553 202.266H113.734L113.554 194.447Z" fill="#17334F"/>
<path d="M96.8708 176.627H110.486L110.8 190.242H97.1852L96.8708 176.627Z" stroke="#17334F" stroke-width="1.2" stroke-linecap="round" stroke-linejoin="round"/>
<path d="M85.1216 181.663H91.0616L91.1984 187.604H85.2584L85.1216 181.663Z" stroke="#17334F" stroke-width="1.2" stroke-linecap="round" stroke-linejoin="round"/>
<path d="M100.447 165.275H106.387L106.524 171.215H100.584L100.447 165.275Z" stroke="#17334F" stroke-width="1.2" stroke-linecap="round" stroke-linejoin="round"/>
<path d="M115.11 180.464H121.051L121.188 186.404H115.248L115.11 180.464Z" stroke="#17334F" stroke-width="1.2" stroke-linecap="round" stroke-linejoin="round"/>
<path d="M100.468 196.326H106.408L106.545 202.266H100.605L100.468 196.326Z" stroke="#17334F" stroke-width="1.2" stroke-linecap="round" stroke-linejoin="round"/>
<path d="M84.7424 165.273H92.5616L92.7416 173.093H84.9236L84.7424 165.273Z" stroke="#17334F" stroke-width="1.2" stroke-linecap="round" stroke-linejoin="round"/>
<path d="M85.4158 194.447H93.235L93.4162 202.266H85.597L85.4158 194.447Z" stroke="#17334F" stroke-width="1.2" stroke-linecap="round" stroke-linejoin="round"/>
<path d="M112.881 165.273H120.699L120.881 173.093H113.061L112.881 165.273Z" stroke="#17334F" stroke-width="1.2" stroke-linecap="round" stroke-linejoin="round"/>
<path d="M113.554 194.447H121.373L121.553 202.266H113.734L113.554 194.447Z" stroke="#17334F" stroke-width="1.2" stroke-linecap="round" stroke-linejoin="round"/>
<path fill-rule="evenodd" clip-rule="evenodd" d="M111.12 233.922C111.109 233.526 110.944 233.149 110.66 232.872C110.377 232.594 109.997 232.438 109.601 232.436H98.9481C98.7543 232.435 98.5622 232.473 98.3833 232.548C98.2045 232.622 98.0425 232.732 97.9071 232.87C97.7718 233.01 97.6658 233.174 97.5956 233.355C97.5254 233.535 97.4924 233.728 97.4985 233.922C97.5091 234.318 97.6735 234.694 97.9568 234.972C98.2401 235.249 98.6202 235.405 99.0165 235.406H109.663C109.857 235.408 110.05 235.371 110.23 235.298C110.409 235.224 110.572 235.113 110.708 234.975C110.844 234.836 110.951 234.672 111.022 234.49C111.092 234.309 111.126 234.116 111.12 233.922Z" fill="#17334F"/>
<path d="M111.12 233.922C111.109 233.526 110.944 233.149 110.66 232.872C110.377 232.594 109.997 232.438 109.601 232.436H98.9481C98.7543 232.435 98.5622 232.473 98.3833 232.548C98.2045 232.622 98.0425 232.732 97.9071 232.87C97.7718 233.01 97.6658 233.174 97.5956 233.355C97.5254 233.535 97.4924 233.728 97.4985 233.922C97.5091 234.318 97.6735 234.694 97.9568 234.972C98.2401 235.249 98.6202 235.405 99.0165 235.406H109.663C109.857 235.408 110.05 235.371 110.23 235.298C110.409 235.224 110.572 235.113 110.708 234.975C110.844 234.836 110.951 234.672 111.022 234.49C111.092 234.309 111.126 234.116 111.12 233.922Z" stroke="#17334F" stroke-width="1.2" stroke-linecap="round" stroke-linejoin="round"/>
<path d="M103.081 135.614C103.651 135.038 103.635 134.098 103.044 133.514C102.454 132.931 101.514 132.926 100.944 133.502C100.374 134.078 100.391 135.019 100.981 135.602C101.571 136.185 102.511 136.191 103.081 135.614Z" stroke="#17334F" stroke-width="1.2" stroke-linecap="round" stroke-linejoin="round"/>
<path fill-rule="evenodd" clip-rule="evenodd" d="M235.44 95.9205H231.048C231.789 95.9171 232.525 96.0629 233.209 96.3492C233.893 96.6355 234.512 97.0565 235.031 97.5871C235.549 98.1178 235.956 98.7472 236.226 99.438C236.496 100.129 236.624 100.867 236.604 101.608L234.375 198.131C234.333 199.649 233.703 201.091 232.617 202.153C231.531 203.213 230.076 203.811 228.558 203.818H165.092C163.713 203.825 162.381 203.317 161.359 202.393C160.335 201.469 159.695 200.195 159.561 198.823C158.904 209.301 163.853 207.418 167.072 207.418H232.131C233.707 207.392 235.211 206.755 236.324 205.64C237.438 204.525 238.074 203.021 238.099 201.446C238.099 201.446 240.349 104.762 240.397 103.892C240.639 99.5049 238.664 95.9205 235.44 95.9205Z" fill="#71CEF8"/>
<path d="M159.61 194.903H234.454L234.38 198.131C234.338 199.649 233.708 201.091 232.622 202.153C231.536 203.213 230.08 203.811 228.562 203.818H165.092C164.35 203.822 163.615 203.677 162.931 203.39C162.247 203.104 161.626 202.683 161.108 202.153C160.59 201.622 160.184 200.992 159.914 200.302C159.644 199.611 159.516 198.873 159.536 198.131L159.61 194.903Z" stroke="#17334F" stroke-width="1.2" stroke-linecap="round" stroke-linejoin="round"/>
<path d="M236.59 102.438H161.744L161.764 101.608C161.806 100.09 162.437 98.6484 163.522 97.587C164.608 96.5256 166.064 95.9279 167.582 95.9205H231.053C231.794 95.9171 232.529 96.0629 233.214 96.3492C233.898 96.6355 234.517 97.0565 235.036 97.5871C235.554 98.1178 235.961 98.7472 236.231 99.438C236.501 100.129 236.629 100.867 236.609 101.608L236.59 102.438Z" stroke="#17334F" stroke-width="1.2" stroke-linecap="round" stroke-linejoin="round"/>
<path d="M236.589 102.438H161.744L159.611 194.903H234.455L236.589 102.438Z" stroke="#17334F" stroke-width="1.2" stroke-linecap="round" stroke-linejoin="round"/>
<path d="M231.053 95.9204H235.445C238.664 95.9204 240.641 99.5048 240.397 103.892C240.397 104.012 240.319 106.292 238.099 201.446C238.074 203.021 237.437 204.525 236.323 205.64C235.209 206.753 233.707 207.392 232.131 207.418H167.072C163.853 207.418 158.904 209.301 159.561 198.823" stroke="#17334F" stroke-width="1.2" stroke-linecap="round" stroke-linejoin="round"/>
<path d="M211.057 124.89H222.196L221.956 135.459" stroke="#17334F" stroke-width="1.2" stroke-linecap="round" stroke-linejoin="round"/>
<path d="M186.24 124.89H175.1L174.86 135.459" stroke="#17334F" stroke-width="1.2" stroke-linecap="round" stroke-linejoin="round"/>
<path d="M209.959 172.451H221.099L221.339 161.883" stroke="#17334F" stroke-width="1.2" stroke-linecap="round" stroke-linejoin="round"/>
<path d="M185.143 172.451H174L174.24 161.883" stroke="#17334F" stroke-width="1.2" stroke-linecap="round" stroke-linejoin="round"/>
<path fill-rule="evenodd" clip-rule="evenodd" d="M204.377 141.527H190.761L190.447 155.143H204.062L204.377 141.527Z" fill="#17334F"/>
<path fill-rule="evenodd" clip-rule="evenodd" d="M216.127 146.564H210.187L210.049 152.505H215.99L216.127 146.564Z" fill="#17334F"/>
<path fill-rule="evenodd" clip-rule="evenodd" d="M200.802 130.175H194.861L194.724 136.115H200.664L200.802 130.175Z" fill="#17334F"/>
<path fill-rule="evenodd" clip-rule="evenodd" d="M186.138 145.365H180.198L180.061 151.305H186.001L186.138 145.365Z" fill="#17334F"/>
<path fill-rule="evenodd" clip-rule="evenodd" d="M200.78 161.226H194.84L194.702 167.166H200.643L200.78 161.226Z" fill="#17334F"/>
<path fill-rule="evenodd" clip-rule="evenodd" d="M216.505 130.175H208.686L208.506 137.993H216.325L216.505 130.175Z" fill="#17334F"/>
<path fill-rule="evenodd" clip-rule="evenodd" d="M215.832 159.347H208.013L207.833 167.166H215.652L215.832 159.347Z" fill="#17334F"/>
<path fill-rule="evenodd" clip-rule="evenodd" d="M188.367 130.175H180.548L180.368 137.993H188.186L188.367 130.175Z" fill="#17334F"/>
<path fill-rule="evenodd" clip-rule="evenodd" d="M187.694 159.347H179.875L179.694 167.166H187.513L187.694 159.347Z" fill="#17334F"/>
<path d="M204.377 141.527H190.761L190.447 155.143H204.062L204.377 141.527Z" stroke="#17334F" stroke-width="1.2" stroke-linecap="round" stroke-linejoin="round"/>
<path d="M216.127 146.564H210.187L210.049 152.505H215.99L216.127 146.564Z" stroke="#17334F" stroke-width="1.2" stroke-linecap="round" stroke-linejoin="round"/>
<path d="M200.802 130.175H194.861L194.724 136.115H200.664L200.802 130.175Z" stroke="#17334F" stroke-width="1.2" stroke-linecap="round" stroke-linejoin="round"/>
<path d="M186.138 145.365H180.198L180.061 151.305H186.001L186.138 145.365Z" stroke="#17334F" stroke-width="1.2" stroke-linecap="round" stroke-linejoin="round"/>
<path d="M200.78 161.226H194.84L194.702 167.166H200.643L200.78 161.226Z" stroke="#17334F" stroke-width="1.2" stroke-linecap="round" stroke-linejoin="round"/>
<path d="M216.505 130.175H208.686L208.506 137.993H216.325L216.505 130.175Z" stroke="#17334F" stroke-width="1.2" stroke-linecap="round" stroke-linejoin="round"/>
<path d="M215.832 159.347H208.013L207.833 167.166H215.652L215.832 159.347Z" stroke="#17334F" stroke-width="1.2" stroke-linecap="round" stroke-linejoin="round"/>
<path d="M188.367 130.175H180.548L180.368 137.993H188.186L188.367 130.175Z" stroke="#17334F" stroke-width="1.2" stroke-linecap="round" stroke-linejoin="round"/>
<path d="M187.694 159.347H179.875L179.694 167.166H187.513L187.694 159.347Z" stroke="#17334F" stroke-width="1.2" stroke-linecap="round" stroke-linejoin="round"/>
<path fill-rule="evenodd" clip-rule="evenodd" d="M190.135 198.823C190.146 198.427 190.31 198.05 190.594 197.773C190.878 197.495 191.258 197.339 191.654 197.337H202.3C202.494 197.336 202.686 197.373 202.865 197.447C203.044 197.523 203.206 197.632 203.341 197.771C203.477 197.909 203.582 198.075 203.653 198.255C203.724 198.436 203.756 198.629 203.75 198.823C203.74 199.219 203.574 199.595 203.291 199.873C203.008 200.15 202.627 200.306 202.231 200.307H191.585C191.392 200.308 191.2 200.271 191.021 200.197C190.842 200.122 190.68 200.012 190.544 199.874C190.409 199.735 190.303 199.57 190.232 199.39C190.163 199.209 190.129 199.017 190.135 198.823Z" fill="#17334F"/>
<path d="M190.135 198.823C190.146 198.427 190.31 198.05 190.594 197.773C190.878 197.495 191.258 197.339 191.654 197.337H202.3C202.494 197.336 202.686 197.373 202.865 197.447C203.044 197.523 203.206 197.632 203.341 197.771C203.477 197.909 203.582 198.075 203.653 198.255C203.724 198.436 203.756 198.629 203.75 198.823C203.74 199.219 203.574 199.595 203.291 199.873C203.008 200.15 202.627 200.306 202.231 200.307H191.585C191.392 200.308 191.2 200.271 191.021 200.197C190.842 200.122 190.68 200.012 190.544 199.874C190.409 199.735 190.303 199.57 190.232 199.39C190.163 199.209 190.129 199.017 190.135 198.823Z" stroke="#17334F" stroke-width="1.2" stroke-linecap="round" stroke-linejoin="round"/>
<path d="M200.269 100.503C200.859 99.9199 200.875 98.9798 200.305 98.4033C199.736 97.8268 198.795 97.8325 198.205 98.4158C197.616 98.9991 197.599 99.9393 198.169 100.516C198.739 101.092 199.678 101.087 200.269 100.503Z" stroke="#17334F" stroke-width="1.2" stroke-linecap="round" stroke-linejoin="round"/>
<path d="M80.4561 120.939C88.1599 120.939 94.4049 114.616 94.4049 106.815C94.4049 99.0149 88.1599 92.6914 80.4561 92.6914C72.7524 92.6914 66.5073 99.0149 66.5073 106.815C66.5073 114.616 72.7524 120.939 80.4561 120.939Z" fill="#71CEF8"/>
<path d="M83.39 102.59C79.686 100.782 75.5353 103.358 76.1309 107.152L74.3999 108.721L76.7824 108.903C78.8856 112.389 84.2276 112.536 85.9772 109.104C86.5123 107.904 86.5404 106.544 86.0556 105.323C85.5707 104.102 84.6122 103.12 83.39 102.59Z" stroke="#17334F" stroke-width="1.08" stroke-linecap="round" stroke-linejoin="round"/>
<path d="M80.4561 120.939C88.1599 120.939 94.4049 114.616 94.4049 106.815C94.4049 99.0149 88.1599 92.6914 80.4561 92.6914C72.7524 92.6914 66.5073 99.0149 66.5073 106.815C66.5073 114.616 72.7524 120.939 80.4561 120.939Z" stroke="#17334F" stroke-width="1.2" stroke-linecap="round" stroke-linejoin="round"/>
<path d="M206.303 252.728C214.007 252.728 220.252 246.404 220.252 238.604C220.252 230.804 214.007 224.48 206.303 224.48C198.599 224.48 192.354 230.804 192.354 238.604C192.354 246.404 198.599 252.728 206.303 252.728Z" fill="#71CEF8"/>
<path d="M209.39 234.59C205.686 232.783 201.535 235.359 202.131 239.153L200.4 240.721L202.782 240.904C204.886 244.39 210.228 244.537 211.977 241.105C212.512 239.904 212.54 238.545 212.056 237.324C211.571 236.103 210.612 235.12 209.39 234.59Z" stroke="#17334F" stroke-width="1.08" stroke-linecap="round" stroke-linejoin="round"/>
<path d="M206.303 252.728C214.007 252.728 220.252 246.404 220.252 238.604C220.252 230.804 214.007 224.48 206.303 224.48C198.599 224.48 192.354 230.804 192.354 238.604C192.354 246.404 198.599 252.728 206.303 252.728Z" stroke="#17334F" stroke-width="1.2" stroke-linecap="round" stroke-linejoin="round"/>
<path d="M126.376 84.5C131.248 84.5 135.197 80.5011 135.197 75.5684C135.197 70.6355 131.248 66.6367 126.376 66.6367C121.504 66.6367 117.554 70.6355 117.554 75.5684C117.554 80.5011 121.504 84.5 126.376 84.5Z" stroke="#17334F" stroke-width="1.2" stroke-linecap="round" stroke-linejoin="round"/>
<path d="M130.683 74.2099C129.051 76.175 127.182 77.9485 125.112 79.495C125.064 79.541 125.005 79.575 124.94 79.5941C124.875 79.6132 124.806 79.6169 124.738 79.6049C124.67 79.5929 124.606 79.5654 124.552 79.525C124.497 79.4845 124.453 79.4322 124.423 79.3726L123.549 77.6744C124.943 77.0796 126.22 76.135 127.532 75.1924C126.088 75.8199 124.582 76.3151 123.034 76.6712L122.096 74.8447C122.065 74.7857 122.05 74.721 122.051 74.6559C122.052 74.5909 122.07 74.5274 122.103 74.4709C122.135 74.4143 122.182 74.3664 122.238 74.3311C122.295 74.2958 122.36 74.2741 122.428 74.2679L130.325 73.5102C130.414 73.5006 130.504 73.5178 130.583 73.5596C130.662 73.6014 130.726 73.6655 130.766 73.7429C130.806 73.8203 130.819 73.907 130.804 73.9908C130.789 74.0746 130.747 74.1513 130.683 74.2099Z" stroke="#17334F" stroke-width="0.6" stroke-linecap="round" stroke-linejoin="round"/>
<path d="M166.035 276.115C170.907 276.115 174.857 272.117 174.857 267.184C174.857 262.25 170.907 258.252 166.035 258.252C161.163 258.252 157.214 262.25 157.214 267.184C157.214 272.117 161.163 276.115 166.035 276.115Z" stroke="#17334F" stroke-width="1.2" stroke-linecap="round" stroke-linejoin="round"/>
<path d="M161.356 270.016C163.889 270.352 166.465 270.387 169.035 270.119C169.102 270.12 169.168 270.106 169.229 270.075C169.289 270.045 169.343 270.001 169.384 269.946C169.426 269.892 169.454 269.828 169.467 269.761C169.48 269.694 169.477 269.626 169.458 269.562L168.949 267.721C167.521 268.23 165.942 268.402 164.338 268.6C165.825 268.081 167.267 267.424 168.646 266.635L168.097 264.656C168.079 264.592 168.046 264.535 168.001 264.488C167.956 264.441 167.9 264.406 167.838 264.386C167.776 264.367 167.709 264.363 167.644 264.376C167.578 264.388 167.516 264.416 167.462 264.458L161.145 269.258C161.073 269.311 161.019 269.385 160.989 269.47C160.959 269.554 160.956 269.645 160.979 269.728C161.002 269.812 161.051 269.885 161.119 269.937C161.187 269.988 161.27 270.016 161.356 270.016Z" stroke="#17334F" stroke-width="0.6" stroke-linecap="round" stroke-linejoin="round"/>
<path fill-rule="evenodd" clip-rule="evenodd" d="M42.3024 278.375V281.64H97.0128V259.16H93.75V255.897H90.7104V275.207H39.0408V278.375H42.3024Z" fill="#71CEF8"/>
<path d="M90.7102 252.729H35.9998V275.207H90.7102V252.729Z" stroke="#17334F" stroke-width="1.2" stroke-linecap="round" stroke-linejoin="round"/>
<path fill-rule="evenodd" clip-rule="evenodd" d="M39.6001 270L40.6517 267.516C39.9736 266.665 39.6062 265.646 39.6001 264.6C39.6001 261.615 42.5578 259.2 46.2056 259.2C49.8534 259.2 52.8001 261.615 52.8001 264.6C52.8001 267.585 49.8424 270 46.1946 270C44.8337 270.007 43.5006 269.655 42.3606 268.989L39.6001 270ZM43.9169 264.922C43.9878 264.827 44.0257 264.715 44.0257 264.6C44.0254 264.446 43.9569 264.299 43.8354 264.19C43.7139 264.082 43.5492 264.021 43.3776 264.021C43.2499 264.021 43.1251 264.055 43.019 264.119C42.913 264.183 42.8304 264.274 42.7818 264.38C42.7331 264.485 42.7205 264.602 42.7457 264.714C42.7708 264.826 42.8325 264.929 42.923 265.01C43.0134 265.091 43.1286 265.146 43.2539 265.168C43.3792 265.191 43.5091 265.179 43.6271 265.135C43.7451 265.091 43.8459 265.017 43.9169 264.922ZM46.8409 264.6C46.8409 264.715 46.8029 264.827 46.732 264.922C46.661 265.017 46.5601 265.091 46.442 265.135C46.3238 265.179 46.194 265.191 46.0684 265.168C45.9431 265.146 45.828 265.091 45.7376 265.01C45.6472 264.929 45.5857 264.826 45.5607 264.713C45.5358 264.601 45.5486 264.484 45.5975 264.378C45.6464 264.273 45.7292 264.182 45.8355 264.118C45.9418 264.055 46.0666 264.021 46.1946 264.021C46.3659 264.021 46.5302 264.082 46.6512 264.191C46.7723 264.299 46.8404 264.447 46.8409 264.6ZM49.5582 264.922C49.6291 264.827 49.6672 264.715 49.6672 264.6C49.6666 264.447 49.5985 264.299 49.4775 264.191C49.3564 264.082 49.1921 264.021 49.0208 264.021C48.8929 264.021 48.7683 264.055 48.6617 264.118C48.5556 264.182 48.4726 264.273 48.4235 264.378C48.3745 264.484 48.3619 264.601 48.3872 264.713C48.412 264.826 48.4737 264.929 48.5636 265.01C48.6542 265.091 48.7695 265.146 48.8946 265.168C49.0203 265.191 49.15 265.179 49.2682 265.135C49.3864 265.091 49.4873 265.017 49.5582 264.922Z" fill="#71CEF8"/>
<path d="M39.0408 275.207V278.375H93.75V255.897H90.7104" stroke="#17334F" stroke-width="1.2" stroke-linecap="round" stroke-linejoin="round"/>
<path d="M42.3025 278.376V281.641H97.0129V259.161H93.7501" stroke="#17334F" stroke-width="1.2" stroke-linecap="round" stroke-linejoin="round"/>
</svg>
