<svg width="45" height="56" viewBox="0 0 45 56" fill="none" xmlns="http://www.w3.org/2000/svg">
<g clip-path="url(#clip0_1209_13804)">
<g clip-path="url(#clip1_1209_13804)">
<path d="M43.3058 2.07101C43.3058 2.07101 42.5057 1.30371 41.4687 1.30371C40.4326 1.30371 26.0414 1.30838 26.0195 1.30838C18.955 1.30838 12.2098 5.47115 9.22774 12.5539C8.00299 15.4618 7.55754 18.5133 7.7925 21.465C5.53805 23.3091 3.67915 25.7322 2.45439 28.6401C-1.5256 38.0909 2.70388 49.068 11.9004 53.158C21.097 57.2481 31.7787 52.9016 35.7587 43.4508C36.9833 40.5429 37.4288 37.4914 37.1939 34.5397C39.4483 32.6956 41.3073 30.2716 42.5319 27.3646C43.5399 24.9705 44.0216 22.4784 44.0289 20.0255C44.0289 20.0255 44.0425 5.26511 44.0425 3.97852C44.0425 2.69193 43.3058 2.07101 43.3058 2.07101ZM33.761 42.5614C30.259 50.8785 20.8593 54.7029 12.7659 51.1041C4.67256 47.5054 0.951123 37.8457 4.45302 29.5286C5.35026 27.3991 6.63398 25.5644 8.18353 24.0736C9.42098 29.6759 13.1515 34.6161 18.6747 37.0729C24.1979 39.5295 30.2563 38.9412 35.0774 36.0342C35.0791 38.214 34.6572 40.432 33.761 42.5614ZM10.1032 22.4915C14.4761 19.4297 20.2333 18.6662 25.448 20.9849C30.6628 23.3044 34.0621 28.1394 34.884 33.5114C30.5113 36.5731 24.754 37.3367 19.5392 35.018C14.3236 32.6984 10.9252 27.8625 10.1032 22.4915ZM40.5342 26.4752C39.638 28.6046 38.3533 30.4394 36.8037 31.9302C35.5663 26.328 31.8358 21.3876 26.3126 18.9319C20.7894 16.4753 14.7309 17.0636 9.91 19.9705C9.90723 17.7888 10.3291 15.5709 11.2264 13.4415C13.8818 7.13627 19.9266 3.41261 26.2228 3.54872C28.2305 3.59254 38.8614 3.27556 40.6023 4.26381C42.1845 5.16256 41.5558 13.1366 41.8343 19.1957C41.945 21.617 41.534 24.1006 40.5342 26.4752Z" fill="#FEFEFE" stroke="#FEFEFE" stroke-width="0.921981" stroke-miterlimit="10"/>
<path d="M20.3303 28.0843C20.3303 29.3867 19.3024 30.443 18.035 30.443C16.7677 30.443 15.7397 29.3867 15.7397 28.0843C15.7397 26.7818 16.7677 25.7256 18.035 25.7256C19.3034 25.7256 20.3303 26.7809 20.3303 28.0843Z" fill="#FEFEFE"/>
<path d="M29.0761 29.4856C29.0761 31.5218 27.4694 33.173 25.488 33.173C23.5066 33.173 21.8999 31.5218 21.8999 29.4856C21.8999 27.4495 23.5066 25.7983 25.488 25.7983C27.4694 25.7975 29.0761 27.4486 29.0761 29.4856Z" fill="#FEFEFE"/>
</g>
</g>
<defs>
<clipPath id="clip0_1209_13804">
<rect width="45" height="56" fill="white"/>
</clipPath>
<clipPath id="clip1_1209_13804">
<rect width="45" height="56" fill="white"/>
</clipPath>
</defs>
</svg>
