<svg width="256" height="256" viewBox="0 0 256 256" fill="none" xmlns="http://www.w3.org/2000/svg">
<rect width="256" height="256" rx="128" fill="#154576"/>
<rect width="256" height="256" rx="128" fill="url(#paint0_linear_1905_41068)"/>
<path fill-rule="evenodd" clip-rule="evenodd" d="M197.602 40.2995C197.093 39.8262 194.061 37.1738 189.983 37.1738C186.968 37.1738 150.008 37.1859 140.663 37.189L138.529 37.1896C113.231 37.1896 90.4621 52.3761 80.5225 75.8789C76.6044 85.1429 74.8676 95.292 75.4762 105.311C67.9222 111.715 61.8802 119.958 57.9621 129.222C51.311 144.949 51.0433 162.385 57.2082 178.317C63.3732 194.249 75.2332 206.772 90.6032 213.577C98.533 217.088 106.901 218.869 115.474 218.869C140.504 218.869 163.105 203.682 173.045 180.179C176.963 170.915 178.7 160.766 178.091 150.747C185.646 144.343 191.687 136.099 195.605 126.835C199.011 118.782 200.751 110.286 200.777 101.577L200.78 98.1573C200.79 86.9563 200.822 51.9173 200.822 48.3624C200.822 43.3953 198.143 40.7778 197.602 40.2995ZM166.284 158.641C165.862 164.397 164.503 170.015 162.23 175.39C154.158 194.477 135.806 206.81 115.478 206.81C108.519 206.81 101.725 205.364 95.2833 202.512C82.802 196.985 73.1713 186.816 68.1648 173.878C63.1583 160.94 63.3759 146.782 68.777 134.011C71.0501 128.636 74.1231 123.777 77.9357 119.52C80.2986 127.674 84.2475 135.354 89.4831 141.929C95.7737 149.83 103.962 156.16 113.164 160.234C121.092 163.745 129.458 165.524 138.027 165.524C147.835 165.524 157.524 163.155 166.284 158.641ZM138.034 153.465C131.077 153.465 124.284 152.02 117.844 149.168C102.177 142.231 91.109 127.978 88.0007 110.856C96.2475 105.445 105.736 102.592 115.534 102.592C122.491 102.592 129.284 104.038 135.724 106.89C151.391 113.827 162.459 128.079 165.567 145.201C157.32 150.612 147.832 153.465 138.034 153.465ZM87.2833 97.416C87.7061 91.659 89.0646 86.0417 91.3374 80.6673C99.4093 61.5807 118.453 50.1399 138.076 50.1459C138.182 50.146 138.148 50.1454 138.099 50.1447C137.983 50.1429 137.785 50.1399 139.143 50.1399H141.077H145.909H154.868H187.94V60.1588C187.94 61.707 187.938 63.481 187.936 65.4122V65.4254C187.932 69.8636 187.928 75.1306 187.94 80.3941C187.949 84.5985 187.946 89.0676 187.943 93.2326V93.2563C187.941 95.2205 187.94 97.1168 187.94 98.8856C187.94 106.326 187.908 114.675 184.79 122.047C182.517 127.422 179.444 132.281 175.631 136.538C173.268 128.384 169.319 120.704 164.084 114.129C157.793 106.228 149.604 99.8984 140.403 95.8241C132.475 92.3135 124.109 90.5336 115.539 90.5336C105.732 90.533 96.0441 92.9025 87.2833 97.416ZM114.23 132.258C117.729 132.258 120.566 129.356 120.566 125.775C120.566 122.195 117.729 119.292 114.23 119.292C110.731 119.292 107.894 122.195 107.894 125.775C107.894 129.356 110.731 132.258 114.23 132.258ZM145.306 128.176C145.306 132.95 141.523 136.82 136.858 136.82C132.192 136.82 128.41 132.95 128.41 128.176C128.41 123.402 132.192 119.532 136.858 119.532C141.523 119.532 145.306 123.402 145.306 128.176Z" fill="white"/>
<defs>
<linearGradient id="paint0_linear_1905_41068" x1="128" y1="0" x2="128" y2="256" gradientUnits="userSpaceOnUse">
<stop stop-color="#046EAA" stop-opacity="0"/>
<stop offset="1" stop-color="#046EAA"/>
</linearGradient>
</defs>
</svg>
