<svg width="561" height="661" viewBox="0 0 561 661" fill="none" xmlns="http://www.w3.org/2000/svg">
<g filter="url(#filter0_d_301_87)">
<path fill-rule="evenodd" clip-rule="evenodd" d="M495.507 11.1147C493.77 9.53514 483.417 0.684204 469.493 0.684204C459.198 0.684204 333.001 0.72444 301.094 0.734757L293.806 0.736821C207.429 0.736821 129.687 51.4139 95.7489 129.843C82.3708 160.756 76.4406 194.624 78.5185 228.056C52.726 249.426 32.0962 276.933 18.7181 307.849C-3.99162 360.328 -4.9057 418.511 16.144 471.676C37.1938 524.843 77.689 566.63 130.168 589.339C157.244 601.056 185.815 606.999 215.087 607H215.096C300.56 607 377.719 556.32 411.659 477.889C425.037 446.976 430.967 413.109 428.889 379.676C454.683 358.305 475.312 330.797 488.69 299.882C500.319 273.009 506.261 244.658 506.349 215.598L506.36 204.097C506.394 166.624 506.5 49.8737 506.5 38.0203C506.501 21.4451 497.356 12.7107 495.507 11.1147ZM388.576 406.019C387.132 425.227 382.493 443.975 374.734 461.91C347.171 525.602 284.512 566.758 215.1 566.758C191.342 566.758 168.143 561.931 146.148 552.414C103.532 533.972 70.6487 500.039 53.5545 456.865C36.4602 413.692 37.2031 366.445 55.6447 323.829C63.4061 305.893 73.8985 289.676 86.9165 275.473C94.9844 302.683 108.468 328.309 126.344 350.251C147.823 376.617 175.782 397.738 207.199 411.334C234.27 423.049 262.833 428.989 292.094 428.989C325.582 428.987 358.663 421.081 388.576 406.019ZM292.116 388.747C268.363 388.747 245.17 383.923 223.18 374.408C169.688 351.258 131.895 303.698 121.282 246.562C149.441 228.505 181.838 218.984 215.294 218.984C239.047 218.984 262.24 223.81 284.231 233.325C337.722 256.473 375.515 304.033 386.128 361.17C357.968 379.227 325.571 388.747 292.116 388.747ZM118.833 201.712C120.276 182.5 124.915 163.755 132.675 145.821C160.236 82.1296 223.087 41 292.5 41H298.01H305.495H319C324.951 40.9581 331.385 40.9711 338.271 40.9851H338.274C341.892 40.9924 345.636 41 349.5 41C426.665 41 449 41.0707 455.892 47.9628C463.167 55.2373 465 58.4357 465 78C465 83.9983 464.994 90.3727 464.988 97.0815V97.09C464.975 111.63 464.96 127.74 465 145V207C465 233.5 462.406 259.304 451.761 283.904C444 301.84 433.507 318.056 420.488 332.261C412.42 305.051 398.937 279.424 381.062 257.482C359.583 231.117 331.623 209.995 300.207 196.399C273.136 184.685 244.572 178.745 215.31 178.745C181.826 178.743 148.746 186.65 118.833 201.712ZM203.01 331.042C217.427 331.042 229.114 319.355 229.114 304.938C229.114 290.521 217.427 278.834 203.01 278.834C188.593 278.834 176.906 290.521 176.906 304.938C176.906 319.355 188.593 331.042 203.01 331.042ZM328.568 320.442C328.568 342.979 310.299 361.248 287.762 361.248C265.226 361.248 246.956 342.979 246.956 320.442C246.956 297.906 265.226 279.637 287.762 279.637C310.299 279.637 328.568 297.906 328.568 320.442Z" fill="#F9F9F9"/>
</g>
<defs>
<filter id="filter0_d_301_87" x="0.995239" y="0.684082" width="559.399" height="660.211" filterUnits="userSpaceOnUse" color-interpolation-filters="sRGB">
<feFlood flood-opacity="0" result="BackgroundImageFix"/>
<feColorMatrix in="SourceAlpha" type="matrix" values="0 0 0 0 0 0 0 0 0 0 0 0 0 0 0 0 0 0 127 0" result="hardAlpha"/>
<feOffset dx="26.9474" dy="26.9474"/>
<feGaussianBlur stdDeviation="13.4737"/>
<feColorMatrix type="matrix" values="0 0 0 0 0 0 0 0 0 0 0 0 0 0 0 0 0 0 0.2 0"/>
<feBlend mode="normal" in2="BackgroundImageFix" result="effect1_dropShadow_301_87"/>
<feBlend mode="normal" in="SourceGraphic" in2="effect1_dropShadow_301_87" result="shape"/>
</filter>
</defs>
</svg>
