<svg width="192" height="154" viewBox="0 0 192 154" fill="none" xmlns="http://www.w3.org/2000/svg">
<g clip-path="url(#clip0_1044_13574)">
<path opacity="0.25" d="M21.7277 29.5C21.7541 26.5619 24.1573 24.2015 27.0954 24.2279L57.3646 24.4999C60.3027 24.5263 62.6631 26.9296 62.6367 29.8677L62.3646 60.1368C62.3382 63.0749 59.935 65.4353 56.9969 65.4089L26.7277 65.1368C23.7896 65.1104 21.4292 62.7072 21.4557 59.7691L21.7277 29.5Z" fill="#4B5258" fill-opacity="0.2"/>
<path opacity="0.25" d="M16.206 6.96419C16.2324 4.02609 18.6356 1.66569 21.5737 1.6921L30.3974 1.77141C33.3355 1.79782 35.6959 4.20103 35.6695 7.13914L35.5902 15.9628C35.5638 18.9009 33.1606 21.2613 30.2225 21.2349L21.3988 21.1556C18.4607 21.1292 16.1003 18.726 16.1267 15.7879L16.206 6.96419Z" fill="#4B5258" fill-opacity="0.15"/>
<path opacity="0.25" d="M130.067 124.974C130.211 127.909 132.707 130.171 135.641 130.027L165.875 128.543C168.81 128.399 171.072 125.903 170.928 122.969L169.444 92.7347C169.3 89.8 166.804 87.5377 163.87 87.6817L133.636 89.1656C130.701 89.3097 128.439 91.8055 128.583 94.7401L130.067 124.974Z" fill="#4B5258" fill-opacity="0.15"/>
<path opacity="0.25" d="M157.152 146.443C157.296 149.378 159.791 151.64 162.726 151.496L171.54 151.064C174.474 150.92 176.737 148.424 176.592 145.489L176.16 136.676C176.016 133.741 173.52 131.479 170.585 131.623L161.772 132.055C158.837 132.199 156.575 134.695 156.719 137.63L157.152 146.443Z" fill="#4B5258" fill-opacity="0.1"/>
<rect x="24" y="37" width="144.48" height="42" rx="6.43569" fill="#FAFAFA"/>
<g opacity="0.6">
<rect x="30.7202" y="45.8696" width="49.56" height="8.4" rx="2.14523" fill="#CAD8E4"/>
<rect x="30.7202" y="60.9893" width="26.2791" height="8.58092" rx="2.14523" fill="#B5C0CF"/>
<rect x="89.2803" y="45.8696" width="31.08" height="8.4" rx="2.14523" fill="#B5C0CF"/>
<rect x="92.4722" y="60.9893" width="27.888" height="8.58092" rx="2.14523" fill="#CAD8E4"/>
<g opacity="0.6">
<g clip-path="url(#clip1_1044_13574)">
<g clip-path="url(#clip2_1044_13574)">
<path d="M143.36 71.7202C147.073 71.7202 150.634 70.2452 153.26 67.6197C155.885 64.9942 157.36 61.4332 157.36 57.7202C157.36 54.0072 155.885 50.4462 153.26 47.8207C150.634 45.1952 147.073 43.7202 143.36 43.7202C139.647 43.7202 136.086 45.1952 133.461 47.8207C130.835 50.4462 129.36 54.0072 129.36 57.7202C129.36 61.4332 130.835 64.9942 133.461 67.6197C136.086 70.2452 139.647 71.7202 143.36 71.7202ZM149.54 55.1499L142.54 62.1499C142.026 62.664 141.195 62.664 140.686 62.1499L137.186 58.6499C136.672 58.1358 136.672 57.3046 137.186 56.796C137.7 56.2874 138.531 56.2819 139.04 56.796L141.61 59.3663L147.681 53.2905C148.195 52.7765 149.026 52.7765 149.535 53.2905C150.043 53.8046 150.049 54.6358 149.535 55.1444L149.54 55.1499Z" fill="#B2C2CF"/>
</g>
</g>
</g>
</g>
<rect x="24.8045" y="37.8045" width="142.871" height="40.3911" rx="5.63123" stroke="#19293C" stroke-opacity="0.25" stroke-width="1.60892"/>
<rect x="17.1201" y="50" width="158.24" height="46" rx="7.04862" fill="#FAFAFA"/>
<g opacity="0.6">
<rect x="24.48" y="59.4023" width="54.28" height="9.2" rx="2.34954" fill="#D5D9DD"/>
<rect x="24.48" y="75.9624" width="28.7818" height="9.39815" rx="2.34954" fill="#B5C0CF"/>
<rect x="89.7598" y="59.4023" width="34.04" height="9.2" rx="2.34954" fill="#B5C0CF"/>
<rect x="93.2559" y="75.9624" width="30.544" height="9.39815" rx="2.34954" fill="#CAD8E4"/>
<g clip-path="url(#clip3_1044_13574)">
<g clip-path="url(#clip4_1044_13574)">
<path d="M148.8 85.3604C152.513 85.3604 156.074 83.8854 158.699 81.2598C161.325 78.6343 162.8 75.0734 162.8 71.3604C162.8 67.6473 161.325 64.0864 158.699 61.4609C156.074 58.8353 152.513 57.3604 148.8 57.3604C145.087 57.3604 141.526 58.8353 138.9 61.4609C136.275 64.0864 134.8 67.6473 134.8 71.3604C134.8 75.0734 136.275 78.6343 138.9 81.2598C141.526 83.8854 145.087 85.3604 148.8 85.3604ZM154.979 68.79L147.979 75.79C147.465 76.3041 146.634 76.3041 146.126 75.79L142.626 72.29C142.112 71.776 142.112 70.9447 142.626 70.4361C143.14 69.9275 143.971 69.9221 144.479 70.4361L147.05 73.0064L153.12 66.9307C153.634 66.4166 154.465 66.4166 154.974 66.9307C155.483 67.4447 155.488 68.276 154.974 68.7846L154.979 68.79Z" fill="#B2C2CF"/>
</g>
</g>
</g>
<rect x="18.0012" y="50.8811" width="156.478" height="44.2378" rx="6.16754" stroke="#19293C" stroke-opacity="0.25" stroke-width="1.76215"/>
<rect x="10" y="68" width="172" height="50" rx="7.66154" fill="#FAFAFA"/>
<rect x="21" y="79" width="59" height="10" rx="2.55385" fill="#D5D9DD"/>
<rect x="21" y="97" width="31.2846" height="10.2154" rx="2.55385" fill="#DAE0E4"/>
<rect x="92" y="79" width="37" height="10" rx="2.55385" fill="#DFE3E5"/>
<rect x="95.7998" y="97" width="33.2" height="10.2154" rx="2.55385" fill="#D5D9DD"/>
<g clip-path="url(#clip5_1044_13574)">
<path d="M155 107C158.713 107 162.274 105.525 164.899 102.899C167.525 100.274 169 96.713 169 93C169 89.287 167.525 85.726 164.899 83.1005C162.274 80.475 158.713 79 155 79C151.287 79 147.726 80.475 145.101 83.1005C142.475 85.726 141 89.287 141 93C141 96.713 142.475 100.274 145.101 102.899C147.726 105.525 151.287 107 155 107ZM161.18 90.4297L154.18 97.4297C153.666 97.9437 152.834 97.9437 152.326 97.4297L148.826 93.9297C148.312 93.4156 148.312 92.5844 148.826 92.0758C149.34 91.5672 150.171 91.5617 150.68 92.0758L153.25 94.6461L159.32 88.5703C159.834 88.0563 160.666 88.0563 161.174 88.5703C161.683 89.0844 161.688 89.9156 161.174 90.4242L161.18 90.4297Z" fill="#B2C2CF"/>
</g>
<rect x="10.9577" y="68.9577" width="170.085" height="48.0846" rx="6.70385" stroke="#19293C" stroke-opacity="0.25" stroke-width="1.91538"/>
</g>
<defs>
<clipPath id="clip0_1044_13574">
<rect width="192" height="154" fill="white"/>
</clipPath>
<clipPath id="clip1_1044_13574">
<rect x="129.36" y="43.7202" width="28" height="28" rx="3.36" fill="white"/>
</clipPath>
<clipPath id="clip2_1044_13574">
<rect width="28" height="28" fill="white" transform="translate(129.36 43.7202)"/>
</clipPath>
<clipPath id="clip3_1044_13574">
<rect x="134.8" y="57.3604" width="28" height="28" rx="3.68" fill="white"/>
</clipPath>
<clipPath id="clip4_1044_13574">
<rect width="28" height="28" fill="white" transform="translate(134.8 57.3604)"/>
</clipPath>
<clipPath id="clip5_1044_13574">
<rect width="28" height="28" fill="white" transform="translate(141 79)"/>
</clipPath>
</defs>
</svg>
