<svg width="144" height="144" viewBox="0 0 144 144" fill="none" xmlns="http://www.w3.org/2000/svg">
<circle cx="86" cy="84" r="58" fill="#0E1A23"/>
<path d="M85.0676 27.2329L61.2881 32.9498L66.8137 58.2265L90.5939 52.5097L85.0676 27.2329ZM69.7409 52.0469L67.9298 43.7846L80.7391 40.7084L82.5494 48.9714L69.7409 52.0469Z" fill="#D1E6EF"/>
<path d="M92.241 60.0234L46.4917 71.0216L56.6875 117.601L91.4515 109.244L99.905 95.074L92.241 60.0234ZM89.0423 69.0501L90.4751 75.5571L65.0894 81.6551L63.6566 75.1488L89.0423 69.0501ZM54.7948 84.1303L53.3656 77.624L59.4915 76.1553L60.9207 82.6617L54.7948 84.1303ZM60.036 108.686L58.6032 102.179L64.7291 100.709L66.1583 107.216L60.036 108.686ZM66.3525 87.4085L91.7374 81.3134L93.1666 87.8198L67.7673 93.9177L66.3525 87.4085ZM89.7644 101.551L70.3407 106.22L68.9079 99.7134L94.2935 93.6154L94.8788 96.2561L88.9577 97.6445L89.7644 101.551Z" fill="#D1E6EF"/>
<path d="M79.4463 8.14952L32.4856 19.4335C28.5926 20.3727 26.1698 24.4698 27.0818 28.6078L47.6489 122.501C48.0086 124.342 48.9856 126.005 50.4185 127.215C51.8514 128.425 53.6543 129.111 55.5293 129.157C56.3169 129.148 57.0997 129.034 57.8569 128.817C57.1487 128.963 56.4188 128.966 55.7093 128.827C54.9997 128.689 54.3248 128.411 53.7235 128.009C53.1221 127.608 52.6064 127.091 52.2061 126.489C51.8058 125.887 51.5288 125.212 51.3914 124.502L30.4166 28.6894C30.0729 27.2394 30.3087 25.7123 31.074 24.4336C31.8392 23.1548 33.0734 22.2253 34.5137 21.8428L82.5634 10.3001C83.9582 9.98493 85.4211 10.2327 86.6339 10.9896C87.8468 11.7466 88.7122 12.9515 89.0425 14.3428C87.9399 9.8918 83.6931 7.12865 79.4463 8.14952Z" fill="#83A3A8"/>
<path d="M124.528 99.552C124.171 99.4159 123.782 99.3887 123.411 99.474C123.038 99.5592 122.7 99.7526 122.438 100.031C122.175 100.308 122.001 100.657 121.938 101.034C121.875 101.41 121.923 101.797 122.079 102.145C122.236 102.493 122.491 102.787 122.815 102.99C123.138 103.193 123.514 103.296 123.896 103.284C124.277 103.274 124.647 103.15 124.959 102.929C125.27 102.708 125.508 102.4 125.644 102.043C125.826 101.564 125.81 101.034 125.601 100.567C125.391 100.1 125.006 99.7354 124.528 99.552Z" fill="#83A3A8"/>
<path d="M135.826 84.4839C135.412 84.8006 135.102 85.2319 134.934 85.7247C134.766 86.2169 134.748 86.7485 134.883 87.2514C135.017 87.7543 135.297 88.2064 135.687 88.5495C136.078 88.8934 136.563 89.1133 137.079 89.1821C137.594 89.2502 138.119 89.1642 138.586 88.9349C139.053 88.705 139.441 88.3425 139.702 87.8919C139.963 87.4412 140.085 86.924 140.051 86.4046C140.017 85.8852 139.831 85.3873 139.514 84.974C139.304 84.6989 139.043 84.4682 138.743 84.2948C138.445 84.1214 138.114 84.009 137.771 83.9631C137.429 83.918 137.081 83.9402 136.747 84.0297C136.413 84.1193 136.1 84.2733 135.826 84.4839Z" fill="#83A3A8"/>
<path d="M75.4581 23.299C75.4947 23.4891 75.5678 23.6702 75.6745 23.8316C75.782 23.993 75.9195 24.1316 76.08 24.2393C76.2412 24.3469 76.4217 24.4215 76.6115 24.4588C76.8021 24.496 76.997 24.495 77.1868 24.456C77.5679 24.3511 77.8932 24.1021 78.0938 23.7616C78.2944 23.4212 78.3545 23.0161 78.2614 22.632C78.2249 22.442 78.1511 22.261 78.0443 22.0997C77.9376 21.9383 77.8001 21.7999 77.6389 21.6922C77.4784 21.5846 77.2971 21.51 77.1073 21.4727C76.9174 21.4354 76.7226 21.4362 76.5327 21.475C76.1495 21.5762 75.8214 21.8245 75.62 22.166C75.4195 22.5076 75.3607 22.9147 75.4581 23.299Z" fill="#83A3A8"/>
<path d="M83.1624 36.8837L67.264 40.7085L66.5698 37.5915L82.4818 33.7666L83.1624 36.8837Z" fill="#83A3A8"/>
<path d="M63.6025 94.9243L57.4773 96.3944L56.0474 89.888L62.1733 88.418L63.6025 94.9243Z" fill="#83A3A8"/>
<path d="M102.532 106.753L97.0053 108.114L96.5562 106.072L102.082 104.725L102.532 106.753Z" fill="#83A3A8"/>
<path d="M88.9062 97.66L99.6186 93.7671L99.9044 95.0738L88.9062 97.66Z" fill="#83A3A8"/>
<path d="M108.126 45.6769L117.423 42.9818L116.633 41.4028L108.126 45.6769Z" fill="#83A3A8"/>
<path d="M36.1472 135.446C36.2599 135.941 36.2233 136.459 36.0419 136.934C35.8605 137.408 35.5425 137.819 35.128 138.112C34.7136 138.406 34.2213 138.57 33.7134 138.584C33.2055 138.598 32.7049 138.461 32.2748 138.191C31.8447 137.92 31.5044 137.528 31.2971 137.065C31.0897 136.601 31.0244 136.086 31.1096 135.586C31.1948 135.085 31.4267 134.62 31.7758 134.251C32.1249 133.882 32.5756 133.625 33.0709 133.512C33.4 133.435 33.7409 133.425 34.0741 133.481C34.4072 133.537 34.726 133.658 35.012 133.838C35.2979 134.018 35.5455 134.252 35.7403 134.528C35.9352 134.805 36.0734 135.116 36.1472 135.446Z" stroke="#83A3A8" stroke-linecap="round" stroke-linejoin="round"/>
<path d="M43.2794 101.948L3.94189 83.8715L21.705 45.2139L31.7232 49.8146" stroke="#83A3A8" stroke-linecap="round" stroke-linejoin="round"/>
<path d="M95.0312 41.6747L103.92 37.2373L116.633 41.4025L129.36 66.9521L103.402 79.8968" stroke="#83A3A8" stroke-linecap="round" stroke-linejoin="round"/>
<path d="M103.92 37.2373L108.126 45.6765L116.633 41.4025" stroke="#83A3A8" stroke-linecap="round" stroke-linejoin="round"/>
<path d="M7.83494 54.2246C8.24014 54.5006 8.71805 54.6503 9.20835 54.6546C9.69859 54.659 10.1791 54.5179 10.5891 54.2492C10.9992 53.9804 11.3204 53.5961 11.512 53.1448C11.7036 52.6936 11.7572 52.1956 11.6657 51.714C11.5743 51.2323 11.3422 50.7885 10.9986 50.4388C10.655 50.0891 10.2154 49.8491 9.73541 49.7492C9.25542 49.6494 8.75659 49.6941 8.30204 49.8777C7.84748 50.0613 7.45754 50.3756 7.18159 50.7809C6.81313 51.3247 6.67502 51.9922 6.79746 52.6375C6.9199 53.283 7.29292 53.8536 7.83494 54.2246Z" stroke="#83A3A8" stroke-linecap="round" stroke-linejoin="round"/>
<path d="M103.225 14.656C103.172 15.0329 103.23 15.4172 103.395 15.7605C103.56 16.1038 103.823 16.3906 104.15 16.5846C104.478 16.7785 104.856 16.871 105.236 16.8503C105.616 16.8296 105.981 16.6966 106.286 16.4682C106.59 16.2397 106.82 15.9261 106.947 15.5669C107.073 15.2078 107.09 14.8192 106.996 14.4504C106.901 14.0816 106.699 13.7491 106.416 13.495C106.133 13.2408 105.78 13.0764 105.403 13.0226C104.898 12.9529 104.386 13.0854 103.978 13.3912C103.571 13.6971 103.3 14.1516 103.225 14.656Z" stroke="#83A3A8" stroke-linecap="round" stroke-linejoin="round"/>
<path d="M57.8575 128.817C57.1493 128.963 56.4193 128.966 55.7098 128.827C55.0002 128.689 54.3252 128.411 53.7238 128.01C53.1225 127.608 52.6068 127.091 52.2065 126.49C51.8063 125.888 51.5294 125.212 51.392 124.502L30.4165 28.6896C30.076 27.2396 30.3132 25.7141 31.0779 24.4362C31.8427 23.1582 33.0749 22.2281 34.5136 21.8429L82.5632 10.3003C83.2746 10.1415 84.0104 10.1271 84.7275 10.2579C85.4446 10.3888 86.1273 10.6622 86.737 11.0621C87.3459 11.4619 87.8689 11.98 88.2744 12.5857C88.6799 13.1913 88.9593 13.8722 89.0968 14.588L110.072 110.399C110.413 111.849 110.175 113.375 109.411 114.653C108.646 115.931 107.414 116.861 105.975 117.246L57.8575 128.817Z" stroke="#83A3A8" stroke-linecap="round" stroke-linejoin="round"/>
<path d="M89.0425 14.3428C87.9399 9.89181 83.6931 7.12864 79.4463 8.14952L32.4856 19.4335C28.5926 20.3727 26.1698 24.4698 27.0818 28.6078L47.6489 122.515C48.6848 127.258 53.2296 130.146 57.662 128.857" stroke="#83A3A8" stroke-linecap="round" stroke-linejoin="round"/>
<path d="M40.0124 27.0559C40.1115 27.4656 40.0473 27.8979 39.8334 28.2611C39.6195 28.6244 39.2726 28.8902 38.8662 29.0023C38.6631 29.0456 38.4534 29.0477 38.2494 29.0085C38.0455 28.9692 37.8515 28.8896 37.6789 28.7741C37.5063 28.6586 37.3586 28.5097 37.2446 28.3361C37.1305 28.1626 37.0525 27.9679 37.015 27.7637C36.9136 27.3537 36.9769 26.9205 37.1912 26.5567C37.4054 26.1928 37.7536 25.9274 38.1612 25.8172C38.3643 25.7744 38.574 25.7726 38.7777 25.8119C38.9815 25.8513 39.1753 25.931 39.3478 26.0465C39.5203 26.1619 39.668 26.3107 39.7821 26.484C39.8963 26.6573 39.9746 26.8518 40.0124 27.0559Z" stroke="#83A3A8" stroke-linecap="round" stroke-linejoin="round"/>
<path d="M75.9972 56.0106L90.5939 52.5097L85.0676 27.2329L61.2881 32.9498L66.8144 58.2129L72.1724 56.9278" stroke="#83A3A8" stroke-linecap="round" stroke-linejoin="round"/>
<path d="M57.5858 50.4273L42.762 53.9935L39.3047 38.2313L54.1413 34.665L57.5858 50.4273Z" stroke="#83A3A8" stroke-linecap="round" stroke-linejoin="round"/>
<path d="M56.6731 117.588L91.4379 109.244L99.9043 95.074L92.2409 60.0234L46.478 71.0087L56.6731 117.588Z" stroke="#83A3A8" stroke-linecap="round" stroke-linejoin="round"/>
<path d="M99.9044 95.0737L88.9062 97.6599L91.438 109.243" stroke="#83A3A8" stroke-linecap="round" stroke-linejoin="round"/>
<path d="M83.1624 36.8837L67.264 40.7085L66.5698 37.5915L82.4818 33.7666L83.1624 36.8837Z" stroke="#83A3A8" stroke-linecap="round" stroke-linejoin="round"/>
<path d="M63.602 94.9243L57.4768 96.3944L56.0469 89.888L62.1728 88.418L63.602 94.9243Z" stroke="#83A3A8" stroke-linecap="round" stroke-linejoin="round"/>
<path d="M102.532 106.753L97.0053 108.114L96.5562 106.072L102.082 104.725L102.532 106.753Z" stroke="#83A3A8" stroke-linecap="round" stroke-linejoin="round"/>
<path d="M16.5601 5.41357L9.61816 16.4526" stroke="#83A3A8" stroke-linecap="round" stroke-linejoin="round"/>
<path d="M18.6015 14.397L7.5625 7.45508" stroke="#83A3A8" stroke-linecap="round" stroke-linejoin="round"/>
<path d="M88.9062 97.66L99.6186 93.7671L99.9044 95.0738L88.9062 97.66Z" stroke="#83A3A8" stroke-linecap="round" stroke-linejoin="round"/>
<path d="M108.126 45.6769L117.423 42.9818L116.633 41.4028L108.126 45.6769Z" stroke="#83A3A8" stroke-linecap="round" stroke-linejoin="round"/>
<path d="M54.7949 84.1299L53.3657 77.6236L59.4917 76.1528L60.9073 82.6599L54.7949 84.1299Z" stroke="#83A3A8" stroke-linecap="round" stroke-linejoin="round"/>
<path d="M60.0352 108.685L58.606 102.179L64.7319 100.709L66.1475 107.215L60.0352 108.685Z" stroke="#83A3A8" stroke-linecap="round" stroke-linejoin="round"/>
<path d="M89.0424 69.0479L90.4717 75.5549L65.086 81.6529L63.6704 75.1466L89.0424 69.0479Z" stroke="#83A3A8" stroke-linecap="round" stroke-linejoin="round"/>
<path d="M66.3516 87.4105L91.7236 81.3125L93.1528 87.8188L67.7672 93.9168L66.3516 87.4105Z" stroke="#83A3A8" stroke-linecap="round" stroke-linejoin="round"/>
<path d="M89.7636 101.553L70.3263 106.208L68.9106 99.7157L94.2827 93.6177L94.868 96.2583L88.9469 97.6467L89.7636 101.553Z" stroke="#83A3A8" stroke-linecap="round" stroke-linejoin="round"/>
<path d="M69.741 52.0469L67.9307 43.771L80.7392 40.6948L82.5495 48.9571L69.741 52.0469Z" stroke="#83A3A8" stroke-linecap="round" stroke-linejoin="round"/>
</svg>
