<svg width="24" height="24" viewBox="0 0 24 24" fill="none" xmlns="http://www.w3.org/2000/svg">
<g clip-path="url(#clip0_1165_16833)">
<path d="M1.44067 10.9407C0.854736 11.5267 0.854736 12.4782 1.44067 13.0642L8.94067 20.5642C9.52661 21.1501 10.4782 21.1501 11.0641 20.5642C11.65 19.9782 11.65 19.0267 11.0641 18.4407L6.1188 13.5001H20.5C21.3297 13.5001 22 12.8298 22 12.0001C22 11.1704 21.3297 10.5001 20.5 10.5001H6.12349L11.0594 5.55947C11.6454 4.97353 11.6454 4.02197 11.0594 3.43604C10.4735 2.8501 9.52192 2.8501 8.93599 3.43604L1.43599 10.936L1.44067 10.9407Z" fill="white"/>
</g>
<defs>
<clipPath id="clip0_1165_16833">
<rect width="24" height="24" fill="white"/>
</clipPath>
</defs>
</svg>
