<svg width="48" height="48" viewBox="0 0 48 48" fill="none" xmlns="http://www.w3.org/2000/svg">
<g clip-path="url(#clip0_1211_13973)">
<g clip-path="url(#clip1_1211_13973)">
<path d="M28.5 4.5C28.5 2.01562 26.4844 0 24 0C21.5156 0 19.5 2.01562 19.5 4.5C19.5 6.98438 21.5156 9 24 9C26.4844 9 28.5 6.98438 28.5 4.5ZM28.5 43.5C28.5 41.0156 26.4844 39 24 39C21.5156 39 19.5 41.0156 19.5 43.5C19.5 45.9844 21.5156 48 24 48C26.4844 48 28.5 45.9844 28.5 43.5ZM4.5 28.5C6.98438 28.5 9 26.4844 9 24C9 21.5156 6.98438 19.5 4.5 19.5C2.01562 19.5 0 21.5156 0 24C0 26.4844 2.01562 28.5 4.5 28.5ZM48 24C48 21.5156 45.9844 19.5 43.5 19.5C41.0156 19.5 39 21.5156 39 24C39 26.4844 41.0156 28.5 43.5 28.5C45.9844 28.5 48 26.4844 48 24ZM13.3969 40.9688C15.15 39.2156 15.15 36.3656 13.3969 34.6031C11.6437 32.8406 8.79375 32.85 7.03125 34.6031C5.26875 36.3563 5.27812 39.2063 7.03125 40.9688C8.78438 42.7312 11.6344 42.7219 13.3969 40.9688ZM13.3969 13.3875C15.15 11.6344 15.15 8.78438 13.3969 7.02188C11.6437 5.25938 8.78438 5.26875 7.03125 7.03125C5.27812 8.79375 5.27812 11.6344 7.03125 13.3969C8.78438 15.1594 11.6344 15.15 13.3969 13.3969V13.3875ZM34.6031 40.9688C36.3563 42.7219 39.2063 42.7219 40.9688 40.9688C42.7312 39.2156 42.7219 36.3656 40.9688 34.6031C39.2156 32.8406 36.3656 32.85 34.6031 34.6031C32.8406 36.3563 32.85 39.2063 34.6031 40.9688Z" fill="white"/>
</g>
</g>
<defs>
<clipPath id="clip0_1211_13973">
<rect width="48" height="48" fill="white"/>
</clipPath>
<clipPath id="clip1_1211_13973">
<rect width="48" height="48" fill="white"/>
</clipPath>
</defs>
</svg>
