<svg width="169" height="168" viewBox="0 0 169 168" fill="none" xmlns="http://www.w3.org/2000/svg">
<rect x="2.00854" y="165.991" width="111.078" height="157.698" rx="6.02561" transform="rotate(-90 2.00854 165.991)" stroke="#A0B7DB" stroke-width="4.01707"/>
<path d="M98.3617 129.57C95.0339 129.57 92.3361 126.872 92.3361 123.544V102.461C92.3361 99.1336 95.0339 96.4358 98.3617 96.4358H159.707V129.57H98.3617Z" stroke="#A0B7DB" stroke-width="4.01707"/>
<path fill-rule="evenodd" clip-rule="evenodd" d="M45.9999 45.6211H15.3186C11.6467 45.6211 8.5501 48.0844 7.59125 51.4487H11.9613C12.6796 50.358 13.915 49.6382 15.3186 49.6382H45.9999V45.6211ZM132 49.6382H160.966C163.184 49.6382 164.983 51.4367 164.983 53.6552V152.682C164.983 153.742 164.572 154.707 163.901 155.425V160.163C166.886 158.991 169 156.083 169 152.682V53.6552C169 49.2181 165.403 45.6211 160.966 45.6211H132V49.6382Z" fill="#A0B7DB"/>
<g clip-path="url(#clip0_1209_13788)">
<path d="M87.002 62C84.9509 61.9999 82.9489 61.5888 81.0516 60.778C77.3742 59.2067 74.5366 56.3152 73.0615 52.6363C71.5865 48.9574 71.6505 44.9314 73.2419 41.3001C74.1832 39.1519 75.6372 37.2413 77.4555 35.7597C77.3044 33.4368 77.7197 31.0822 78.6611 28.9339C81.0393 23.5068 86.4461 20 92.4355 20C94.4865 20 96.4885 20.4112 98.386 21.222C102.063 22.7934 104.901 25.6849 106.376 29.3638C107.851 33.0427 107.787 37.0687 106.196 40.7C105.254 42.8483 103.8 44.7589 101.982 46.2403C102.133 48.5632 101.718 50.9178 100.776 53.0662C98.3981 58.4931 92.9912 62 87.0024 62H87.002ZM78.0128 38.9116C77.0593 39.9213 76.2935 41.0792 75.7306 42.3636C73.0394 48.5047 75.9096 55.663 82.1286 58.3206C83.6833 58.985 85.3233 59.3219 87.0029 59.3219C91.9098 59.3219 96.3393 56.449 98.2878 52.0028C98.8506 50.7186 99.1811 49.3746 99.2738 47.9972C97.1533 49.0699 94.801 49.6335 92.4194 49.6335C90.3691 49.6335 88.3676 49.2226 86.4707 48.412C84.2692 47.4712 82.31 46.0097 80.805 44.1854C79.5303 42.6403 78.5745 40.8314 78.0128 38.9116ZM80.3371 36.991C81.0772 40.997 83.7539 44.3332 87.5479 45.9544C89.1024 46.6186 90.7421 46.9555 92.4214 46.9555C94.7997 46.9555 97.1023 46.2834 99.1006 45.0091C98.3604 41.0031 95.6838 37.667 91.89 36.0457C90.3355 35.3814 88.6958 35.0446 87.0165 35.0446C84.6381 35.0446 82.3355 35.7167 80.3371 36.991ZM87.018 32.3665C89.0684 32.3665 91.0699 32.7776 92.9669 33.5882C95.1683 34.5289 97.1275 35.9904 98.6325 37.8148C99.9072 39.3597 100.863 41.1686 101.425 43.0885C102.378 42.0789 103.144 40.9209 103.707 39.6366C105.011 36.6616 105.063 33.3634 103.855 30.3496C102.646 27.3357 100.322 24.9669 97.3091 23.6796C95.7543 23.0152 94.1143 22.6783 92.4347 22.6783C87.5278 22.6783 83.0982 25.5512 81.1499 29.9974C80.5871 31.2816 80.2566 32.6255 80.1638 34.0028C82.2843 32.9302 84.6365 32.3665 87.018 32.3665Z" fill="#9FB7DB"/>
<circle cx="89.5" cy="40.5" r="38.5" stroke="#9FB7DB" stroke-width="4"/>
</g>
<defs>
<clipPath id="clip0_1209_13788">
<rect width="81" height="50" fill="white" transform="translate(49)"/>
</clipPath>
</defs>
</svg>
