<svg width="300" height="300" viewBox="0 0 300 300" fill="none" xmlns="http://www.w3.org/2000/svg">
<path d="M300 150C300 232.843 232.843 300 150 300C67.1573 300 0 232.843 0 150C0 67.1573 67.1573 0 150 0C232.843 0 300 67.1573 300 150Z" fill="#ECFAFF"/>
<path d="M167.041 139.838C167.328 139.574 167.531 139.23 167.625 138.851C167.716 138.471 167.695 138.072 167.561 137.705C167.428 137.338 167.188 137.019 166.871 136.788C166.556 136.557 166.18 136.425 165.789 136.408C165.399 136.392 165.012 136.491 164.678 136.694C164.343 136.897 164.077 137.195 163.912 137.549C163.748 137.903 163.692 138.299 163.752 138.685C163.812 139.071 163.985 139.431 164.249 139.719C164.422 139.913 164.634 140.07 164.869 140.182C165.104 140.293 165.36 140.356 165.62 140.367C165.88 140.379 166.139 140.337 166.384 140.247C166.628 140.156 166.851 140.017 167.041 139.838ZM161.104 172.182C161.227 171.838 161.253 171.468 161.182 171.11C161.11 170.753 160.943 170.421 160.697 170.152C160.525 169.955 160.314 169.796 160.078 169.683C159.843 169.571 159.587 169.507 159.326 169.495C159.065 169.484 158.804 169.526 158.56 169.618C158.316 169.711 158.093 169.851 157.904 170.032C157.625 170.306 157.428 170.652 157.336 171.032C157.243 171.412 157.258 171.81 157.381 172.182C158.621 172.253 159.864 172.253 161.104 172.182ZM162.621 149.147C162.908 148.883 163.111 148.539 163.203 148.159C163.296 147.779 163.274 147.381 163.14 147.014C163.006 146.647 162.766 146.328 162.451 146.097C162.136 145.866 161.758 145.734 161.368 145.717C160.978 145.701 160.591 145.8 160.258 146.003C159.923 146.206 159.657 146.504 159.492 146.858C159.327 147.212 159.271 147.607 159.331 147.994C159.391 148.38 159.564 148.74 159.828 149.027C160.001 149.222 160.212 149.379 160.447 149.49C160.684 149.602 160.938 149.665 161.198 149.676C161.459 149.687 161.719 149.646 161.963 149.555C162.207 149.464 162.431 149.325 162.621 149.147ZM175.708 153.741C175.899 153.566 176.053 153.354 176.163 153.119C176.272 152.883 176.334 152.629 176.344 152.369C176.355 152.11 176.314 151.851 176.226 151.608C176.137 151.364 176 151.14 175.824 150.949C175.648 150.758 175.437 150.604 175.202 150.494C174.966 150.385 174.712 150.323 174.452 150.313C174.193 150.302 173.934 150.342 173.69 150.432C173.447 150.521 173.223 150.657 173.032 150.833C172.84 151.008 172.684 151.219 172.574 151.454C172.463 151.69 172.401 151.944 172.39 152.204C172.378 152.464 172.418 152.723 172.509 152.967C172.599 153.211 172.736 153.435 172.913 153.626C173.271 154.006 173.764 154.232 174.287 154.254C174.809 154.275 175.32 154.091 175.708 153.741ZM177.337 142.69C177.624 142.425 177.827 142.082 177.92 141.702C178.012 141.322 177.991 140.924 177.857 140.556C177.723 140.189 177.483 139.87 177.167 139.639C176.852 139.408 176.476 139.276 176.085 139.26C175.695 139.243 175.308 139.342 174.974 139.545C174.639 139.748 174.373 140.046 174.208 140.4C174.044 140.755 173.987 141.15 174.048 141.536C174.108 141.923 174.281 142.282 174.545 142.57C174.908 142.943 175.4 143.162 175.92 143.185C176.44 143.207 176.949 143.03 177.343 142.69H177.337ZM192.054 154.209C192.273 154.027 192.435 153.784 192.519 153.511C192.435 153.312 192.338 153.117 192.229 152.93V152.872C191.883 152.17 191.494 151.49 191.065 150.835C191.065 150.827 191.064 150.82 191.062 150.813C191.058 150.806 191.053 150.799 191.048 150.794C191.042 150.788 191.037 150.784 191.029 150.781C191.022 150.779 191.014 150.778 191.007 150.778C190.709 150.721 190.401 150.733 190.11 150.814C189.817 150.894 189.548 151.041 189.321 151.242C189.124 151.414 188.964 151.624 188.85 151.86C188.738 152.096 188.674 152.352 188.663 152.613C188.651 152.874 188.693 153.135 188.786 153.379C188.879 153.624 189.02 153.847 189.201 154.035C189.563 154.426 190.061 154.663 190.592 154.695C191.124 154.728 191.648 154.554 192.054 154.209ZM187.278 143.914C186.463 142.226 186.232 141.935 185.475 140.539L185.416 140.598C185.056 140.958 184.849 141.444 184.838 141.953C184.828 142.463 185.014 142.957 185.359 143.332C185.591 143.603 185.895 143.801 186.237 143.904C186.578 144.007 186.941 144.009 187.284 143.911L187.278 143.914ZM178.203 163.575C178.467 163.863 178.811 164.066 179.191 164.158C179.571 164.251 179.969 164.229 180.337 164.095C180.704 163.961 181.022 163.721 181.253 163.405C181.485 163.09 181.616 162.713 181.633 162.323C181.649 161.932 181.55 161.546 181.347 161.212C181.144 160.878 180.847 160.612 180.492 160.447C180.138 160.282 179.742 160.226 179.357 160.286C178.97 160.345 178.611 160.518 178.323 160.782C178.129 160.956 177.973 161.167 177.862 161.403C177.751 161.638 177.689 161.894 177.678 162.154C177.667 162.414 177.709 162.673 177.8 162.917C177.892 163.161 178.03 163.384 178.209 163.573L178.203 163.575ZM160.869 157.642C160.581 157.906 160.378 158.25 160.285 158.63C160.193 159.01 160.215 159.408 160.348 159.775C160.482 160.143 160.722 160.462 161.037 160.693C161.354 160.924 161.73 161.056 162.12 161.072C162.511 161.089 162.898 160.99 163.232 160.787C163.566 160.583 163.832 160.286 163.997 159.931C164.162 159.577 164.218 159.182 164.157 158.796C164.097 158.409 163.924 158.049 163.66 157.762C163.487 157.568 163.277 157.411 163.042 157.301C162.807 157.189 162.552 157.126 162.293 157.115C162.034 157.104 161.775 157.144 161.532 157.234C161.288 157.325 161.065 157.462 160.875 157.64L160.869 157.642ZM125.798 160.896C125.51 161.16 125.307 161.504 125.214 161.884C125.122 162.263 125.144 162.662 125.278 163.029C125.412 163.396 125.652 163.715 125.967 163.946C126.283 164.177 126.659 164.309 127.05 164.325C127.44 164.342 127.827 164.243 128.161 164.04C128.495 163.837 128.761 163.539 128.926 163.185C129.091 162.831 129.147 162.435 129.087 162.049C129.027 161.663 128.854 161.303 128.59 161.015C128.417 160.821 128.206 160.663 127.971 160.552C127.735 160.44 127.479 160.377 127.219 160.366C126.959 160.355 126.699 160.396 126.455 160.487C126.21 160.578 125.987 160.717 125.798 160.896ZM137.021 142.804C137.309 142.54 137.512 142.196 137.605 141.817C137.697 141.437 137.675 141.038 137.541 140.671C137.407 140.304 137.168 139.985 136.852 139.754C136.537 139.523 136.16 139.391 135.769 139.374C135.379 139.357 134.992 139.457 134.658 139.66C134.324 139.863 134.058 140.161 133.893 140.515C133.728 140.869 133.672 141.265 133.732 141.651C133.792 142.037 133.965 142.397 134.23 142.685C134.591 143.06 135.083 143.281 135.603 143.304C136.123 143.326 136.632 143.148 137.025 142.805L137.021 142.804ZM126.608 148.622C126.609 148.23 126.493 147.847 126.275 147.522C126.058 147.196 125.749 146.943 125.387 146.793C125.026 146.643 124.628 146.603 124.244 146.68C123.86 146.756 123.508 146.945 123.231 147.221C122.954 147.498 122.766 147.851 122.689 148.235C122.613 148.619 122.652 149.016 122.802 149.378C122.952 149.74 123.206 150.049 123.531 150.266C123.857 150.483 124.24 150.599 124.631 150.599C124.891 150.601 125.15 150.552 125.391 150.454C125.632 150.356 125.852 150.21 126.036 150.026C126.22 149.842 126.366 149.623 126.465 149.382C126.564 149.141 126.614 148.883 126.612 148.623L126.608 148.622ZM145.398 145.83C145.663 146.118 146.006 146.321 146.386 146.413C146.766 146.506 147.164 146.483 147.531 146.349C147.898 146.215 148.218 145.976 148.448 145.66C148.679 145.345 148.811 144.968 148.828 144.578C148.844 144.187 148.745 143.801 148.542 143.467C148.339 143.133 148.042 142.866 147.687 142.702C147.333 142.537 146.938 142.481 146.552 142.54C146.165 142.6 145.806 142.773 145.518 143.037C145.325 143.212 145.169 143.423 145.059 143.659C144.949 143.895 144.886 144.15 144.876 144.41C144.865 144.67 144.906 144.929 144.996 145.173C145.086 145.417 145.224 145.641 145.402 145.831L145.398 145.83ZM131.325 149.672C131.037 149.937 130.833 150.28 130.741 150.66C130.648 151.04 130.67 151.438 130.804 151.805C130.938 152.173 131.178 152.492 131.494 152.723C131.809 152.954 132.186 153.086 132.576 153.102C132.967 153.119 133.353 153.02 133.687 152.817C134.021 152.613 134.287 152.316 134.452 151.962C134.617 151.607 134.673 151.212 134.613 150.826C134.554 150.439 134.38 150.08 134.116 149.792C133.76 149.409 133.267 149.182 132.745 149.159C132.222 149.137 131.712 149.321 131.325 149.672ZM144.471 163.982C144.183 164.247 143.98 164.59 143.887 164.97C143.795 165.35 143.817 165.748 143.951 166.115C144.085 166.482 144.325 166.802 144.64 167.032C144.956 167.263 145.332 167.395 145.723 167.412C146.113 167.429 146.5 167.329 146.834 167.126C147.168 166.923 147.434 166.626 147.599 166.271C147.764 165.917 147.82 165.522 147.76 165.136C147.7 164.75 147.527 164.39 147.263 164.102C147.09 163.907 146.879 163.749 146.644 163.638C146.408 163.526 146.153 163.462 145.893 163.451C145.632 163.44 145.372 163.481 145.128 163.572C144.884 163.662 144.66 163.801 144.471 163.98V163.982ZM144.819 135.188C145.167 134.867 145.387 134.432 145.441 133.962C145.494 133.492 145.377 133.018 145.11 132.628C143.868 132.852 142.658 133.223 141.503 133.733C141.506 134.229 141.693 134.706 142.028 135.071C142.2 135.266 142.411 135.425 142.647 135.537C142.882 135.649 143.138 135.712 143.399 135.722C143.66 135.733 143.92 135.691 144.164 135.599C144.408 135.507 144.631 135.366 144.819 135.185V135.188ZM143.482 156.239C143.873 156.239 144.256 156.123 144.581 155.906C144.907 155.688 145.16 155.379 145.31 155.018C145.459 154.656 145.499 154.258 145.422 153.874C145.346 153.491 145.157 153.138 144.88 152.861C144.604 152.585 144.251 152.396 143.867 152.32C143.483 152.244 143.085 152.283 142.724 152.433C142.362 152.583 142.053 152.837 141.836 153.162C141.619 153.488 141.503 153.871 141.503 154.262C141.509 154.785 141.719 155.285 142.089 155.654C142.459 156.024 142.959 156.234 143.482 156.239ZM225.032 218.424C224.357 213.692 223.048 209.074 221.135 204.693C219.75 202.012 219.796 200.796 216.191 201.784C213.223 202.599 191.933 208.823 189.839 209.696C189.432 195.037 187.545 185.712 182.684 176.771C181.702 174.965 179.717 172.99 176.983 169.966C168.607 173.921 146.619 171.943 146.619 171.943C146.619 171.943 138.693 202.655 136.147 217.142C134.69 224.05 135.548 231.246 138.59 237.619C147.828 258.036 151.804 266.088 156.799 276.011C158.351 279.102 160.162 277.802 162.557 276.13C164.991 274.429 171.806 269.731 171.806 269.731C172.439 269.402 172.932 268.857 173.198 268.196C173.466 267.534 173.487 266.8 173.26 266.124C169.374 253.2 164.831 240.483 159.649 228.023C158.539 225.348 159.183 223.834 160.172 221.857C162.15 217.901 165.873 209.99 165.873 209.99C167.793 215.05 169.767 221.333 173.435 227.615C177.852 235.179 182.856 238.191 190.479 236.341C198.678 234.351 221.252 224.534 223.113 223.718C225.504 222.676 225.489 221.397 225.037 218.428L225.032 218.424Z" fill="#71CEF8"/>
<path d="M108.522 192.833C109.161 193.938 110.615 196.963 112.069 199.93C119.159 196.487 112.747 190.354 108.522 192.833Z" fill="#17334F"/>
<path d="M122.249 170.209C122.483 168.881 122.639 167.54 122.715 166.194C121.959 166.66 118.759 168.056 118.759 168.056C119.712 169.069 120.916 169.812 122.249 170.209Z" fill="#17334F"/>
<path d="M232.774 98.8863C233.654 99.3977 234.666 99.6368 235.682 99.5731C236.698 99.5095 237.673 99.1461 238.482 98.529C239.292 97.9118 239.899 97.0685 240.23 96.1056C240.561 95.1428 240.598 94.1035 240.338 93.1194C240.077 92.1352 239.532 91.2502 238.769 90.5762C238.006 89.9022 237.06 89.4695 236.051 89.3328C235.043 89.1961 234.017 89.3614 233.102 89.808C232.186 90.2546 231.424 90.9624 230.912 91.8417C230.572 92.4264 230.35 93.0726 230.259 93.7431C230.168 94.4136 230.21 95.0955 230.383 95.7497C230.556 96.4039 230.856 97.0176 231.267 97.5559C231.676 98.094 232.189 98.5462 232.774 98.8863Z" fill="#17334F"/>
<path d="M49.7146 199.156C49.7146 199.156 49.2084 199.402 47.6168 200.22C43.3697 202.402 46.7953 209.327 51.1641 207.145C52.7736 206.341 53.8303 205.68 53.8303 205.68C52.1155 203.741 50.7256 201.538 49.7146 199.156Z" fill="#17334F"/>
<path d="M136.618 155.313C138.307 149.016 139.658 146.021 131.615 165.434C138.659 162.011 137.931 162.402 138.013 162.234C137.254 161.271 136.732 160.143 136.489 158.94C136.247 157.738 136.291 156.495 136.618 155.313Z" fill="#17334F"/>
<path d="M83.217 182.013C84.6687 183.959 85.6251 186.23 86.0038 188.629C87.4504 188.107 88.8526 187.471 90.1972 186.725C89.7284 185.602 89.1843 184.512 88.5685 183.463C88.3315 182.997 87.9996 182.586 87.5941 182.257C87.1886 181.927 86.7187 181.687 86.2145 181.55C85.7102 181.414 85.183 181.384 84.6667 181.464C84.1504 181.544 83.6566 181.73 83.217 182.013Z" fill="#17334F"/>
<path d="M232.6 202.371C230.636 198.736 227.924 199.617 224.223 201.674C226.252 202.78 228.508 203.841 229.284 204.815C231.937 208.666 233.978 212.905 235.334 217.38C235.515 218.237 235.52 219.123 235.351 219.983C235.18 220.842 234.839 221.659 234.344 222.383C237.951 225.001 240.629 226.978 240.336 223.314C239.932 218.253 235.543 207.82 232.6 202.371Z" fill="#17334F"/>
<path d="M178.501 126.111C178.326 120.932 173.208 120.002 170.415 120.352C170.534 113.604 165.412 111.742 162.503 111.219C160.976 104.14 148.612 100.917 145.11 107.205C144.11 108.996 144.936 111.568 146.506 113.371C141.082 112.385 137.544 119.094 141.155 123.261C133.476 123.725 132.778 131.985 137.083 135.825C145.458 131.257 150.288 132.646 151.719 131.669C152.556 130.907 153.336 130.084 154.051 129.207C154.139 129.124 154.201 129.017 154.229 128.899C154.256 128.781 154.247 128.658 154.204 128.545C154.16 128.432 154.082 128.335 153.983 128.266C153.883 128.198 153.764 128.16 153.644 128.16C152.003 128.16 148.904 128.714 147.305 127.802C144.789 126.369 144.986 124.649 146.682 120.638C147.937 117.666 149.608 113.366 152.73 113.366C156.57 113.366 157.524 115.808 157.675 117.962C157.813 119.938 156.058 122.075 157.093 122.789C157.505 123.074 158.025 122.67 158.665 122.325C161.397 121.11 163.034 125.343 159.362 127.328C158.727 127.648 158.169 128.102 157.726 128.658C157.282 129.214 156.964 129.86 156.794 130.55C156.622 131.24 156.601 131.959 156.734 132.658C156.866 133.357 157.147 134.019 157.559 134.599C159.209 137.202 164.19 137.798 166.052 134.192C166.728 134.913 167.58 135.446 168.525 135.736C169.469 136.026 170.473 136.065 171.437 135.848C172.402 135.631 173.292 135.165 174.021 134.498C174.749 133.83 175.291 132.984 175.592 132.043C180.129 134.834 182.689 136.46 184.085 138.674C188.273 134.778 185.481 126.692 178.501 126.111Z" fill="#17334F"/>
<path d="M174.661 272.585C173.731 274.911 172.967 277.638 172.044 278.635C168.619 281.813 164.71 284.425 160.462 286.371C159.039 286.907 157.467 286.907 156.044 286.371C153.834 290.618 151.91 294.036 155.754 293.057C160.635 291.818 170.903 284.422 175.823 280.609C179.261 277.95 177.365 275.914 174.661 272.585Z" fill="#17334F"/>
<path d="M176.984 170.03C173.358 165.783 170.107 161.229 167.27 156.418C168.084 160.55 171.342 167.704 172.913 171.136C174.297 170.871 175.658 170.502 176.984 170.03Z" fill="#17334F"/>
<path d="M156.687 131.579C156.634 130.687 156.843 129.799 157.287 129.025C157.731 128.25 158.392 127.621 159.188 127.216C160.652 126.36 161.403 125.704 161.515 124.25C161.635 122.68 160.586 121.644 159.421 121.862C158.434 122.048 157.665 123.035 157.094 122.443C156.323 121.643 157.846 119.71 157.792 117.849C157.847 116.89 157.587 115.939 157.051 115.141C156.516 114.344 155.734 113.743 154.825 113.431C152.041 112.595 150.347 113.605 149.008 115.932C147.485 118.49 146.331 121.251 145.582 124.133C145.105 126.342 146.397 128.026 148.898 128.38C149.845 128.482 150.797 128.522 151.748 128.499L150.585 131.756L148.374 131.995C148.374 131.995 147.84 133.97 147.56 134.904C146.533 138.325 148.257 141.914 151.341 141.942C155.646 141.983 157.708 139.043 158.671 136.242C158.731 136.068 158.791 135.894 158.845 135.661C158.194 135.194 157.66 134.582 157.285 133.874C156.911 133.165 156.706 132.38 156.687 131.579Z" stroke="#17334F" stroke-width="1.53846" stroke-linecap="round" stroke-linejoin="round"/>
<path d="M137.898 162.351L122.308 169.97C122.308 169.97 123.502 165.893 122.133 159.093C121.113 154.833 119.731 150.669 118.001 146.645L133.125 137.92C140.397 133.847 143.305 132.568 148.424 131.985" stroke="#17334F" stroke-width="1.53846" stroke-linecap="round" stroke-linejoin="round"/>
<path d="M139.992 142.399L136.559 155.313C136.244 156.506 136.206 157.755 136.448 158.965C136.69 160.175 137.206 161.313 137.956 162.293C138.013 162.351 138.075 162.467 138.13 162.526C139.818 164.62 142.548 167.644 146.681 171.839C172.276 173.06 184.085 172.246 193.218 154.679C189.145 147.29 184.228 138.585 184.099 138.382C182.926 136.526 181.027 135.092 177.802 133.156C177.11 132.739 176.406 132.283 175.592 131.759C175.289 132.698 174.746 133.542 174.016 134.207C173.288 134.873 172.398 135.337 171.435 135.554C170.472 135.771 169.469 135.733 168.525 135.444C167.582 135.156 166.729 134.626 166.052 133.908C164.598 136.817 161.049 136.991 158.839 135.595" stroke="#17334F" stroke-width="1.53846" stroke-linecap="round" stroke-linejoin="round"/>
<path d="M151.858 151.124L151.219 156.417C151.077 157.649 151.218 158.898 151.632 160.068C152.047 161.237 152.721 162.297 153.607 163.166C153.666 163.223 153.721 163.285 153.84 163.404C154.466 164.001 155.177 164.626 155.989 165.323" stroke="#17334F" stroke-width="1.53846" stroke-linecap="round" stroke-linejoin="round"/>
<path d="M184.119 138.406C184.669 137.928 185.12 137.346 185.443 136.694C185.767 136.041 185.958 135.331 186.005 134.604C186.088 133.55 185.957 132.49 185.621 131.488C185.286 130.485 184.752 129.56 184.052 128.768C183.352 127.976 182.5 127.332 181.546 126.876C180.593 126.419 179.557 126.159 178.501 126.111C178.501 122.621 175.418 119.944 170.415 120.352C170.823 116.338 167.855 111.975 162.504 111.219C161.108 106.042 155.233 103.652 151.917 103.772C147.321 103.941 144.395 106.451 144.762 109.474C144.958 110.907 145.587 112.247 146.565 113.312C146.22 113.244 145.87 113.205 145.518 113.193C144.746 113.207 143.984 113.373 143.276 113.681C142.569 113.99 141.929 114.436 141.394 114.992C140.859 115.549 140.439 116.206 140.158 116.925C139.878 117.645 139.742 118.413 139.759 119.185C139.769 120.632 140.284 122.031 141.214 123.14C133.128 123.606 133.128 132.453 137.141 135.705" stroke="#17334F" stroke-width="1.53846" stroke-linecap="round" stroke-linejoin="round"/>
<path d="M99.8353 123.115C96.4742 117.84 95.0259 115.115 95.0832 113.488C95.1405 111.861 96.3046 111.511 97.2324 112.382C101.26 116.397 104.974 120.715 108.343 125.297C109.796 127.974 110.389 131.516 111.891 134.778C112.828 136.808 118 146.646 118 146.646" stroke="#17334F" stroke-width="1.53846" stroke-linecap="round" stroke-linejoin="round"/>
<path d="M103.983 136.291C102.439 134.111 101.26 131.694 100.493 129.135C97.1775 128.146 95.3758 127.331 94.6188 126.401C93.5741 125.12 94.0361 123.958 95.3746 123.958C98.7601 123.869 102.143 124.221 105.438 125.005" stroke="#17334F" stroke-width="1.53846" stroke-linecap="round" stroke-linejoin="round"/>
<path d="M96.3167 123.963C92.0398 119.046 89.4405 115.524 89.3247 113.895C89.2088 112.266 90.2631 111.789 91.3545 112.557C92.5855 113.417 94.1472 114.767 95.7723 116.164" stroke="#17334F" stroke-width="1.53846" stroke-linecap="round" stroke-linejoin="round"/>
<path d="M88.2775 119.073C87.2303 118.549 86.373 119.301 86.7659 120.876C87.4309 123.546 90.6714 128.724 92.1174 130.997C94.5161 134.77 96.6641 135.94 97.3519 139.083C104.192 170.3 110.901 171.181 116.839 168.925C119.455 167.93 122.773 166.249 122.773 166.249" stroke="#17334F" stroke-width="1.53846" stroke-linecap="round" stroke-linejoin="round"/>
<path d="M93.74 126.786C89.7066 121.709 87.2924 118.07 87.2303 116.454C87.1682 114.839 88.2703 114.37 89.3246 115.174C89.5562 115.351 89.7902 115.582 90.0816 115.814" stroke="#17334F" stroke-width="1.53846" stroke-linecap="round" stroke-linejoin="round"/>
<path d="M98.0728 124.002C99.4424 123.267 100.853 122.61 102.297 122.035" stroke="#17334F" stroke-width="1.53846" stroke-linecap="round" stroke-linejoin="round"/>
<path d="M91.9429 128.263C92.752 127.539 93.6059 126.866 94.4992 126.249" stroke="#17334F" stroke-width="1.53846" stroke-linecap="round" stroke-linejoin="round"/>
<path d="M211.081 134.016C214.277 129.366 215.643 126.867 215.619 125.299C215.589 123.671 214.515 123.27 213.524 124.135C209.35 128.003 205.478 132.184 201.943 136.642C200.424 139.257 199.674 142.75 198.045 146.008C197.41 147.277 194.911 151.68 193.217 154.675" stroke="#17334F" stroke-width="1.53846" stroke-linecap="round" stroke-linejoin="round"/>
<path d="M209.273 149.089C209.361 146.431 209.008 143.777 208.226 141.236C210.437 138.56 211.477 136.93 211.6 135.709C211.765 134.079 210.72 133.371 209.623 134.08C207.275 135.552 205.091 137.268 203.107 139.2" stroke="#17334F" stroke-width="1.53846" stroke-linecap="round" stroke-linejoin="round"/>
<path d="M212.558 137.359C214.104 135.241 214.328 134.99 215.73 133.033C217.574 130.461 219.377 129.702 220.617 128.257C221.931 126.727 221.311 124.874 219.86 125.407C217.061 126.436 216.254 126.745 214.8 127.967" stroke="#17334F" stroke-width="1.53846" stroke-linecap="round" stroke-linejoin="round"/>
<path d="M214.517 139.131C216.025 137.333 217.011 136.114 217.765 135.301C219.278 133.672 221.148 133.802 222.768 132.799C224.347 131.824 224.279 129.643 222.768 129.834C218.924 130.317 217.992 130.474 217.184 131.288" stroke="#17334F" stroke-width="1.53846" stroke-linecap="round" stroke-linejoin="round"/>
<path d="M167.274 156.417C170.341 161.668 173.927 166.598 177.977 171.134C181.25 174.728 185.714 178.406 188.041 179.396C193.917 181.895 204.776 181.761 212.531 150.717C213.184 148.102 214.875 147.238 216.603 144.434C218.425 141.479 217.985 140.12 219.511 138.153C220.145 137.334 221.787 137.583 223.467 136.64C225.103 135.722 225.155 133.565 223.587 133.79C219.75 134.335 218.811 134.254 218.061 135.068" stroke="#17334F" stroke-width="1.53846" stroke-linecap="round" stroke-linejoin="round"/>
<path d="M216.08 141.177C214.885 139.302 213.285 137.718 211.397 136.542" stroke="#17334F" stroke-width="1.53846" stroke-linecap="round" stroke-linejoin="round"/>
<path d="M146.565 172.066C146.565 172.066 138.639 202.777 136.094 217.265C134.636 224.173 135.495 231.37 138.537 237.741C147.774 258.158 151.752 266.21 156.745 276.134C158.297 279.224 160.11 277.925 162.504 276.253C164.937 274.553 171.752 269.855 171.752 269.855C172.385 269.526 172.881 268.982 173.147 268.32C173.414 267.659 173.435 266.923 173.207 266.247C169.315 253.326 164.772 240.609 159.595 228.146C158.487 225.471 159.129 223.957 160.119 221.98C162.096 218.024 165.819 210.113 165.819 210.113" stroke="#17334F" stroke-width="1.53846" stroke-linecap="round" stroke-linejoin="round"/>
<path d="M160.758 193.589C167.273 215.112 168.996 220.014 173.382 227.678C177.72 235.254 182.803 238.253 190.425 236.402C198.624 234.413 221.203 224.606 223.06 223.779C225.51 222.689 225.459 221.391 225.037 218.428C224.39 213.69 223.077 209.068 221.14 204.697C219.755 202.016 219.801 200.8 216.195 201.788C213.228 202.603 191.938 208.827 189.844 209.7C189.437 195.041 186.877 180.208 179.722 172.937" stroke="#17334F" stroke-width="1.53846" stroke-linecap="round" stroke-linejoin="round"/>
<path d="M159.305 277.995C158.607 284.51 149.474 294.69 155.757 293.12C160.643 291.898 170.906 284.485 175.825 280.671C177.462 279.402 178.504 277.877 176.814 275.377C175.406 273.384 173.83 271.517 172.103 269.792" stroke="#17334F" stroke-width="1.53846" stroke-linecap="round" stroke-linejoin="round"/>
<path d="M224.921 217.555C231.847 218.138 240.928 229.945 240.395 223.256C239.996 218.252 235.589 207.77 232.659 202.373C231.677 200.565 230.271 199.149 227.132 200.336C224.9 201.264 222.759 202.394 220.733 203.71" stroke="#17334F" stroke-width="1.53846" stroke-linecap="round" stroke-linejoin="round"/>
<path d="M80.0173 178.349C81.1122 177.788 82.3075 177.451 83.5339 177.355C84.7603 177.259 85.9934 177.408 87.1621 177.792C88.3307 178.176 89.4116 178.788 90.3421 179.593C91.2726 180.397 92.0342 181.378 92.583 182.479C92.8863 183.112 93.8045 184.922 93.8045 184.922" stroke="#17334F" stroke-width="1.53846" stroke-linecap="round" stroke-linejoin="round"/>
<path d="M121.552 218.428L126.089 227.269C127.227 229.491 127.437 232.075 126.673 234.451C125.91 236.828 124.235 238.807 122.016 239.951L81.8226 260.602C77.9114 262.614 73.3612 262.991 69.1724 261.649C64.9836 260.307 61.4992 257.357 59.4853 253.447L37.6112 210.686C36.4738 208.464 36.2636 205.881 37.0268 203.504C37.79 201.128 39.4643 199.151 41.6827 198.006L48.6629 194.398" stroke="#17334F" stroke-width="1.53846" stroke-linecap="round" stroke-linejoin="round"/>
<path d="M53.6084 205.513C64.5442 199.872 93.8044 184.921 93.8044 184.921C96.0266 183.784 98.6089 183.573 100.986 184.338C103.363 185.101 105.34 186.775 106.485 188.993L112.069 199.872" stroke="#17334F" stroke-width="1.53846" stroke-linecap="round" stroke-linejoin="round"/>
<path d="M108.522 192.833C109.087 192.542 109.704 192.364 110.338 192.311C110.971 192.259 111.609 192.333 112.214 192.527C112.819 192.722 113.38 193.034 113.865 193.446C114.349 193.858 114.747 194.361 115.036 194.927L123.762 211.855C124.054 212.419 124.231 213.037 124.283 213.671C124.336 214.304 124.263 214.941 124.068 215.547C123.874 216.152 123.561 216.713 123.149 217.198C122.738 217.681 122.234 218.08 121.668 218.369L121.609 218.428L104.628 227.153C104.063 227.445 103.446 227.623 102.813 227.675C102.179 227.728 101.541 227.654 100.936 227.459C100.331 227.264 99.7698 226.953 99.2855 226.541C98.8012 226.129 98.403 225.625 98.1138 225.059L92.9951 215.17C92.7034 214.606 92.5261 213.99 92.4732 213.356C92.4205 212.723 92.4931 212.085 92.6871 211.48C92.8811 210.874 93.1926 210.313 93.6038 209.829C94.0151 209.345 94.5178 208.946 95.0834 208.656L112.186 199.873" stroke="#17334F" stroke-width="1.53846" stroke-linecap="round" stroke-linejoin="round"/>
<path d="M115.036 194.925C115.793 196.436 114.513 198.648 112.186 199.869" stroke="#17334F" stroke-width="1.53846" stroke-linecap="round" stroke-linejoin="round"/>
<path d="M105.263 221.162C108.572 221.162 111.255 218.479 111.255 215.17C111.255 211.862 108.572 209.179 105.263 209.179C101.954 209.179 99.2717 211.862 99.2717 215.17C99.2717 218.479 101.954 221.162 105.263 221.162Z" stroke="#17334F" stroke-width="1.53846" stroke-linecap="round" stroke-linejoin="round"/>
<path d="M68.7901 173.753C65.0102 173.507 61.2433 174.401 57.9764 176.318C54.7095 178.235 52.0926 181.088 50.464 184.508C48.8354 187.927 48.2699 191.758 48.8408 195.502C49.4115 199.246 51.0922 202.734 53.6657 205.514L86.1831 188.878C85.3305 184.805 83.1693 181.123 80.0292 178.392C76.889 175.661 72.9421 174.032 68.7901 173.753Z" stroke="#17334F" stroke-width="1.53846" stroke-linecap="round" stroke-linejoin="round"/>
<path d="M53.7805 198.359C52.8914 196.267 52.5124 193.995 52.6748 191.727C52.856 189.008 53.7758 186.39 55.3354 184.155C56.895 181.92 59.035 180.152 61.5248 179.044" stroke="#17334F" stroke-width="1.53846" stroke-linecap="round" stroke-linejoin="round"/>
<path d="M82.3417 190.797C82.1642 189.281 81.7314 187.806 81.0618 186.434" stroke="#17334F" stroke-width="1.53846" stroke-linecap="round" stroke-linejoin="round"/>
<path d="M69.3728 177.883C71.7791 178.169 74.0767 179.049 76.0592 180.442" stroke="#17334F" stroke-width="1.53846" stroke-linecap="round" stroke-linejoin="round"/>
<path d="M59.3084 160.839C71.2916 160.839 81.0058 151.124 81.0058 139.141C81.0058 127.158 71.2916 117.444 59.3084 117.444C47.3253 117.444 37.6111 127.158 37.6111 139.141C37.6111 151.124 47.3253 160.839 59.3084 160.839Z" stroke="#17334F" stroke-width="1.53846" stroke-linecap="round" stroke-linejoin="round"/>
<path d="M42.4456 141.933C42.9631 145.008 44.3088 147.883 46.338 150.251C48.3672 152.618 51.0034 154.388 53.9629 155.37C56.4337 156.195 59.0624 156.434 61.6415 156.068" stroke="#17334F" stroke-width="1.53846" stroke-linecap="round" stroke-linejoin="round"/>
<path d="M57.8154 149.231C56.7469 149.231 55.7039 149.02 54.7155 148.604C52.7998 147.798 51.3215 146.316 50.553 144.429C49.7846 142.542 49.8179 140.478 50.647 138.616C51.1374 137.514 51.8949 136.534 52.8421 135.774C52.7634 134.583 52.9797 133.376 53.4701 132.274C54.7091 129.491 57.5258 127.692 60.6461 127.692C61.7146 127.692 62.7576 127.903 63.7461 128.319C65.6618 129.125 67.1401 130.608 67.9085 132.494C68.677 134.381 68.6436 136.446 67.8145 138.308C67.3241 139.409 66.5666 140.389 65.6193 141.149C65.6981 142.34 65.4818 143.548 64.9914 144.649C63.7524 147.432 60.9356 149.231 57.8157 149.231H57.8154ZM53.1324 137.391C52.6357 137.908 52.2367 138.502 51.9435 139.161C50.5415 142.31 52.0367 145.981 55.2766 147.344C56.0866 147.685 56.9409 147.857 57.8159 147.857C60.3722 147.857 62.6798 146.384 63.6949 144.104C63.9881 143.445 64.1603 142.756 64.2086 142.05C63.1039 142.6 61.8784 142.889 60.6377 142.889C59.5696 142.889 58.5269 142.678 57.5387 142.263C56.3918 141.78 55.3711 141.031 54.5871 140.095C53.923 139.303 53.425 138.375 53.1324 137.391ZM54.3433 136.406C54.7289 138.46 56.1233 140.171 58.0998 141.002C58.9097 141.343 59.7639 141.516 60.6387 141.516C61.8777 141.516 63.0773 141.171 64.1183 140.518C63.7328 138.463 62.3383 136.752 60.3619 135.921C59.5521 135.58 58.6979 135.408 57.823 135.408C56.584 135.408 55.3844 135.752 54.3433 136.406ZM57.8238 134.034C58.892 134.034 59.9347 134.245 60.9229 134.661C62.0698 135.143 63.0904 135.893 63.8745 136.828C64.5385 137.62 65.0365 138.548 65.3292 139.533C65.8258 139.015 66.2249 138.421 66.5181 137.762C67.1972 136.237 67.2246 134.545 66.595 133C65.9656 131.454 64.7545 130.24 63.185 129.579C62.3751 129.239 61.5207 129.066 60.6457 129.066C58.0894 129.066 55.7817 130.539 54.7667 132.819C54.4735 133.478 54.3013 134.167 54.253 134.873C55.3577 134.323 56.5831 134.034 57.8238 134.034Z" fill="#17334F"/>
<path d="M43.4285 132.858C44.449 130.272 46.0891 127.976 48.2045 126.172" stroke="#17334F" stroke-width="1.53846" stroke-linecap="round" stroke-linejoin="round"/>
<path d="M70.0703 152.404C72.2324 150.675 73.9319 148.436 75.0171 145.889" stroke="#17334F" stroke-width="1.53846" stroke-linecap="round" stroke-linejoin="round"/>
<path d="M56.2847 122.329C58.5647 121.915 60.9054 121.971 63.1634 122.492C65.4214 123.014 67.5492 123.991 69.4168 125.363C71.2843 126.735 72.8524 128.474 74.0249 130.472C75.1975 132.471 75.95 134.688 76.2364 136.988" stroke="#17334F" stroke-width="1.53846" stroke-linecap="round" stroke-linejoin="round"/>
<path d="M246.27 154.499C248.962 155.774 251.286 157.716 253.017 160.14C254.748 162.565 255.833 165.392 256.165 168.353C256.496 171.314 256.065 174.31 254.914 177.058C253.762 179.806 251.928 182.214 249.584 184.054C247.241 185.893 244.466 187.103 241.523 187.569C238.579 188.035 235.567 187.74 232.769 186.714C229.972 185.687 227.483 183.963 225.54 181.705C223.596 179.447 222.262 176.73 221.664 173.811C221.303 172.11 221.205 170.364 221.373 168.634" stroke="#17334F" stroke-width="1.53846" stroke-linecap="round" stroke-linejoin="round"/>
<path d="M245.401 158.221C247.243 159.23 248.836 160.642 250.057 162.351C251.512 164.397 252.373 166.805 252.547 169.309C252.721 171.813 252.202 174.316 251.046 176.544" stroke="#17334F" stroke-width="1.53846" stroke-linecap="round" stroke-linejoin="round"/>
<path d="M225.095 169.564C224.91 172.637 225.794 175.678 227.597 178.173C228.92 180.039 230.676 181.555 232.716 182.591" stroke="#17334F" stroke-width="1.53846" stroke-linecap="round" stroke-linejoin="round"/>
<path d="M239.813 183.99C242.039 183.823 244.193 183.127 246.096 181.96" stroke="#17334F" stroke-width="1.53846" stroke-linecap="round" stroke-linejoin="round"/>
<path d="M113.989 101.621C123.627 101.621 131.441 93.8075 131.441 84.1693C131.441 74.531 123.627 66.7178 113.989 66.7178C104.351 66.7178 96.5376 74.531 96.5376 84.1693C96.5376 93.8075 104.351 101.621 113.989 101.621Z" stroke="#17334F" stroke-width="1.53846" stroke-linecap="round" stroke-linejoin="round"/>
<path d="M112.785 92.3078C111.983 92.3078 111.201 92.1422 110.46 91.8155C109.023 91.1823 107.914 90.0173 107.338 88.5349C106.762 87.0526 106.787 85.4304 107.408 83.9672C107.776 83.1017 108.344 82.3318 109.055 81.7348C108.996 80.7989 109.158 79.8501 109.526 78.9845C110.455 76.7978 112.567 75.3848 114.908 75.3848C115.709 75.3848 116.491 75.5504 117.233 75.8771C118.669 76.5103 119.778 77.6754 120.354 79.1577C120.931 80.6401 120.906 82.2623 120.284 83.7254C119.916 84.591 119.348 85.3609 118.638 85.9578C118.697 86.8937 118.534 87.8425 118.167 88.7081C117.237 90.8948 115.125 92.3078 112.785 92.3078H112.785ZM109.272 83.0048C108.9 83.4117 108.601 83.8782 108.381 84.3957C107.329 86.8702 108.451 89.7545 110.881 90.8253C111.488 91.093 112.129 91.2288 112.785 91.2288C114.702 91.2288 116.433 90.0712 117.194 88.2797C117.414 87.7622 117.543 87.2207 117.58 86.6657C116.751 87.0979 115.832 87.325 114.901 87.325C114.1 87.325 113.318 87.1594 112.577 86.8328C111.717 86.4538 110.951 85.8649 110.363 85.1298C109.865 84.5072 109.492 83.7784 109.272 83.0048ZM110.181 82.231C110.47 83.8451 111.516 85.1893 112.998 85.8426C113.605 86.1102 114.246 86.2459 114.902 86.2459C115.831 86.2459 116.731 85.9752 117.512 85.4617C117.223 83.8476 116.177 82.5033 114.695 81.8501C114.087 81.5824 113.446 81.4467 112.79 81.4467C111.861 81.4467 110.961 81.7175 110.181 82.231ZM112.791 80.3676C113.592 80.3676 114.374 80.5332 115.115 80.8598C115.975 81.2389 116.741 81.8278 117.329 82.5629C117.827 83.1854 118.2 83.9142 118.42 84.6878C118.792 84.281 119.092 83.8144 119.312 83.2969C119.821 82.0982 119.842 80.7693 119.369 79.5549C118.897 78.3405 117.989 77.3861 116.812 76.8674C116.204 76.5997 115.564 76.4639 114.907 76.4639C112.99 76.4639 111.259 77.6215 110.498 79.413C110.278 79.9305 110.149 80.472 110.113 81.0269C110.941 80.5947 111.86 80.3676 112.791 80.3676Z" fill="#17334F"/>
<path d="M101.308 78.8184C100.327 81.1266 99.9982 83.6597 100.357 86.1419C100.717 88.624 101.75 90.96 103.345 92.8956C104.69 94.5092 106.379 95.8012 108.289 96.677" stroke="#17334F" stroke-width="1.53846" stroke-linecap="round" stroke-linejoin="round"/>
<path d="M115.56 97.7751C117.779 97.5348 119.901 96.7344 121.726 95.4492" stroke="#17334F" stroke-width="1.53846" stroke-linecap="round" stroke-linejoin="round"/>
<path d="M126.729 78.9873C127.446 80.7399 127.79 82.6223 127.74 84.5152C127.689 86.4079 127.246 88.2696 126.438 89.9817" stroke="#17334F" stroke-width="1.53846" stroke-linecap="round" stroke-linejoin="round"/>
<path d="M105.903 73.0597C107.716 71.76 109.808 70.9015 112.011 70.5522" stroke="#17334F" stroke-width="1.53846" stroke-linecap="round" stroke-linejoin="round"/>
<path d="M124.576 75.4373C123.114 73.6928 121.26 72.3178 119.166 71.4243" stroke="#17334F" stroke-width="1.53846" stroke-linecap="round" stroke-linejoin="round"/>
<path d="M178.384 288.814C184.036 270.892 195.422 255.325 210.789 244.508C226.156 233.693 244.652 228.227 263.43 228.954" stroke="#17334F" stroke-width="1.53846" stroke-linecap="round" stroke-linejoin="round"/>
<path d="M189.728 104.122C192.229 99.0025 195.552 95.0074 200.14 93.0695C206.55 90.3615 214.915 91.8481 227.888 99.178C240.861 106.508 246.466 112.96 247.43 119.828C248.086 124.485 246.558 129.141 243.766 133.679" stroke="#17334F" stroke-width="1.53846" stroke-linecap="round" stroke-linejoin="round"/>
<path d="M217.765 162.933C219.329 163.397 220.926 163.747 222.541 163.98C232.44 165.191 238.063 160.658 240.866 155.836C246.486 146.164 242.047 139.545 240.924 132.568C239.894 126.166 242.026 122.389 238.248 117.385C235.57 113.838 230.989 110.266 223.88 106.216C216.796 102.181 211.374 100.101 206.953 99.6423C200.671 98.9928 198.571 102.713 192.525 105.169C187.112 107.369 180.658 107.438 175.54 113.081" stroke="#17334F" stroke-width="1.53846" stroke-linecap="round" stroke-linejoin="round"/>
<path d="M232.774 87.834C232.33 87.0096 231.665 86.3251 230.854 85.8568C230.272 85.51 229.624 85.2829 228.953 85.189C228.281 85.0949 227.597 85.1357 226.942 85.309C226.285 85.4823 225.671 85.7847 225.133 86.1984C224.595 86.612 224.145 87.1287 223.81 87.7182C223.375 88.4746 223.139 89.3287 223.122 90.2009C223.106 91.0732 223.311 91.9355 223.717 92.7075C224.124 93.4795 224.718 94.1363 225.447 94.6167C226.175 95.0971 227.013 95.3856 227.882 95.4553" stroke="#17334F" stroke-width="1.53846" stroke-linecap="round" stroke-linejoin="round"/>
<path d="M144.645 179.803C163.376 180.384 176.93 180.442 182.34 176.254" stroke="#17334F" stroke-width="1.53846" stroke-linecap="round" stroke-linejoin="round"/>
<path d="M173.905 183.409C174.429 184.515 174.894 185.558 175.301 186.609" stroke="#17334F" stroke-width="1.53846" stroke-linecap="round" stroke-linejoin="round"/>
<path d="M177.628 193.24C183.096 211.214 178.732 221.272 188.732 218.66C198.33 216.153 203.566 214.53 209.209 212.96" stroke="#17334F" stroke-width="1.53846" stroke-linecap="round" stroke-linejoin="round" stroke-dasharray="9.05 9.05"/>
<path d="M212.647 212.088C213.753 211.796 214.857 211.564 216.021 211.273" stroke="#17334F" stroke-width="1.53846" stroke-linecap="round" stroke-linejoin="round"/>
<path d="M155.814 205.513C155.349 206.619 154.884 207.724 154.418 208.713" stroke="#17334F" stroke-width="1.53846" stroke-linecap="round" stroke-linejoin="round"/>
<path d="M151.742 215.17C149.125 221.743 148.196 225.349 148.775 228.433C149.77 233.726 151.742 240.475 161.922 264.382" stroke="#17334F" stroke-width="1.53846" stroke-linecap="round" stroke-linejoin="round" stroke-dasharray="8.95 8.95"/>
<path d="M163.318 267.582C163.784 268.629 164.249 269.676 164.714 270.781" stroke="#17334F" stroke-width="1.53846" stroke-linecap="round" stroke-linejoin="round"/>
<path d="M159.828 78.3528C160.381 76.867 161.189 75.4891 162.216 74.2812" stroke="#17334F" stroke-width="1.53846" stroke-linecap="round" stroke-linejoin="round"/>
<path d="M160.526 88.358C159.767 86.9522 159.292 85.4104 159.129 83.8208" stroke="#17334F" stroke-width="1.53846" stroke-linecap="round" stroke-linejoin="round"/>
<path d="M168.612 94.5825C167.015 94.219 165.51 93.5278 164.194 92.5527" stroke="#17334F" stroke-width="1.53846" stroke-linecap="round" stroke-linejoin="round"/>
<path d="M178.617 92.6621C177.245 93.6164 175.706 94.3048 174.08 94.6919" stroke="#17334F" stroke-width="1.53846" stroke-linecap="round" stroke-linejoin="round"/>
<path d="M183.79 83.8208C183.617 85.4711 183.123 87.0716 182.336 88.5323" stroke="#17334F" stroke-width="1.53846" stroke-linecap="round" stroke-linejoin="round"/>
<path d="M180.537 74.1069C181.649 75.3261 182.519 76.7476 183.097 78.2943" stroke="#17334F" stroke-width="1.53846" stroke-linecap="round" stroke-linejoin="round"/>
<path d="M166.866 71.023C168.325 70.4327 169.887 70.1365 171.462 70.1514C173.059 70.162 174.639 70.4777 176.119 71.0815" stroke="#17334F" stroke-width="1.53846" stroke-linecap="round" stroke-linejoin="round"/>
<path d="M134.815 266.651C134.883 267.173 134.923 267.697 134.934 268.223C134.928 270.172 134.341 272.076 133.247 273.69" stroke="#17334F" stroke-width="1.53846" stroke-linecap="round" stroke-linejoin="round"/>
<path d="M119.69 260.137C121.304 259.043 123.208 258.456 125.158 258.45C127.565 258.444 129.889 259.336 131.673 260.951" stroke="#17334F" stroke-width="1.53846" stroke-linecap="round" stroke-linejoin="round"/>
<path d="M116.316 272.352C115.714 271.058 115.396 269.649 115.385 268.222C115.379 267.34 115.495 266.46 115.732 265.61" stroke="#17334F" stroke-width="1.53846" stroke-linecap="round" stroke-linejoin="round"/>
<path d="M128.066 277.529C127.126 277.83 126.145 277.988 125.158 277.995C123.73 277.983 122.322 277.665 121.028 277.063" stroke="#17334F" stroke-width="1.53846" stroke-linecap="round" stroke-linejoin="round"/>
<path fill-rule="evenodd" clip-rule="evenodd" d="M73.3265 195.6C73.3299 195.398 73.325 195.196 73.3117 194.995C74.2589 194.235 75.0165 193.256 75.5069 192.154C76.336 190.292 76.3693 188.227 75.6009 186.341C74.8324 184.454 73.3542 182.971 71.4385 182.165C70.4499 181.749 69.4069 181.539 68.3385 181.539C65.2182 181.539 62.4015 183.337 61.1625 186.12C60.6721 187.222 60.4558 188.429 60.5345 189.62C59.5872 190.38 58.8298 191.36 58.3394 192.462C57.5103 194.324 57.477 196.389 58.2454 198.275C58.8347 199.722 59.8413 200.931 61.1426 201.78L62.6191 201.031C59.6232 199.558 58.2854 196.041 59.6359 193.007C59.9291 192.348 60.3281 191.755 60.8248 191.237C61.1174 192.221 61.6154 193.149 62.2794 193.941C63.0635 194.877 64.0842 195.626 65.231 196.109C66.2193 196.525 67.2619 196.735 68.3301 196.735C69.5708 196.735 70.7962 196.446 71.9009 195.896C71.8906 196.047 71.8746 196.198 71.8529 196.347L73.3265 195.6ZM65.7922 194.849C63.8157 194.017 62.4213 192.306 62.0357 190.252C63.0768 189.598 64.2763 189.254 65.5154 189.254C66.3902 189.254 67.2445 189.426 68.0543 189.767C70.0307 190.599 71.4251 192.309 71.8107 194.364C70.7697 195.017 69.5701 195.362 68.3311 195.362C67.4563 195.362 66.602 195.189 65.7922 194.849ZM68.6153 188.507C67.6271 188.091 66.5844 187.88 65.5162 187.88C64.2755 187.88 63.0501 188.169 61.9454 188.72C61.9937 188.013 62.1659 187.324 62.4591 186.665C63.4741 184.385 65.7818 182.912 68.3381 182.912C69.213 182.912 70.0674 183.085 70.8774 183.426C72.4469 184.086 73.6579 185.3 74.2874 186.846C74.9169 188.392 74.8896 190.083 74.2104 191.609C73.9172 192.267 73.5182 192.861 73.0216 193.379C72.7289 192.394 72.2309 191.467 71.5669 190.674C70.7828 189.739 69.7622 188.989 68.6153 188.507Z" fill="#17334F"/>
</svg>
